M48
; DRILL file {KiCad 9.0.4} date 2026-05-03T23:25:25+0200
; FORMAT={-:-/ absolute / metric / decimal}
; #@! TF.CreationDate,2026-05-03T23:25:25+02:00
; #@! TF.GenerationSoftware,Kicad,Pcbnew,9.0.4
; #@! TF.FileFunction,Plated,1,4,PTH
FMAT,2
METRIC
; #@! TA.AperFunction,Plated,PTH,ViaDrill
T1C0.300
; #@! TA.AperFunction,Plated,PTH,ViaDrill
T2C0.400
; #@! TA.AperFunction,Plated,PTH,ComponentDrill
T3C1.000
; #@! TA.AperFunction,Plated,PTH,ComponentDrill
T4C1.200
%
G90
G05
T1
X70.5Y-71.0
X70.7Y-128.5
X70.7Y-135.5
X70.9Y-93.2
X70.953Y-142.7
X70.953Y-97.67
X70.965Y-123.679
X70.977Y-141.715
X70.977Y-140.713
X70.982Y-77.719
X70.982Y-143.725
X70.986Y-98.688
X70.993Y-57.686
X70.993Y-138.736
X70.998Y-96.751
X71.005Y-124.706
X71.014Y-73.739
X71.024Y-99.747
X71.039Y-139.657
X71.039Y-116.674
X71.041Y-131.703
X71.044Y-56.732
X71.047Y-120.711
X71.1Y-101.2
X71.962Y-120.677
X71.976Y-124.752
X71.977Y-140.655
X71.983Y-98.73
X71.985Y-96.73
X71.987Y-141.736
X72.001Y-99.668
X72.012Y-77.725
X72.032Y-123.726
X72.038Y-97.694
X72.044Y-139.7
X72.25Y-80.3
X72.968Y-120.69
X72.97Y-123.69
X72.975Y-96.729
X72.982Y-98.658
X72.983Y-124.689
X72.995Y-141.675
X73.017Y-140.689
X73.022Y-97.681
X73.032Y-77.656
X73.034Y-139.726
X73.036Y-99.667
X73.9Y-81.9
X73.951Y-141.657
X73.973Y-77.679
X73.977Y-139.715
X73.977Y-98.74
X74.005Y-120.742
X74.008Y-140.725
X74.019Y-89.717
X74.026Y-96.741
X74.04Y-99.74
X74.048Y-97.712
X74.972Y-139.668
X74.978Y-77.686
X74.986Y-96.695
X75.007Y-120.657
X75.007Y-89.688
X75.01Y-98.662
X75.026Y-140.704
X75.029Y-141.718
X75.039Y-99.718
X75.048Y-97.722
X75.3Y-113.1
X75.3Y-131.9
X75.4Y-109.6
X75.4Y-116.6
X75.8Y-130.7
X75.952Y-68.741
X75.956Y-77.752
X75.956Y-134.689
X75.957Y-98.668
X75.958Y-89.722
X75.958Y-93.744
X75.958Y-142.746
X75.966Y-138.723
X75.974Y-137.707
X75.977Y-139.689
X75.977Y-96.679
X75.986Y-97.7
X75.989Y-70.686
X75.989Y-71.73
X75.989Y-72.711
X75.989Y-135.741
X75.996Y-90.736
X75.997Y-136.707
X75.999Y-74.722
X76.0Y-141.679
X76.001Y-75.676
X76.004Y-69.708
X76.012Y-143.735
X76.015Y-91.733
X76.022Y-95.734
X76.031Y-92.679
X76.031Y-73.693
X76.034Y-76.677
X76.041Y-140.692
X76.047Y-94.686
X76.3Y-67.4
X76.955Y-136.727
X76.961Y-74.717
X76.962Y-141.745
X76.966Y-139.707
X76.969Y-135.723
X76.971Y-137.658
X76.991Y-134.696
X77.0Y-60.1
X77.005Y-143.659
X77.016Y-142.693
X77.023Y-140.704
X77.046Y-138.695
X77.1Y-133.5
X77.15Y-119.25
X77.9Y-96.8
X77.9Y-98.2
X77.953Y-137.654
X77.957Y-139.713
X77.957Y-135.701
X77.959Y-142.732
X77.966Y-134.673
X77.981Y-129.677
X77.983Y-127.665
X77.992Y-126.727
X77.995Y-141.669
X77.997Y-132.663
X78.006Y-143.673
X78.008Y-128.719
X78.027Y-138.672
X78.035Y-136.723
X78.035Y-133.669
X78.038Y-131.749
X78.041Y-140.672
X78.043Y-130.727
X78.1Y-118.3
X78.16Y-120.64
X78.6Y-63.5
X78.6Y-68.7
X78.6Y-97.5
X78.6Y-98.85
X78.6Y-118.8
X78.7Y-107.525
X78.7Y-112.675
X78.954Y-94.672
X78.956Y-92.717
X78.962Y-87.741
X78.974Y-143.657
X78.974Y-93.745
X78.98Y-88.722
X78.993Y-89.702
X79.0Y-105.2
X79.009Y-90.686
X79.011Y-86.722
X79.019Y-85.722
X79.022Y-83.708
X79.047Y-91.719
X79.047Y-84.688
X79.1Y-72.7
X79.2Y-116.6
X79.3Y-82.45
X79.969Y-77.659
X80.4Y-72.3
X80.4Y-99.4
X80.4Y-116.1
X80.5Y-120.9
X80.9Y-82.6
X80.9Y-85.975
X80.9Y-91.175
X80.923Y-61.725
X80.992Y-77.726
X81.001Y-105.73
X81.3Y-95.2
X81.5Y-115.5
X81.6Y-70.7
X81.7Y-99.4
X81.7Y-108.7
X81.7Y-130.8
X81.7Y-136.0
X81.7Y-141.2
X81.8Y-104.3
X82.0Y-62.8
X82.0Y-67.4
X82.002Y-77.678
X82.015Y-59.69
X82.032Y-58.702
X82.033Y-114.675
X82.2Y-76.8
X82.2Y-110.7
X82.2Y-121.2
X82.25Y-106.5
X82.3Y-119.2
X82.4Y-66.4
X82.4Y-103.7
X82.5Y-63.3
X82.6Y-74.3
X82.6Y-141.9
X82.65Y-82.0
X82.7Y-139.5
X82.9Y-69.7
X82.9Y-94.9
X82.955Y-58.656
X82.992Y-60.73
X82.992Y-59.683
X83.0Y-109.8
X83.008Y-113.707
X83.034Y-104.723
X83.039Y-77.686
X83.05Y-107.3
X83.1Y-62.8
X83.2Y-73.7
X83.2Y-84.375
X83.2Y-104.1
X83.4Y-65.9
X83.6Y-94.2
X83.6Y-117.7
X83.6Y-121.5
X83.85Y-82.35
X83.9Y-72.9
X83.976Y-126.5
X83.99Y-77.718
X84.2Y-93.5
X84.275Y-87.5
X84.3Y-83.3
X84.3Y-99.2
X84.3Y-139.5
X84.4Y-85.4
X84.7Y-137.7
X84.8Y-125.6
X84.8Y-131.8
X84.875Y-89.775
X84.956Y-136.686
X84.966Y-85.747
X84.995Y-129.655
X84.998Y-128.726
X84.999Y-77.663
X85.0Y-92.9
X85.0Y-138.7
X85.0Y-82.698
X85.1Y-96.5
X85.1Y-116.2
X85.4Y-89.3
X85.5Y-72.2
X85.5Y-76.1
X85.5Y-121.05
X85.6Y-136.0
X85.8Y-135.1
X85.9Y-83.1
X85.9Y-96.5
X85.9Y-116.2
X85.961Y-128.666
X86.0Y-77.743
X86.031Y-127.662
X86.049Y-129.723
X86.1Y-125.6
X86.3Y-103.1
X86.95Y-106.65
X86.958Y-77.656
X86.981Y-60.667
X86.986Y-76.715
X87.0Y-62.8
X87.012Y-59.712
X87.039Y-58.743
X87.3Y-104.6
X87.5Y-103.8
X87.699Y-98.575
X87.8Y-139.4
X87.952Y-60.661
X87.964Y-76.7
X87.965Y-59.735
X87.971Y-58.731
X88.0Y-62.7
X88.009Y-77.654
X88.034Y-94.717
X88.4Y-103.3
X88.5Y-104.6
X88.7Y-82.2
X88.8Y-139.5
X88.965Y-143.661
X89.025Y-106.626
X89.2Y-85.4
X89.2Y-119.0
X89.368Y-63.492
X89.6Y-77.5
X89.6Y-103.2
X89.7Y-83.1
X89.9Y-85.4
X89.9Y-125.2
X89.95Y-82.2
X89.965Y-143.691
X89.973Y-127.744
X90.003Y-129.667
X90.021Y-128.679
X90.455Y-63.537
X90.575Y-107.475
X90.6Y-104.1
X90.8Y-77.6
X90.956Y-118.686
X90.958Y-96.728
X90.961Y-127.741
X91.024Y-119.738
X91.028Y-128.669
X91.05Y-82.2
X91.1Y-83.05
X91.149Y-111.351
X91.6Y-125.3
X91.7Y-129.3
X91.9Y-143.1
X91.979Y-127.688
X91.987Y-77.71
X92.035Y-83.2
X92.05Y-82.3
X92.076Y-66.505
X92.3Y-128.5
X92.449Y-85.675
X92.776Y-61.725
X92.8Y-97.1
X92.876Y-105.73
X92.9Y-103.3
X93.0Y-125.3
X93.0Y-141.3
X93.015Y-77.73
X93.05Y-72.825
X93.075Y-116.4
X93.225Y-129.769
X93.8Y-142.0
X93.961Y-59.676
X93.994Y-77.674
X94.0Y-82.6
X94.0Y-85.95
X94.0Y-104.6
X94.023Y-103.688
X94.2Y-97.3
X94.425Y-90.0
X94.8Y-97.3
X94.8Y-130.8
X94.959Y-117.747
X94.964Y-77.741
X94.991Y-60.655
X95.0Y-62.8
X95.0Y-125.1
X95.0Y-141.9
X95.01Y-104.709
X95.014Y-103.733
X95.017Y-116.665
X95.025Y-73.663
X95.15Y-82.0
X95.2Y-106.6
X95.2Y-114.4
X95.2Y-134.8
X95.4Y-70.825
X96.175Y-95.225
X96.3Y-84.375
X96.4Y-77.8
X96.4Y-81.9
X96.7Y-139.6
X97.0Y-125.3
X97.076Y-126.5
X97.275Y-103.675
X97.3Y-76.5
X97.375Y-121.05
X97.4Y-93.0
X97.5Y-84.9
X97.6Y-96.5
X97.8Y-77.8
X97.85Y-82.0
X97.9Y-141.1
X97.95Y-84.25
X97.996Y-95.668
X98.003Y-58.701
X98.1Y-137.5
X98.2Y-129.0
X98.275Y-93.125
X98.4Y-139.8
X98.6Y-85.1
X98.8Y-107.1
X98.9Y-137.6
X98.954Y-104.669
X98.973Y-95.667
X98.976Y-103.75
X98.978Y-128.663
X99.0Y-62.9
X99.007Y-127.689
X99.021Y-58.735
X99.026Y-60.684
X99.031Y-59.707
X99.032Y-140.668
X99.05Y-77.743
X99.05Y-82.1
X99.1Y-96.4
X99.2Y-129.6
X99.2Y-137.0
X99.3Y-130.8
X99.3Y-134.1
X99.4Y-106.7
X99.7Y-140.1
X99.7Y-141.2
X99.8Y-124.5
X99.85Y-118.35
X99.9Y-62.7
X99.961Y-77.719
X99.979Y-60.722
X99.999Y-58.69
X100.019Y-59.655
X100.047Y-103.658
X100.1Y-104.4
X100.4Y-111.0
X100.45Y-119.3
X100.6Y-125.3
X100.65Y-67.0
X100.674Y-82.275
X100.824Y-98.7
X100.9Y-84.2
X100.9Y-103.4
X100.997Y-77.69
X102.0Y-84.3
X102.0Y-125.3
X102.047Y-77.656
X102.1Y-81.8
X102.35Y-63.475
X102.375Y-68.675
X102.4Y-104.1
X102.4Y-107.5
X102.5Y-84.9
X102.775Y-72.7
X102.8Y-103.0
X102.825Y-111.475
X102.952Y-128.677
X102.988Y-77.657
X102.997Y-81.691
X103.026Y-129.715
X103.047Y-127.751
X103.25Y-116.175
X103.3Y-125.3
X103.5Y-84.075
X103.957Y-127.719
X103.962Y-90.738
X103.968Y-94.721
X103.978Y-93.747
X103.996Y-128.681
X103.998Y-77.729
X104.001Y-129.692
X104.003Y-92.653
X104.02Y-91.709
X104.025Y-89.671
X104.027Y-81.691
X104.4Y-96.2
X104.6Y-125.3
X104.6Y-143.9
X104.673Y-61.725
X104.726Y-105.75
X104.959Y-129.693
X104.962Y-92.667
X104.976Y-137.682
X104.977Y-88.729
X104.981Y-138.73
X104.982Y-77.753
X104.993Y-134.752
X105.0Y-72.0
X105.008Y-93.744
X105.011Y-81.701
X105.021Y-128.701
X105.026Y-127.719
X105.1Y-87.7
X105.2Y-86.725
X105.2Y-103.2
X105.2Y-136.3
X105.5Y-90.325
X105.625Y-85.125
X105.625Y-95.525
X105.9Y-142.0
X105.957Y-67.664
X105.96Y-137.682
X105.961Y-65.729
X105.964Y-138.746
X105.971Y-134.665
X105.982Y-115.688
X105.984Y-68.752
X105.994Y-108.748
X105.996Y-77.672
X106.001Y-69.677
X106.001Y-112.684
X106.002Y-128.692
X106.006Y-107.697
X106.009Y-59.676
X106.014Y-127.669
X106.014Y-58.713
X106.016Y-63.697
X106.017Y-103.708
X106.021Y-64.663
X106.021Y-66.728
X106.023Y-114.692
X106.035Y-139.744
X106.046Y-70.684
X106.049Y-113.736
X106.1Y-109.8
X106.1Y-125.3
X106.4Y-111.8
X106.475Y-72.2
X106.5Y-110.7
X106.8Y-107.1
X106.967Y-115.744
X106.994Y-77.663
X107.0Y-71.3
X107.031Y-59.742
X107.043Y-65.702
X107.2Y-82.65
X107.2Y-104.6
X107.2Y-109.6
X107.2Y-114.9
X107.4Y-142.0
X107.9Y-130.8
X107.9Y-136.0
X107.988Y-94.708
X108.004Y-77.737
X108.2Y-72.1
X108.4Y-140.0
X109.2Y-142.0
X109.225Y-121.05
X109.5Y-72.2
X109.5Y-84.075
X109.5Y-94.65
X109.7Y-77.1
X109.961Y-102.688
X110.176Y-126.5
X110.4Y-125.2
X110.7Y-138.1
X110.9Y-62.9
X110.962Y-92.741
X110.969Y-60.696
X110.972Y-93.656
X110.975Y-91.745
X110.978Y-85.656
X110.991Y-82.683
X110.993Y-90.705
X110.998Y-104.678
X110.999Y-87.668
X111.0Y-107.0
X111.0Y-88.661
X111.005Y-59.732
X111.01Y-102.653
X111.021Y-83.734
X111.024Y-89.706
X111.025Y-141.664
X111.027Y-84.669
X111.032Y-81.743
X111.035Y-86.688
X111.038Y-103.734
X111.039Y-58.694
X111.048Y-57.727
X111.3Y-137.0
X111.951Y-57.685
X111.954Y-59.717
X111.967Y-128.732
X111.968Y-132.693
X111.971Y-104.684
X111.971Y-93.74
X111.976Y-94.717
X111.977Y-102.668
X111.987Y-141.742
X111.998Y-134.701
X112.0Y-63.1
X112.007Y-60.657
X112.013Y-131.655
X112.019Y-58.706
X112.02Y-130.66
X112.034Y-129.661
X112.035Y-140.654
X112.035Y-82.662
X112.043Y-133.749
X112.043Y-135.655
X112.045Y-127.685
X112.047Y-103.703
X112.1Y-69.3
X112.1Y-107.0
X112.2Y-63.9
X112.2Y-64.8
X112.2Y-65.8
X112.2Y-66.9
X112.2Y-70.4
X112.2Y-72.4
X112.2Y-113.4
X112.3Y-67.9
X112.3Y-71.5
X112.3Y-108.3
X112.3Y-110.0
X112.3Y-111.3
X112.3Y-112.4
X112.3Y-114.7
X112.3Y-115.7
X112.952Y-57.665
X112.967Y-123.677
X112.979Y-94.733
X112.983Y-139.697
X113.0Y-138.8
X113.001Y-141.674
X113.02Y-140.668
X113.875Y-82.2
X113.966Y-123.72
X114.025Y-57.656
X114.034Y-124.723
X114.039Y-94.733
X114.1Y-139.5
X114.25Y-68.75
X114.25Y-112.675
X114.275Y-63.6
X114.275Y-107.475
X114.675Y-72.75
X114.875Y-115.825
X114.976Y-124.743
X114.978Y-123.748
X115.03Y-80.727
X115.039Y-57.721
X115.1Y-139.5
X115.2Y-118.6
X115.968Y-80.672
X115.97Y-123.71
X115.996Y-124.682
X115.998Y-81.667
X116.018Y-83.753
X116.026Y-82.656
X116.042Y-57.692
X116.048Y-84.663
X116.4Y-118.6
X116.573Y-61.725
X116.576Y-105.75
X116.8Y-102.6
X116.952Y-91.682
X116.957Y-127.725
X116.96Y-128.744
X116.961Y-88.668
X116.963Y-86.704
X116.965Y-92.727
X116.966Y-82.669
X116.969Y-84.673
X116.97Y-89.656
X116.975Y-129.708
X116.989Y-57.683
X116.99Y-73.707
X116.993Y-87.677
X117.0Y-116.125
X117.002Y-85.712
X117.01Y-90.683
X117.021Y-124.703
X117.023Y-81.747
X117.035Y-93.697
X117.044Y-83.684
X117.048Y-80.75
X117.1Y-117.8
X117.4Y-141.9
X117.6Y-118.6
X117.95Y-60.707
X117.951Y-134.732
X117.953Y-83.703
X117.953Y-89.704
X117.955Y-137.67
X117.959Y-61.71
X117.971Y-129.739
X117.973Y-90.733
X117.977Y-92.702
X117.977Y-111.747
X117.978Y-104.698
X117.98Y-65.696
X117.981Y-63.661
X117.982Y-87.68
X117.985Y-66.654
X117.986Y-91.75
X117.986Y-108.703
X117.987Y-102.688
X117.995Y-62.736
X117.996Y-138.699
X118.0Y-127.694
X118.005Y-57.748
X118.006Y-67.662
X118.006Y-93.701
X118.008Y-107.721
X118.01Y-110.744
X118.016Y-80.739
X118.019Y-135.741
X118.02Y-88.666
X118.02Y-69.744
X118.021Y-68.699
X118.023Y-82.699
X118.023Y-81.668
X118.026Y-103.726
X118.028Y-109.74
X118.031Y-85.703
X118.032Y-105.654
X118.032Y-128.714
X118.033Y-58.678
X118.034Y-84.653
X118.038Y-64.72
X118.043Y-106.742
X118.048Y-59.714
X118.049Y-86.702
X118.049Y-136.707
X118.2Y-115.6
X118.3Y-114.3
X118.4Y-113.0
X118.6Y-142.0
X118.952Y-91.675
X118.957Y-92.657
X118.958Y-135.728
X118.959Y-115.668
X118.966Y-58.662
X118.971Y-89.673
X118.986Y-137.704
X118.988Y-90.74
X118.992Y-103.736
X118.996Y-133.708
X119.0Y-104.7
X119.0Y-109.7
X119.0Y-114.8
X119.004Y-138.67
X119.009Y-87.655
X119.009Y-136.675
X119.01Y-83.686
X119.011Y-134.699
X119.012Y-82.678
X119.021Y-81.702
X119.021Y-59.709
X119.032Y-85.706
X119.037Y-84.737
X119.041Y-86.692
X119.044Y-93.747
X119.046Y-88.712
X119.047Y-80.724
X119.2Y-116.8
X119.6Y-141.5
X119.8Y-125.0
X119.8Y-127.8
X119.955Y-90.661
X119.958Y-138.716
X119.96Y-86.684
X119.967Y-83.698
X119.968Y-137.724
X119.975Y-133.702
X119.98Y-93.712
X119.985Y-91.653
X120.0Y-132.672
X120.0Y-84.75
X120.0Y-85.74
X120.004Y-80.703
X120.006Y-92.672
X120.013Y-88.671
X120.014Y-81.717
X120.016Y-89.737
X120.018Y-82.681
X120.026Y-87.717
X120.03Y-134.73
X120.032Y-135.726
X120.037Y-136.748
X120.2Y-116.2
X120.83Y-103.38
X120.953Y-86.657
X120.965Y-88.666
X120.966Y-92.655
X120.979Y-81.676
X120.98Y-83.736
X120.98Y-87.739
X120.982Y-90.747
X120.989Y-130.667
X120.993Y-80.729
X121.0Y-62.1
X121.002Y-91.705
X121.015Y-85.736
X121.026Y-82.719
X121.037Y-89.75
X121.046Y-84.737
X121.047Y-129.699
X121.3Y-116.2
X121.96Y-80.752
X121.962Y-101.67
X121.965Y-86.664
X121.967Y-88.725
X121.972Y-56.699
X121.978Y-81.656
X121.981Y-57.671
X121.991Y-61.657
X121.994Y-90.655
X121.998Y-123.735
X122.012Y-91.662
X122.012Y-84.685
X122.016Y-58.681
X122.018Y-82.725
X122.018Y-128.734
X122.023Y-127.704
X122.027Y-89.743
X122.028Y-85.705
X122.028Y-129.687
X122.032Y-87.729
X122.035Y-105.731
X122.036Y-98.676
X122.04Y-83.745
X122.5Y-59.7
X122.6Y-63.2
X122.6Y-106.7
X122.9Y-99.3
X122.956Y-127.667
X122.965Y-104.73
X122.97Y-83.729
X122.971Y-101.659
X122.981Y-105.714
X122.987Y-81.705
X122.988Y-123.722
X122.989Y-87.729
X122.999Y-129.664
X123.006Y-89.739
X123.007Y-102.72
X123.008Y-143.715
X123.01Y-103.742
X123.01Y-56.728
X123.013Y-82.665
X123.016Y-128.722
X123.027Y-80.695
X123.028Y-90.753
X123.041Y-88.73
X123.951Y-133.709
X123.954Y-132.722
X123.954Y-128.716
X123.965Y-137.665
X123.996Y-101.727
X124.001Y-123.655
X124.002Y-136.654
X124.003Y-142.66
X124.003Y-80.662
X124.011Y-140.738
X124.011Y-127.683
X124.032Y-143.699
X124.033Y-141.677
X124.2Y-85.85
X124.2Y-99.0
X124.5Y-106.4
X124.875Y-107.4
X124.875Y-111.7
X124.9Y-57.5
X124.9Y-61.8
X124.9Y-66.1
X124.9Y-86.5
X124.953Y-127.738
X124.963Y-128.712
X124.968Y-133.657
X124.981Y-123.677
X124.981Y-80.696
X124.989Y-142.698
X124.992Y-95.715
X124.999Y-143.733
X125.0Y-78.0
X125.002Y-101.715
X125.003Y-136.697
X125.009Y-137.752
X125.016Y-59.706
X125.016Y-141.733
X125.021Y-140.7
X125.03Y-132.661
X125.2Y-130.9
X125.2Y-135.2
X125.25Y-121.175
X125.4Y-84.0
X125.4Y-85.1
X125.4Y-110.4
X125.5Y-64.7
X125.5Y-108.7
X125.6Y-63.3
X125.6Y-99.0
X125.6Y-105.0
X125.7Y-77.1
X125.7Y-96.0
X125.7Y-106.3
X125.8Y-94.5
X125.9Y-67.5
X125.9Y-69.8
X125.9Y-72.4
X125.968Y-101.738
X125.986Y-128.657
X125.986Y-143.724
X126.001Y-123.669
X126.009Y-127.741
X126.046Y-80.674
X126.3Y-78.0
X126.3Y-83.4
X126.5Y-99.6
X126.6Y-104.3
X126.7Y-84.8
X126.7Y-89.1
X126.7Y-93.4
X126.7Y-105.7
X126.7Y-110.0
X126.7Y-114.3
X126.7Y-118.6
X126.7Y-133.5
X126.7Y-137.8
X126.7Y-142.1
X126.8Y-60.1
X126.8Y-64.4
X126.8Y-68.7
X126.8Y-73.0
X126.952Y-101.736
X126.964Y-80.702
X127.002Y-128.654
X127.014Y-127.678
X127.045Y-123.688
X127.8Y-76.0
X127.972Y-95.654
X128.007Y-128.704
X128.017Y-80.674
X128.018Y-127.668
X128.037Y-101.677
X128.048Y-123.669
X128.3Y-76.7
X128.5Y-58.8
X128.5Y-83.5
X128.5Y-87.8
X128.5Y-92.1
X128.5Y-104.4
X128.5Y-108.7
X128.5Y-113.0
X128.5Y-117.3
X128.7Y-56.0
X128.7Y-76.0
X128.957Y-128.659
X128.971Y-127.716
X129.023Y-80.741
X129.025Y-94.7
X129.027Y-95.674
X129.4Y-76.7
X129.9Y-101.5
X129.952Y-80.709
X129.977Y-128.751
X129.982Y-127.723
X130.0Y-123.575
X130.019Y-95.695
X130.1Y-57.5
X130.1Y-61.8
X130.1Y-66.1
X130.1Y-70.4
X130.1Y-82.2
X130.1Y-86.5
X130.1Y-90.8
X130.1Y-103.1
X130.1Y-107.4
X130.1Y-111.7
X130.1Y-116.0
X130.15Y-130.9
X130.15Y-135.2
X130.15Y-139.5
X130.2Y-120.1
X130.965Y-128.679
X131.014Y-80.693
X131.016Y-95.691
X131.031Y-127.674
X131.8Y-62.85
X131.8Y-67.15
X131.8Y-71.45
X131.8Y-74.3
X131.8Y-83.25
X131.8Y-87.55
X131.8Y-91.85
X131.8Y-108.45
X131.8Y-112.725
X131.8Y-117.05
X131.825Y-104.15
X131.835Y-58.55
X131.85Y-131.95
X131.85Y-136.25
X131.85Y-140.525
X131.95Y-95.693
X131.968Y-101.707
X131.991Y-123.686
X132.008Y-80.707
X132.011Y-127.686
X132.038Y-128.678
X133.005Y-95.684
X133.021Y-123.727
X133.045Y-80.687
X133.1Y-120.1
X133.5Y-70.4
X133.6Y-57.5
X133.6Y-61.8
X133.6Y-66.1
X133.6Y-82.2
X133.6Y-86.5
X133.6Y-90.8
X133.6Y-103.1
X133.6Y-107.4
X133.6Y-111.7
X133.6Y-116.0
X133.65Y-130.9
X133.65Y-135.2
X133.65Y-139.5
X133.959Y-123.743
X133.964Y-80.751
X133.985Y-95.733
X133.998Y-94.722
X134.0Y-56.2
X134.7Y-74.4
X134.9Y-115.7
X134.957Y-101.709
X134.969Y-123.659
X134.969Y-80.656
X134.978Y-95.695
X134.979Y-94.74
X135.0Y-107.0
X135.1Y-120.1
X135.7Y-115.6
X135.8Y-111.4
X135.997Y-123.664
X135.998Y-94.662
X136.018Y-101.709
X136.023Y-56.694
X136.034Y-80.707
X136.036Y-95.747
X136.042Y-102.74
X136.045Y-81.736
X136.9Y-74.3
X136.95Y-120.075
X136.959Y-123.753
X136.96Y-101.725
X136.971Y-94.718
X136.999Y-81.745
X137.037Y-80.729
X137.042Y-102.728
X137.043Y-56.659
X137.043Y-95.721
X137.8Y-72.4
X137.9Y-93.1
X137.9Y-94.4
X137.9Y-95.5
X137.974Y-123.715
X137.975Y-102.686
X137.976Y-56.739
X137.989Y-73.737
X138.007Y-81.693
X138.028Y-80.703
X138.044Y-141.67
X138.1Y-67.9
X138.2Y-58.7
X138.2Y-60.3
X138.2Y-64.7
X138.2Y-70.5
X138.2Y-115.8
X138.2Y-120.1
X138.3Y-114.2
X138.3Y-117.6
X138.69Y-75.45
X138.69Y-79.2
X138.69Y-97.0
X138.69Y-101.1
X138.69Y-119.0
X138.966Y-141.671
X138.983Y-138.692
X138.993Y-140.724
X139.01Y-135.695
X139.022Y-139.729
X139.035Y-56.711
X139.958Y-135.742
X139.992Y-141.731
X139.994Y-140.689
X139.995Y-139.752
X140.041Y-138.68
X140.69Y-75.45
X140.69Y-97.0
X140.69Y-118.3
X140.962Y-140.681
X140.986Y-139.716
X141.022Y-138.688
X141.038Y-141.7
X141.969Y-137.741
X142.049Y-138.737
X143.23Y-79.2
X143.3Y-102.9
X143.7Y-68.0
X143.7Y-86.0
X143.7Y-108.4
X143.7Y-111.4
X143.7Y-114.0
X143.9Y-101.0
X143.966Y-81.711
X143.972Y-129.735
X143.984Y-80.72
X144.0Y-143.1
X144.003Y-64.674
X144.004Y-89.749
X144.005Y-59.749
X144.4Y-77.6
X144.4Y-103.6
X144.7Y-111.4
X144.7Y-123.8
X144.9Y-86.0
X144.963Y-129.658
X145.0Y-98.7
X145.0Y-120.8
X145.0Y-59.698
X145.024Y-64.724
X145.041Y-81.696
X145.2Y-102.8
X145.2Y-103.6
X145.953Y-129.702
X145.958Y-64.701
X146.0Y-108.3
X146.035Y-77.716
X146.044Y-143.671
X146.1Y-86.0
X146.2Y-99.1
X146.3Y-120.9
X146.4Y-95.1
X146.4Y-102.91
X146.6Y-73.2
X146.6Y-116.7
X146.65Y-138.85
X146.9Y-59.5
X146.985Y-143.695
X146.987Y-77.751
X147.31Y-81.21
X147.6Y-92.9
X147.6Y-137.55
X147.7Y-114.7
X147.8Y-71.1
X147.8Y-93.7
X147.8Y-102.7
X147.8Y-115.5
X147.9Y-72.0
X147.9Y-121.6
X147.967Y-77.673
X147.979Y-143.655
X148.4Y-103.8
X148.4Y-115.9
X148.9Y-98.5
X148.953Y-109.732
X148.956Y-76.726
X148.958Y-86.74
X148.973Y-120.665
X148.976Y-66.669
X148.977Y-65.73
X148.979Y-89.725
X148.984Y-87.751
X148.992Y-110.719
X148.993Y-131.741
X148.998Y-77.678
X149.002Y-129.688
X149.003Y-143.745
X149.008Y-133.707
X149.012Y-130.725
X149.012Y-142.693
X149.017Y-88.655
X149.02Y-108.68
X149.025Y-67.674
X149.026Y-132.679
X149.027Y-68.718
X149.027Y-64.718
X149.049Y-111.741
X149.1Y-97.6
X149.1Y-103.8
X149.2Y-119.4
X149.4Y-120.1
X151.0Y-89.7
X151.0Y-111.2
X152.5Y-104.0
X152.5Y-105.3
X152.5Y-106.5
X152.5Y-107.8
X152.5Y-125.7
X152.51Y-126.97
X152.51Y-128.23
X152.575Y-60.575
X152.575Y-61.825
X152.575Y-63.1
X152.575Y-64.4
X152.6Y-82.3
X152.6Y-83.5
X152.6Y-84.8
X152.8Y-102.7
X152.953Y-90.664
X152.955Y-89.751
X152.962Y-87.692
X152.963Y-109.698
X152.976Y-86.717
X152.988Y-67.73
X152.99Y-110.699
X152.991Y-88.713
X152.993Y-66.689
X152.995Y-101.676
X152.999Y-131.71
X153.0Y-112.6
X153.001Y-111.683
X153.004Y-58.708
X153.006Y-129.687
X153.017Y-130.719
X153.02Y-132.719
X153.028Y-80.747
X153.033Y-133.669
X153.039Y-123.672
X153.039Y-68.656
X153.9Y-84.2
X153.95Y-138.689
X153.954Y-109.733
X153.954Y-141.673
X153.955Y-115.738
X153.955Y-105.747
X153.958Y-110.696
X153.959Y-114.703
X153.959Y-65.724
X153.96Y-139.738
X153.962Y-66.674
X153.964Y-130.72
X153.965Y-117.703
X153.966Y-111.751
X153.966Y-125.66
X153.967Y-119.7
X153.971Y-123.697
X153.971Y-89.668
X153.973Y-127.675
X153.973Y-68.72
X153.974Y-143.713
X153.974Y-70.683
X153.977Y-129.659
X153.977Y-101.675
X153.978Y-135.689
X153.978Y-71.735
X153.98Y-124.749
X153.983Y-88.664
X153.984Y-91.738
X153.987Y-136.658
X153.989Y-74.678
X153.989Y-61.748
X153.989Y-103.666
X153.992Y-137.67
X153.992Y-131.721
X153.992Y-93.725
X153.992Y-86.682
X153.994Y-112.741
X153.997Y-58.71
X153.998Y-106.684
X153.998Y-80.687
X153.999Y-104.669
X153.999Y-132.738
X154.0Y-82.7
X154.001Y-94.674
X154.002Y-116.703
X154.003Y-98.69
X154.003Y-92.691
X154.004Y-118.715
X154.004Y-120.751
X154.005Y-59.746
X154.005Y-142.659
X154.006Y-140.681
X154.008Y-95.734
X154.011Y-90.654
X154.014Y-62.705
X154.014Y-133.75
X154.015Y-75.663
X154.017Y-96.732
X154.018Y-76.688
X154.02Y-67.672
X154.021Y-64.706
X154.021Y-126.73
X154.022Y-97.686
X154.022Y-72.731
X154.024Y-87.747
X154.026Y-113.747
X154.026Y-69.704
X154.031Y-128.732
X154.031Y-77.661
X154.034Y-63.679
X154.04Y-102.686
X154.044Y-60.718
X154.045Y-107.741
X154.046Y-134.725
X154.046Y-108.753
X154.048Y-73.695
X156.95Y-66.05
X157.173Y-61.544
X157.173Y-62.544
X157.173Y-63.544
X157.173Y-64.544
X157.173Y-67.544
X157.173Y-68.544
X157.173Y-69.544
X157.173Y-70.544
X157.173Y-71.544
X157.173Y-72.544
X157.173Y-73.544
X157.173Y-74.544
X157.173Y-140.544
X157.173Y-141.544
X157.173Y-142.544
X157.173Y-143.544
X157.4Y-94.9
X157.8Y-76.0
X157.8Y-77.8
X157.8Y-94.05
X158.173Y-56.544
X158.7Y-109.05
X158.7Y-130.8
X158.7Y-142.8
X158.8Y-58.0
X158.8Y-87.4
X158.8Y-91.4
X159.173Y-56.544
X160.173Y-56.544
X160.25Y-111.3
X160.3Y-67.8
X160.3Y-89.6
X161.173Y-56.544
X161.173Y-89.544
X161.4Y-68.0
X161.6Y-140.3
X161.65Y-107.805
X161.8Y-97.005
X161.8Y-128.25
X161.8Y-139.05
X161.828Y-117.803
X161.85Y-72.65
X161.85Y-73.9
X161.85Y-95.723
X161.85Y-105.25
X161.85Y-137.8
X161.9Y-118.6
X162.05Y-64.0
X162.05Y-112.65
X162.1Y-83.6
X162.173Y-56.544
X162.173Y-129.544
X162.173Y-133.544
X162.173Y-134.544
X162.173Y-135.544
X162.173Y-136.544
X162.609Y-126.541
X163.05Y-98.05
X163.15Y-105.15
X163.173Y-56.544
X163.173Y-58.544
X163.173Y-60.544
X163.173Y-127.544
X163.173Y-129.544
X163.173Y-131.544
X163.173Y-133.544
X163.173Y-134.544
X163.173Y-135.544
X163.173Y-136.544
X163.173Y-137.544
X163.173Y-138.544
X163.173Y-139.544
X163.259Y-117.35
X163.401Y-82.35
X163.5Y-107.8
X163.65Y-101.7
X163.75Y-90.8
X163.8Y-81.05
X163.8Y-84.3
X163.8Y-103.4
X163.9Y-85.1
X164.05Y-122.95
X164.1Y-107.05
X164.173Y-56.544
X164.173Y-57.544
X164.173Y-58.544
X164.173Y-59.544
X164.173Y-60.544
X164.173Y-61.544
X164.173Y-79.544
X164.173Y-89.544
X164.173Y-117.544
X164.173Y-118.544
X164.173Y-124.544
X164.173Y-125.544
X164.173Y-129.544
X164.173Y-130.544
X164.173Y-131.544
X164.173Y-132.544
X164.173Y-133.544
X164.173Y-134.544
X164.173Y-135.544
X164.173Y-136.544
X164.173Y-137.544
X164.173Y-138.544
X164.173Y-139.544
X164.4Y-100.9
X164.65Y-112.65
X164.965Y-88.035
X164.965Y-93.054
X165.1Y-102.467
X165.173Y-59.544
X165.173Y-123.544
X165.173Y-124.544
X165.173Y-125.544
X165.173Y-126.544
X165.173Y-129.544
X165.173Y-130.544
X165.173Y-131.544
X165.173Y-140.544
X165.4Y-109.473
X165.75Y-99.15
X165.85Y-106.55
X165.95Y-94.9
X165.95Y-103.95
X165.978Y-86.122
X166.0Y-88.15
X166.0Y-104.8
X166.05Y-93.7
X166.075Y-68.325
X166.075Y-69.15
X166.173Y-59.544
X166.173Y-70.544
X166.173Y-71.544
X166.173Y-72.544
X166.173Y-73.544
X166.173Y-124.544
X166.173Y-125.544
X166.173Y-126.544
X166.173Y-127.544
X166.173Y-130.544
X166.173Y-131.544
X166.173Y-140.544
X166.2Y-92.3
X166.275Y-108.275
X166.3Y-123.0
X166.35Y-96.5
X166.4Y-99.65
X166.401Y-114.312
X166.412Y-113.512
X166.413Y-110.461
X166.431Y-97.575
X166.5Y-102.0
X167.173Y-59.544
X167.173Y-140.544
X168.173Y-59.544
X168.173Y-140.544
T2
X75.656Y-124.156
X75.7Y-125.456
X108.0Y-57.35
X119.8Y-56.5
X149.25Y-59.3
X150.9Y-133.0
X151.0Y-67.875
X157.0Y-56.15
X158.8Y-65.7
X160.25Y-100.5
X160.25Y-122.15
X160.3Y-78.8
X165.55Y-132.99
X165.55Y-134.99
X165.55Y-137.0
X165.55Y-138.99
X165.7Y-52.2
X165.9Y-56.14
X165.9Y-58.14
X165.9Y-147.8
X165.95Y-61.0
X165.95Y-63.0
X165.95Y-65.0
X165.95Y-67.0
X166.1Y-141.84
X166.1Y-143.84
T3
X139.69Y-66.317
X139.69Y-88.017
X139.69Y-109.8
X139.69Y-131.417
X142.23Y-66.317
X142.23Y-88.017
X142.23Y-109.8
X142.23Y-131.417
X144.77Y-66.317
X144.77Y-88.017
X144.77Y-109.8
X144.77Y-131.417
X147.31Y-66.317
X147.31Y-88.017
X147.31Y-109.8
X147.31Y-131.417
T4
X73.207Y-61.65
X73.207Y-65.15
X73.207Y-68.65
X73.207Y-72.15
X73.207Y-75.65
X73.207Y-84.442
X73.207Y-87.942
X73.207Y-91.442
X73.207Y-94.942
X73.207Y-104.378
X73.207Y-107.878
X73.207Y-111.378
X73.207Y-114.878
X73.207Y-118.378
X73.207Y-126.655
X73.207Y-130.155
X73.207Y-133.655
X73.207Y-137.155
M30
