%TF.GenerationSoftware,KiCad,Pcbnew,9.0.4*%
%TF.CreationDate,2026-05-03T23:25:25+02:00*%
%TF.ProjectId,TSC_board,5453435f-626f-4617-9264-2e6b69636164,0.1*%
%TF.SameCoordinates,Original*%
%TF.FileFunction,Legend,Bot*%
%TF.FilePolarity,Positive*%
%FSLAX46Y46*%
G04 Gerber Fmt 4.6, Leading zero omitted, Abs format (unit mm)*
G04 Created by KiCad (PCBNEW 9.0.4) date 2026-05-03 23:25:25*
%MOMM*%
%LPD*%
G01*
G04 APERTURE LIST*
%ADD10C,0.150000*%
%ADD11C,0.120000*%
G04 APERTURE END LIST*
D10*
X129419047Y-131254819D02*
X129752380Y-130778628D01*
X129990475Y-131254819D02*
X129990475Y-130254819D01*
X129990475Y-130254819D02*
X129609523Y-130254819D01*
X129609523Y-130254819D02*
X129514285Y-130302438D01*
X129514285Y-130302438D02*
X129466666Y-130350057D01*
X129466666Y-130350057D02*
X129419047Y-130445295D01*
X129419047Y-130445295D02*
X129419047Y-130588152D01*
X129419047Y-130588152D02*
X129466666Y-130683390D01*
X129466666Y-130683390D02*
X129514285Y-130731009D01*
X129514285Y-130731009D02*
X129609523Y-130778628D01*
X129609523Y-130778628D02*
X129990475Y-130778628D01*
X128466666Y-131254819D02*
X129038094Y-131254819D01*
X128752380Y-131254819D02*
X128752380Y-130254819D01*
X128752380Y-130254819D02*
X128847618Y-130397676D01*
X128847618Y-130397676D02*
X128942856Y-130492914D01*
X128942856Y-130492914D02*
X129038094Y-130540533D01*
X127514285Y-131254819D02*
X128085713Y-131254819D01*
X127799999Y-131254819D02*
X127799999Y-130254819D01*
X127799999Y-130254819D02*
X127895237Y-130397676D01*
X127895237Y-130397676D02*
X127990475Y-130492914D01*
X127990475Y-130492914D02*
X128085713Y-130540533D01*
X126609523Y-130254819D02*
X127085713Y-130254819D01*
X127085713Y-130254819D02*
X127133332Y-130731009D01*
X127133332Y-130731009D02*
X127085713Y-130683390D01*
X127085713Y-130683390D02*
X126990475Y-130635771D01*
X126990475Y-130635771D02*
X126752380Y-130635771D01*
X126752380Y-130635771D02*
X126657142Y-130683390D01*
X126657142Y-130683390D02*
X126609523Y-130731009D01*
X126609523Y-130731009D02*
X126561904Y-130826247D01*
X126561904Y-130826247D02*
X126561904Y-131064342D01*
X126561904Y-131064342D02*
X126609523Y-131159580D01*
X126609523Y-131159580D02*
X126657142Y-131207200D01*
X126657142Y-131207200D02*
X126752380Y-131254819D01*
X126752380Y-131254819D02*
X126990475Y-131254819D01*
X126990475Y-131254819D02*
X127085713Y-131207200D01*
X127085713Y-131207200D02*
X127133332Y-131159580D01*
X94202380Y-118329819D02*
X94202380Y-117329819D01*
X93154762Y-118234580D02*
X93202381Y-118282200D01*
X93202381Y-118282200D02*
X93345238Y-118329819D01*
X93345238Y-118329819D02*
X93440476Y-118329819D01*
X93440476Y-118329819D02*
X93583333Y-118282200D01*
X93583333Y-118282200D02*
X93678571Y-118186961D01*
X93678571Y-118186961D02*
X93726190Y-118091723D01*
X93726190Y-118091723D02*
X93773809Y-117901247D01*
X93773809Y-117901247D02*
X93773809Y-117758390D01*
X93773809Y-117758390D02*
X93726190Y-117567914D01*
X93726190Y-117567914D02*
X93678571Y-117472676D01*
X93678571Y-117472676D02*
X93583333Y-117377438D01*
X93583333Y-117377438D02*
X93440476Y-117329819D01*
X93440476Y-117329819D02*
X93345238Y-117329819D01*
X93345238Y-117329819D02*
X93202381Y-117377438D01*
X93202381Y-117377438D02*
X93154762Y-117425057D01*
X92202381Y-118329819D02*
X92773809Y-118329819D01*
X92488095Y-118329819D02*
X92488095Y-117329819D01*
X92488095Y-117329819D02*
X92583333Y-117472676D01*
X92583333Y-117472676D02*
X92678571Y-117567914D01*
X92678571Y-117567914D02*
X92773809Y-117615533D01*
X91345238Y-117329819D02*
X91535714Y-117329819D01*
X91535714Y-117329819D02*
X91630952Y-117377438D01*
X91630952Y-117377438D02*
X91678571Y-117425057D01*
X91678571Y-117425057D02*
X91773809Y-117567914D01*
X91773809Y-117567914D02*
X91821428Y-117758390D01*
X91821428Y-117758390D02*
X91821428Y-118139342D01*
X91821428Y-118139342D02*
X91773809Y-118234580D01*
X91773809Y-118234580D02*
X91726190Y-118282200D01*
X91726190Y-118282200D02*
X91630952Y-118329819D01*
X91630952Y-118329819D02*
X91440476Y-118329819D01*
X91440476Y-118329819D02*
X91345238Y-118282200D01*
X91345238Y-118282200D02*
X91297619Y-118234580D01*
X91297619Y-118234580D02*
X91250000Y-118139342D01*
X91250000Y-118139342D02*
X91250000Y-117901247D01*
X91250000Y-117901247D02*
X91297619Y-117806009D01*
X91297619Y-117806009D02*
X91345238Y-117758390D01*
X91345238Y-117758390D02*
X91440476Y-117710771D01*
X91440476Y-117710771D02*
X91630952Y-117710771D01*
X91630952Y-117710771D02*
X91726190Y-117758390D01*
X91726190Y-117758390D02*
X91773809Y-117806009D01*
X91773809Y-117806009D02*
X91821428Y-117901247D01*
X86839047Y-135424819D02*
X87172380Y-134948628D01*
X87410475Y-135424819D02*
X87410475Y-134424819D01*
X87410475Y-134424819D02*
X87029523Y-134424819D01*
X87029523Y-134424819D02*
X86934285Y-134472438D01*
X86934285Y-134472438D02*
X86886666Y-134520057D01*
X86886666Y-134520057D02*
X86839047Y-134615295D01*
X86839047Y-134615295D02*
X86839047Y-134758152D01*
X86839047Y-134758152D02*
X86886666Y-134853390D01*
X86886666Y-134853390D02*
X86934285Y-134901009D01*
X86934285Y-134901009D02*
X87029523Y-134948628D01*
X87029523Y-134948628D02*
X87410475Y-134948628D01*
X86458094Y-134520057D02*
X86410475Y-134472438D01*
X86410475Y-134472438D02*
X86315237Y-134424819D01*
X86315237Y-134424819D02*
X86077142Y-134424819D01*
X86077142Y-134424819D02*
X85981904Y-134472438D01*
X85981904Y-134472438D02*
X85934285Y-134520057D01*
X85934285Y-134520057D02*
X85886666Y-134615295D01*
X85886666Y-134615295D02*
X85886666Y-134710533D01*
X85886666Y-134710533D02*
X85934285Y-134853390D01*
X85934285Y-134853390D02*
X86505713Y-135424819D01*
X86505713Y-135424819D02*
X85886666Y-135424819D01*
X85267618Y-134424819D02*
X85172380Y-134424819D01*
X85172380Y-134424819D02*
X85077142Y-134472438D01*
X85077142Y-134472438D02*
X85029523Y-134520057D01*
X85029523Y-134520057D02*
X84981904Y-134615295D01*
X84981904Y-134615295D02*
X84934285Y-134805771D01*
X84934285Y-134805771D02*
X84934285Y-135043866D01*
X84934285Y-135043866D02*
X84981904Y-135234342D01*
X84981904Y-135234342D02*
X85029523Y-135329580D01*
X85029523Y-135329580D02*
X85077142Y-135377200D01*
X85077142Y-135377200D02*
X85172380Y-135424819D01*
X85172380Y-135424819D02*
X85267618Y-135424819D01*
X85267618Y-135424819D02*
X85362856Y-135377200D01*
X85362856Y-135377200D02*
X85410475Y-135329580D01*
X85410475Y-135329580D02*
X85458094Y-135234342D01*
X85458094Y-135234342D02*
X85505713Y-135043866D01*
X85505713Y-135043866D02*
X85505713Y-134805771D01*
X85505713Y-134805771D02*
X85458094Y-134615295D01*
X85458094Y-134615295D02*
X85410475Y-134520057D01*
X85410475Y-134520057D02*
X85362856Y-134472438D01*
X85362856Y-134472438D02*
X85267618Y-134424819D01*
X84600951Y-134424819D02*
X83981904Y-134424819D01*
X83981904Y-134424819D02*
X84315237Y-134805771D01*
X84315237Y-134805771D02*
X84172380Y-134805771D01*
X84172380Y-134805771D02*
X84077142Y-134853390D01*
X84077142Y-134853390D02*
X84029523Y-134901009D01*
X84029523Y-134901009D02*
X83981904Y-134996247D01*
X83981904Y-134996247D02*
X83981904Y-135234342D01*
X83981904Y-135234342D02*
X84029523Y-135329580D01*
X84029523Y-135329580D02*
X84077142Y-135377200D01*
X84077142Y-135377200D02*
X84172380Y-135424819D01*
X84172380Y-135424819D02*
X84458094Y-135424819D01*
X84458094Y-135424819D02*
X84553332Y-135377200D01*
X84553332Y-135377200D02*
X84600951Y-135329580D01*
X164733333Y-66361009D02*
X165066666Y-66361009D01*
X165066666Y-66884819D02*
X165066666Y-65884819D01*
X165066666Y-65884819D02*
X164590476Y-65884819D01*
X163876190Y-66361009D02*
X163733333Y-66408628D01*
X163733333Y-66408628D02*
X163685714Y-66456247D01*
X163685714Y-66456247D02*
X163638095Y-66551485D01*
X163638095Y-66551485D02*
X163638095Y-66694342D01*
X163638095Y-66694342D02*
X163685714Y-66789580D01*
X163685714Y-66789580D02*
X163733333Y-66837200D01*
X163733333Y-66837200D02*
X163828571Y-66884819D01*
X163828571Y-66884819D02*
X164209523Y-66884819D01*
X164209523Y-66884819D02*
X164209523Y-65884819D01*
X164209523Y-65884819D02*
X163876190Y-65884819D01*
X163876190Y-65884819D02*
X163780952Y-65932438D01*
X163780952Y-65932438D02*
X163733333Y-65980057D01*
X163733333Y-65980057D02*
X163685714Y-66075295D01*
X163685714Y-66075295D02*
X163685714Y-66170533D01*
X163685714Y-66170533D02*
X163733333Y-66265771D01*
X163733333Y-66265771D02*
X163780952Y-66313390D01*
X163780952Y-66313390D02*
X163876190Y-66361009D01*
X163876190Y-66361009D02*
X164209523Y-66361009D01*
X163257142Y-65980057D02*
X163209523Y-65932438D01*
X163209523Y-65932438D02*
X163114285Y-65884819D01*
X163114285Y-65884819D02*
X162876190Y-65884819D01*
X162876190Y-65884819D02*
X162780952Y-65932438D01*
X162780952Y-65932438D02*
X162733333Y-65980057D01*
X162733333Y-65980057D02*
X162685714Y-66075295D01*
X162685714Y-66075295D02*
X162685714Y-66170533D01*
X162685714Y-66170533D02*
X162733333Y-66313390D01*
X162733333Y-66313390D02*
X163304761Y-66884819D01*
X163304761Y-66884819D02*
X162685714Y-66884819D01*
X143766666Y-62959580D02*
X143814285Y-63007200D01*
X143814285Y-63007200D02*
X143957142Y-63054819D01*
X143957142Y-63054819D02*
X144052380Y-63054819D01*
X144052380Y-63054819D02*
X144195237Y-63007200D01*
X144195237Y-63007200D02*
X144290475Y-62911961D01*
X144290475Y-62911961D02*
X144338094Y-62816723D01*
X144338094Y-62816723D02*
X144385713Y-62626247D01*
X144385713Y-62626247D02*
X144385713Y-62483390D01*
X144385713Y-62483390D02*
X144338094Y-62292914D01*
X144338094Y-62292914D02*
X144290475Y-62197676D01*
X144290475Y-62197676D02*
X144195237Y-62102438D01*
X144195237Y-62102438D02*
X144052380Y-62054819D01*
X144052380Y-62054819D02*
X143957142Y-62054819D01*
X143957142Y-62054819D02*
X143814285Y-62102438D01*
X143814285Y-62102438D02*
X143766666Y-62150057D01*
X142909523Y-62388152D02*
X142909523Y-63054819D01*
X143147618Y-62007200D02*
X143385713Y-62721485D01*
X143385713Y-62721485D02*
X142766666Y-62721485D01*
X158431009Y-109790476D02*
X158431009Y-109457143D01*
X158954819Y-109457143D02*
X157954819Y-109457143D01*
X157954819Y-109457143D02*
X157954819Y-109933333D01*
X158431009Y-110647619D02*
X158478628Y-110790476D01*
X158478628Y-110790476D02*
X158526247Y-110838095D01*
X158526247Y-110838095D02*
X158621485Y-110885714D01*
X158621485Y-110885714D02*
X158764342Y-110885714D01*
X158764342Y-110885714D02*
X158859580Y-110838095D01*
X158859580Y-110838095D02*
X158907200Y-110790476D01*
X158907200Y-110790476D02*
X158954819Y-110695238D01*
X158954819Y-110695238D02*
X158954819Y-110314286D01*
X158954819Y-110314286D02*
X157954819Y-110314286D01*
X157954819Y-110314286D02*
X157954819Y-110647619D01*
X157954819Y-110647619D02*
X158002438Y-110742857D01*
X158002438Y-110742857D02*
X158050057Y-110790476D01*
X158050057Y-110790476D02*
X158145295Y-110838095D01*
X158145295Y-110838095D02*
X158240533Y-110838095D01*
X158240533Y-110838095D02*
X158335771Y-110790476D01*
X158335771Y-110790476D02*
X158383390Y-110742857D01*
X158383390Y-110742857D02*
X158431009Y-110647619D01*
X158431009Y-110647619D02*
X158431009Y-110314286D01*
X157954819Y-111219048D02*
X157954819Y-111838095D01*
X157954819Y-111838095D02*
X158335771Y-111504762D01*
X158335771Y-111504762D02*
X158335771Y-111647619D01*
X158335771Y-111647619D02*
X158383390Y-111742857D01*
X158383390Y-111742857D02*
X158431009Y-111790476D01*
X158431009Y-111790476D02*
X158526247Y-111838095D01*
X158526247Y-111838095D02*
X158764342Y-111838095D01*
X158764342Y-111838095D02*
X158859580Y-111790476D01*
X158859580Y-111790476D02*
X158907200Y-111742857D01*
X158907200Y-111742857D02*
X158954819Y-111647619D01*
X158954819Y-111647619D02*
X158954819Y-111361905D01*
X158954819Y-111361905D02*
X158907200Y-111266667D01*
X158907200Y-111266667D02*
X158859580Y-111219048D01*
X158954819Y-112790476D02*
X158954819Y-112219048D01*
X158954819Y-112504762D02*
X157954819Y-112504762D01*
X157954819Y-112504762D02*
X158097676Y-112409524D01*
X158097676Y-112409524D02*
X158192914Y-112314286D01*
X158192914Y-112314286D02*
X158240533Y-112219048D01*
X144842857Y-106459580D02*
X144890476Y-106507200D01*
X144890476Y-106507200D02*
X145033333Y-106554819D01*
X145033333Y-106554819D02*
X145128571Y-106554819D01*
X145128571Y-106554819D02*
X145271428Y-106507200D01*
X145271428Y-106507200D02*
X145366666Y-106411961D01*
X145366666Y-106411961D02*
X145414285Y-106316723D01*
X145414285Y-106316723D02*
X145461904Y-106126247D01*
X145461904Y-106126247D02*
X145461904Y-105983390D01*
X145461904Y-105983390D02*
X145414285Y-105792914D01*
X145414285Y-105792914D02*
X145366666Y-105697676D01*
X145366666Y-105697676D02*
X145271428Y-105602438D01*
X145271428Y-105602438D02*
X145128571Y-105554819D01*
X145128571Y-105554819D02*
X145033333Y-105554819D01*
X145033333Y-105554819D02*
X144890476Y-105602438D01*
X144890476Y-105602438D02*
X144842857Y-105650057D01*
X144509523Y-105554819D02*
X143890476Y-105554819D01*
X143890476Y-105554819D02*
X144223809Y-105935771D01*
X144223809Y-105935771D02*
X144080952Y-105935771D01*
X144080952Y-105935771D02*
X143985714Y-105983390D01*
X143985714Y-105983390D02*
X143938095Y-106031009D01*
X143938095Y-106031009D02*
X143890476Y-106126247D01*
X143890476Y-106126247D02*
X143890476Y-106364342D01*
X143890476Y-106364342D02*
X143938095Y-106459580D01*
X143938095Y-106459580D02*
X143985714Y-106507200D01*
X143985714Y-106507200D02*
X144080952Y-106554819D01*
X144080952Y-106554819D02*
X144366666Y-106554819D01*
X144366666Y-106554819D02*
X144461904Y-106507200D01*
X144461904Y-106507200D02*
X144509523Y-106459580D01*
X143033333Y-105554819D02*
X143223809Y-105554819D01*
X143223809Y-105554819D02*
X143319047Y-105602438D01*
X143319047Y-105602438D02*
X143366666Y-105650057D01*
X143366666Y-105650057D02*
X143461904Y-105792914D01*
X143461904Y-105792914D02*
X143509523Y-105983390D01*
X143509523Y-105983390D02*
X143509523Y-106364342D01*
X143509523Y-106364342D02*
X143461904Y-106459580D01*
X143461904Y-106459580D02*
X143414285Y-106507200D01*
X143414285Y-106507200D02*
X143319047Y-106554819D01*
X143319047Y-106554819D02*
X143128571Y-106554819D01*
X143128571Y-106554819D02*
X143033333Y-106507200D01*
X143033333Y-106507200D02*
X142985714Y-106459580D01*
X142985714Y-106459580D02*
X142938095Y-106364342D01*
X142938095Y-106364342D02*
X142938095Y-106126247D01*
X142938095Y-106126247D02*
X142985714Y-106031009D01*
X142985714Y-106031009D02*
X143033333Y-105983390D01*
X143033333Y-105983390D02*
X143128571Y-105935771D01*
X143128571Y-105935771D02*
X143319047Y-105935771D01*
X143319047Y-105935771D02*
X143414285Y-105983390D01*
X143414285Y-105983390D02*
X143461904Y-106031009D01*
X143461904Y-106031009D02*
X143509523Y-106126247D01*
X129469047Y-135674819D02*
X129802380Y-135198628D01*
X130040475Y-135674819D02*
X130040475Y-134674819D01*
X130040475Y-134674819D02*
X129659523Y-134674819D01*
X129659523Y-134674819D02*
X129564285Y-134722438D01*
X129564285Y-134722438D02*
X129516666Y-134770057D01*
X129516666Y-134770057D02*
X129469047Y-134865295D01*
X129469047Y-134865295D02*
X129469047Y-135008152D01*
X129469047Y-135008152D02*
X129516666Y-135103390D01*
X129516666Y-135103390D02*
X129564285Y-135151009D01*
X129564285Y-135151009D02*
X129659523Y-135198628D01*
X129659523Y-135198628D02*
X130040475Y-135198628D01*
X128516666Y-135674819D02*
X129088094Y-135674819D01*
X128802380Y-135674819D02*
X128802380Y-134674819D01*
X128802380Y-134674819D02*
X128897618Y-134817676D01*
X128897618Y-134817676D02*
X128992856Y-134912914D01*
X128992856Y-134912914D02*
X129088094Y-134960533D01*
X128135713Y-134770057D02*
X128088094Y-134722438D01*
X128088094Y-134722438D02*
X127992856Y-134674819D01*
X127992856Y-134674819D02*
X127754761Y-134674819D01*
X127754761Y-134674819D02*
X127659523Y-134722438D01*
X127659523Y-134722438D02*
X127611904Y-134770057D01*
X127611904Y-134770057D02*
X127564285Y-134865295D01*
X127564285Y-134865295D02*
X127564285Y-134960533D01*
X127564285Y-134960533D02*
X127611904Y-135103390D01*
X127611904Y-135103390D02*
X128183332Y-135674819D01*
X128183332Y-135674819D02*
X127564285Y-135674819D01*
X126707142Y-135008152D02*
X126707142Y-135674819D01*
X126945237Y-134627200D02*
X127183332Y-135341485D01*
X127183332Y-135341485D02*
X126564285Y-135341485D01*
X87434580Y-115307142D02*
X87482200Y-115259523D01*
X87482200Y-115259523D02*
X87529819Y-115116666D01*
X87529819Y-115116666D02*
X87529819Y-115021428D01*
X87529819Y-115021428D02*
X87482200Y-114878571D01*
X87482200Y-114878571D02*
X87386961Y-114783333D01*
X87386961Y-114783333D02*
X87291723Y-114735714D01*
X87291723Y-114735714D02*
X87101247Y-114688095D01*
X87101247Y-114688095D02*
X86958390Y-114688095D01*
X86958390Y-114688095D02*
X86767914Y-114735714D01*
X86767914Y-114735714D02*
X86672676Y-114783333D01*
X86672676Y-114783333D02*
X86577438Y-114878571D01*
X86577438Y-114878571D02*
X86529819Y-115021428D01*
X86529819Y-115021428D02*
X86529819Y-115116666D01*
X86529819Y-115116666D02*
X86577438Y-115259523D01*
X86577438Y-115259523D02*
X86625057Y-115307142D01*
X86529819Y-116164285D02*
X86529819Y-115973809D01*
X86529819Y-115973809D02*
X86577438Y-115878571D01*
X86577438Y-115878571D02*
X86625057Y-115830952D01*
X86625057Y-115830952D02*
X86767914Y-115735714D01*
X86767914Y-115735714D02*
X86958390Y-115688095D01*
X86958390Y-115688095D02*
X87339342Y-115688095D01*
X87339342Y-115688095D02*
X87434580Y-115735714D01*
X87434580Y-115735714D02*
X87482200Y-115783333D01*
X87482200Y-115783333D02*
X87529819Y-115878571D01*
X87529819Y-115878571D02*
X87529819Y-116069047D01*
X87529819Y-116069047D02*
X87482200Y-116164285D01*
X87482200Y-116164285D02*
X87434580Y-116211904D01*
X87434580Y-116211904D02*
X87339342Y-116259523D01*
X87339342Y-116259523D02*
X87101247Y-116259523D01*
X87101247Y-116259523D02*
X87006009Y-116211904D01*
X87006009Y-116211904D02*
X86958390Y-116164285D01*
X86958390Y-116164285D02*
X86910771Y-116069047D01*
X86910771Y-116069047D02*
X86910771Y-115878571D01*
X86910771Y-115878571D02*
X86958390Y-115783333D01*
X86958390Y-115783333D02*
X87006009Y-115735714D01*
X87006009Y-115735714D02*
X87101247Y-115688095D01*
X86529819Y-116592857D02*
X86529819Y-117259523D01*
X86529819Y-117259523D02*
X87529819Y-116830952D01*
X132442857Y-72284819D02*
X132776190Y-71808628D01*
X133014285Y-72284819D02*
X133014285Y-71284819D01*
X133014285Y-71284819D02*
X132633333Y-71284819D01*
X132633333Y-71284819D02*
X132538095Y-71332438D01*
X132538095Y-71332438D02*
X132490476Y-71380057D01*
X132490476Y-71380057D02*
X132442857Y-71475295D01*
X132442857Y-71475295D02*
X132442857Y-71618152D01*
X132442857Y-71618152D02*
X132490476Y-71713390D01*
X132490476Y-71713390D02*
X132538095Y-71761009D01*
X132538095Y-71761009D02*
X132633333Y-71808628D01*
X132633333Y-71808628D02*
X133014285Y-71808628D01*
X131538095Y-71284819D02*
X132014285Y-71284819D01*
X132014285Y-71284819D02*
X132061904Y-71761009D01*
X132061904Y-71761009D02*
X132014285Y-71713390D01*
X132014285Y-71713390D02*
X131919047Y-71665771D01*
X131919047Y-71665771D02*
X131680952Y-71665771D01*
X131680952Y-71665771D02*
X131585714Y-71713390D01*
X131585714Y-71713390D02*
X131538095Y-71761009D01*
X131538095Y-71761009D02*
X131490476Y-71856247D01*
X131490476Y-71856247D02*
X131490476Y-72094342D01*
X131490476Y-72094342D02*
X131538095Y-72189580D01*
X131538095Y-72189580D02*
X131585714Y-72237200D01*
X131585714Y-72237200D02*
X131680952Y-72284819D01*
X131680952Y-72284819D02*
X131919047Y-72284819D01*
X131919047Y-72284819D02*
X132014285Y-72237200D01*
X132014285Y-72237200D02*
X132061904Y-72189580D01*
X130871428Y-71284819D02*
X130776190Y-71284819D01*
X130776190Y-71284819D02*
X130680952Y-71332438D01*
X130680952Y-71332438D02*
X130633333Y-71380057D01*
X130633333Y-71380057D02*
X130585714Y-71475295D01*
X130585714Y-71475295D02*
X130538095Y-71665771D01*
X130538095Y-71665771D02*
X130538095Y-71903866D01*
X130538095Y-71903866D02*
X130585714Y-72094342D01*
X130585714Y-72094342D02*
X130633333Y-72189580D01*
X130633333Y-72189580D02*
X130680952Y-72237200D01*
X130680952Y-72237200D02*
X130776190Y-72284819D01*
X130776190Y-72284819D02*
X130871428Y-72284819D01*
X130871428Y-72284819D02*
X130966666Y-72237200D01*
X130966666Y-72237200D02*
X131014285Y-72189580D01*
X131014285Y-72189580D02*
X131061904Y-72094342D01*
X131061904Y-72094342D02*
X131109523Y-71903866D01*
X131109523Y-71903866D02*
X131109523Y-71665771D01*
X131109523Y-71665771D02*
X131061904Y-71475295D01*
X131061904Y-71475295D02*
X131014285Y-71380057D01*
X131014285Y-71380057D02*
X130966666Y-71332438D01*
X130966666Y-71332438D02*
X130871428Y-71284819D01*
X94034580Y-140957142D02*
X94082200Y-140909523D01*
X94082200Y-140909523D02*
X94129819Y-140766666D01*
X94129819Y-140766666D02*
X94129819Y-140671428D01*
X94129819Y-140671428D02*
X94082200Y-140528571D01*
X94082200Y-140528571D02*
X93986961Y-140433333D01*
X93986961Y-140433333D02*
X93891723Y-140385714D01*
X93891723Y-140385714D02*
X93701247Y-140338095D01*
X93701247Y-140338095D02*
X93558390Y-140338095D01*
X93558390Y-140338095D02*
X93367914Y-140385714D01*
X93367914Y-140385714D02*
X93272676Y-140433333D01*
X93272676Y-140433333D02*
X93177438Y-140528571D01*
X93177438Y-140528571D02*
X93129819Y-140671428D01*
X93129819Y-140671428D02*
X93129819Y-140766666D01*
X93129819Y-140766666D02*
X93177438Y-140909523D01*
X93177438Y-140909523D02*
X93225057Y-140957142D01*
X93129819Y-141814285D02*
X93129819Y-141623809D01*
X93129819Y-141623809D02*
X93177438Y-141528571D01*
X93177438Y-141528571D02*
X93225057Y-141480952D01*
X93225057Y-141480952D02*
X93367914Y-141385714D01*
X93367914Y-141385714D02*
X93558390Y-141338095D01*
X93558390Y-141338095D02*
X93939342Y-141338095D01*
X93939342Y-141338095D02*
X94034580Y-141385714D01*
X94034580Y-141385714D02*
X94082200Y-141433333D01*
X94082200Y-141433333D02*
X94129819Y-141528571D01*
X94129819Y-141528571D02*
X94129819Y-141719047D01*
X94129819Y-141719047D02*
X94082200Y-141814285D01*
X94082200Y-141814285D02*
X94034580Y-141861904D01*
X94034580Y-141861904D02*
X93939342Y-141909523D01*
X93939342Y-141909523D02*
X93701247Y-141909523D01*
X93701247Y-141909523D02*
X93606009Y-141861904D01*
X93606009Y-141861904D02*
X93558390Y-141814285D01*
X93558390Y-141814285D02*
X93510771Y-141719047D01*
X93510771Y-141719047D02*
X93510771Y-141528571D01*
X93510771Y-141528571D02*
X93558390Y-141433333D01*
X93558390Y-141433333D02*
X93606009Y-141385714D01*
X93606009Y-141385714D02*
X93701247Y-141338095D01*
X93558390Y-142480952D02*
X93510771Y-142385714D01*
X93510771Y-142385714D02*
X93463152Y-142338095D01*
X93463152Y-142338095D02*
X93367914Y-142290476D01*
X93367914Y-142290476D02*
X93320295Y-142290476D01*
X93320295Y-142290476D02*
X93225057Y-142338095D01*
X93225057Y-142338095D02*
X93177438Y-142385714D01*
X93177438Y-142385714D02*
X93129819Y-142480952D01*
X93129819Y-142480952D02*
X93129819Y-142671428D01*
X93129819Y-142671428D02*
X93177438Y-142766666D01*
X93177438Y-142766666D02*
X93225057Y-142814285D01*
X93225057Y-142814285D02*
X93320295Y-142861904D01*
X93320295Y-142861904D02*
X93367914Y-142861904D01*
X93367914Y-142861904D02*
X93463152Y-142814285D01*
X93463152Y-142814285D02*
X93510771Y-142766666D01*
X93510771Y-142766666D02*
X93558390Y-142671428D01*
X93558390Y-142671428D02*
X93558390Y-142480952D01*
X93558390Y-142480952D02*
X93606009Y-142385714D01*
X93606009Y-142385714D02*
X93653628Y-142338095D01*
X93653628Y-142338095D02*
X93748866Y-142290476D01*
X93748866Y-142290476D02*
X93939342Y-142290476D01*
X93939342Y-142290476D02*
X94034580Y-142338095D01*
X94034580Y-142338095D02*
X94082200Y-142385714D01*
X94082200Y-142385714D02*
X94129819Y-142480952D01*
X94129819Y-142480952D02*
X94129819Y-142671428D01*
X94129819Y-142671428D02*
X94082200Y-142766666D01*
X94082200Y-142766666D02*
X94034580Y-142814285D01*
X94034580Y-142814285D02*
X93939342Y-142861904D01*
X93939342Y-142861904D02*
X93748866Y-142861904D01*
X93748866Y-142861904D02*
X93653628Y-142814285D01*
X93653628Y-142814285D02*
X93606009Y-142766666D01*
X93606009Y-142766666D02*
X93558390Y-142671428D01*
X87484580Y-72057142D02*
X87532200Y-72009523D01*
X87532200Y-72009523D02*
X87579819Y-71866666D01*
X87579819Y-71866666D02*
X87579819Y-71771428D01*
X87579819Y-71771428D02*
X87532200Y-71628571D01*
X87532200Y-71628571D02*
X87436961Y-71533333D01*
X87436961Y-71533333D02*
X87341723Y-71485714D01*
X87341723Y-71485714D02*
X87151247Y-71438095D01*
X87151247Y-71438095D02*
X87008390Y-71438095D01*
X87008390Y-71438095D02*
X86817914Y-71485714D01*
X86817914Y-71485714D02*
X86722676Y-71533333D01*
X86722676Y-71533333D02*
X86627438Y-71628571D01*
X86627438Y-71628571D02*
X86579819Y-71771428D01*
X86579819Y-71771428D02*
X86579819Y-71866666D01*
X86579819Y-71866666D02*
X86627438Y-72009523D01*
X86627438Y-72009523D02*
X86675057Y-72057142D01*
X86579819Y-72914285D02*
X86579819Y-72723809D01*
X86579819Y-72723809D02*
X86627438Y-72628571D01*
X86627438Y-72628571D02*
X86675057Y-72580952D01*
X86675057Y-72580952D02*
X86817914Y-72485714D01*
X86817914Y-72485714D02*
X87008390Y-72438095D01*
X87008390Y-72438095D02*
X87389342Y-72438095D01*
X87389342Y-72438095D02*
X87484580Y-72485714D01*
X87484580Y-72485714D02*
X87532200Y-72533333D01*
X87532200Y-72533333D02*
X87579819Y-72628571D01*
X87579819Y-72628571D02*
X87579819Y-72819047D01*
X87579819Y-72819047D02*
X87532200Y-72914285D01*
X87532200Y-72914285D02*
X87484580Y-72961904D01*
X87484580Y-72961904D02*
X87389342Y-73009523D01*
X87389342Y-73009523D02*
X87151247Y-73009523D01*
X87151247Y-73009523D02*
X87056009Y-72961904D01*
X87056009Y-72961904D02*
X87008390Y-72914285D01*
X87008390Y-72914285D02*
X86960771Y-72819047D01*
X86960771Y-72819047D02*
X86960771Y-72628571D01*
X86960771Y-72628571D02*
X87008390Y-72533333D01*
X87008390Y-72533333D02*
X87056009Y-72485714D01*
X87056009Y-72485714D02*
X87151247Y-72438095D01*
X86579819Y-73914285D02*
X86579819Y-73438095D01*
X86579819Y-73438095D02*
X87056009Y-73390476D01*
X87056009Y-73390476D02*
X87008390Y-73438095D01*
X87008390Y-73438095D02*
X86960771Y-73533333D01*
X86960771Y-73533333D02*
X86960771Y-73771428D01*
X86960771Y-73771428D02*
X87008390Y-73866666D01*
X87008390Y-73866666D02*
X87056009Y-73914285D01*
X87056009Y-73914285D02*
X87151247Y-73961904D01*
X87151247Y-73961904D02*
X87389342Y-73961904D01*
X87389342Y-73961904D02*
X87484580Y-73914285D01*
X87484580Y-73914285D02*
X87532200Y-73866666D01*
X87532200Y-73866666D02*
X87579819Y-73771428D01*
X87579819Y-73771428D02*
X87579819Y-73533333D01*
X87579819Y-73533333D02*
X87532200Y-73438095D01*
X87532200Y-73438095D02*
X87484580Y-73390476D01*
X131966666Y-59384819D02*
X132299999Y-58908628D01*
X132538094Y-59384819D02*
X132538094Y-58384819D01*
X132538094Y-58384819D02*
X132157142Y-58384819D01*
X132157142Y-58384819D02*
X132061904Y-58432438D01*
X132061904Y-58432438D02*
X132014285Y-58480057D01*
X132014285Y-58480057D02*
X131966666Y-58575295D01*
X131966666Y-58575295D02*
X131966666Y-58718152D01*
X131966666Y-58718152D02*
X132014285Y-58813390D01*
X132014285Y-58813390D02*
X132061904Y-58861009D01*
X132061904Y-58861009D02*
X132157142Y-58908628D01*
X132157142Y-58908628D02*
X132538094Y-58908628D01*
X131014285Y-59384819D02*
X131585713Y-59384819D01*
X131299999Y-59384819D02*
X131299999Y-58384819D01*
X131299999Y-58384819D02*
X131395237Y-58527676D01*
X131395237Y-58527676D02*
X131490475Y-58622914D01*
X131490475Y-58622914D02*
X131585713Y-58670533D01*
X132919047Y-117884819D02*
X133252380Y-117408628D01*
X133490475Y-117884819D02*
X133490475Y-116884819D01*
X133490475Y-116884819D02*
X133109523Y-116884819D01*
X133109523Y-116884819D02*
X133014285Y-116932438D01*
X133014285Y-116932438D02*
X132966666Y-116980057D01*
X132966666Y-116980057D02*
X132919047Y-117075295D01*
X132919047Y-117075295D02*
X132919047Y-117218152D01*
X132919047Y-117218152D02*
X132966666Y-117313390D01*
X132966666Y-117313390D02*
X133014285Y-117361009D01*
X133014285Y-117361009D02*
X133109523Y-117408628D01*
X133109523Y-117408628D02*
X133490475Y-117408628D01*
X131966666Y-117884819D02*
X132538094Y-117884819D01*
X132252380Y-117884819D02*
X132252380Y-116884819D01*
X132252380Y-116884819D02*
X132347618Y-117027676D01*
X132347618Y-117027676D02*
X132442856Y-117122914D01*
X132442856Y-117122914D02*
X132538094Y-117170533D01*
X131347618Y-116884819D02*
X131252380Y-116884819D01*
X131252380Y-116884819D02*
X131157142Y-116932438D01*
X131157142Y-116932438D02*
X131109523Y-116980057D01*
X131109523Y-116980057D02*
X131061904Y-117075295D01*
X131061904Y-117075295D02*
X131014285Y-117265771D01*
X131014285Y-117265771D02*
X131014285Y-117503866D01*
X131014285Y-117503866D02*
X131061904Y-117694342D01*
X131061904Y-117694342D02*
X131109523Y-117789580D01*
X131109523Y-117789580D02*
X131157142Y-117837200D01*
X131157142Y-117837200D02*
X131252380Y-117884819D01*
X131252380Y-117884819D02*
X131347618Y-117884819D01*
X131347618Y-117884819D02*
X131442856Y-117837200D01*
X131442856Y-117837200D02*
X131490475Y-117789580D01*
X131490475Y-117789580D02*
X131538094Y-117694342D01*
X131538094Y-117694342D02*
X131585713Y-117503866D01*
X131585713Y-117503866D02*
X131585713Y-117265771D01*
X131585713Y-117265771D02*
X131538094Y-117075295D01*
X131538094Y-117075295D02*
X131490475Y-116980057D01*
X131490475Y-116980057D02*
X131442856Y-116932438D01*
X131442856Y-116932438D02*
X131347618Y-116884819D01*
X130680951Y-116884819D02*
X130014285Y-116884819D01*
X130014285Y-116884819D02*
X130442856Y-117884819D01*
X132442857Y-113584819D02*
X132776190Y-113108628D01*
X133014285Y-113584819D02*
X133014285Y-112584819D01*
X133014285Y-112584819D02*
X132633333Y-112584819D01*
X132633333Y-112584819D02*
X132538095Y-112632438D01*
X132538095Y-112632438D02*
X132490476Y-112680057D01*
X132490476Y-112680057D02*
X132442857Y-112775295D01*
X132442857Y-112775295D02*
X132442857Y-112918152D01*
X132442857Y-112918152D02*
X132490476Y-113013390D01*
X132490476Y-113013390D02*
X132538095Y-113061009D01*
X132538095Y-113061009D02*
X132633333Y-113108628D01*
X132633333Y-113108628D02*
X133014285Y-113108628D01*
X131871428Y-113013390D02*
X131966666Y-112965771D01*
X131966666Y-112965771D02*
X132014285Y-112918152D01*
X132014285Y-112918152D02*
X132061904Y-112822914D01*
X132061904Y-112822914D02*
X132061904Y-112775295D01*
X132061904Y-112775295D02*
X132014285Y-112680057D01*
X132014285Y-112680057D02*
X131966666Y-112632438D01*
X131966666Y-112632438D02*
X131871428Y-112584819D01*
X131871428Y-112584819D02*
X131680952Y-112584819D01*
X131680952Y-112584819D02*
X131585714Y-112632438D01*
X131585714Y-112632438D02*
X131538095Y-112680057D01*
X131538095Y-112680057D02*
X131490476Y-112775295D01*
X131490476Y-112775295D02*
X131490476Y-112822914D01*
X131490476Y-112822914D02*
X131538095Y-112918152D01*
X131538095Y-112918152D02*
X131585714Y-112965771D01*
X131585714Y-112965771D02*
X131680952Y-113013390D01*
X131680952Y-113013390D02*
X131871428Y-113013390D01*
X131871428Y-113013390D02*
X131966666Y-113061009D01*
X131966666Y-113061009D02*
X132014285Y-113108628D01*
X132014285Y-113108628D02*
X132061904Y-113203866D01*
X132061904Y-113203866D02*
X132061904Y-113394342D01*
X132061904Y-113394342D02*
X132014285Y-113489580D01*
X132014285Y-113489580D02*
X131966666Y-113537200D01*
X131966666Y-113537200D02*
X131871428Y-113584819D01*
X131871428Y-113584819D02*
X131680952Y-113584819D01*
X131680952Y-113584819D02*
X131585714Y-113537200D01*
X131585714Y-113537200D02*
X131538095Y-113489580D01*
X131538095Y-113489580D02*
X131490476Y-113394342D01*
X131490476Y-113394342D02*
X131490476Y-113203866D01*
X131490476Y-113203866D02*
X131538095Y-113108628D01*
X131538095Y-113108628D02*
X131585714Y-113061009D01*
X131585714Y-113061009D02*
X131680952Y-113013390D01*
X130919047Y-113013390D02*
X131014285Y-112965771D01*
X131014285Y-112965771D02*
X131061904Y-112918152D01*
X131061904Y-112918152D02*
X131109523Y-112822914D01*
X131109523Y-112822914D02*
X131109523Y-112775295D01*
X131109523Y-112775295D02*
X131061904Y-112680057D01*
X131061904Y-112680057D02*
X131014285Y-112632438D01*
X131014285Y-112632438D02*
X130919047Y-112584819D01*
X130919047Y-112584819D02*
X130728571Y-112584819D01*
X130728571Y-112584819D02*
X130633333Y-112632438D01*
X130633333Y-112632438D02*
X130585714Y-112680057D01*
X130585714Y-112680057D02*
X130538095Y-112775295D01*
X130538095Y-112775295D02*
X130538095Y-112822914D01*
X130538095Y-112822914D02*
X130585714Y-112918152D01*
X130585714Y-112918152D02*
X130633333Y-112965771D01*
X130633333Y-112965771D02*
X130728571Y-113013390D01*
X130728571Y-113013390D02*
X130919047Y-113013390D01*
X130919047Y-113013390D02*
X131014285Y-113061009D01*
X131014285Y-113061009D02*
X131061904Y-113108628D01*
X131061904Y-113108628D02*
X131109523Y-113203866D01*
X131109523Y-113203866D02*
X131109523Y-113394342D01*
X131109523Y-113394342D02*
X131061904Y-113489580D01*
X131061904Y-113489580D02*
X131014285Y-113537200D01*
X131014285Y-113537200D02*
X130919047Y-113584819D01*
X130919047Y-113584819D02*
X130728571Y-113584819D01*
X130728571Y-113584819D02*
X130633333Y-113537200D01*
X130633333Y-113537200D02*
X130585714Y-113489580D01*
X130585714Y-113489580D02*
X130538095Y-113394342D01*
X130538095Y-113394342D02*
X130538095Y-113203866D01*
X130538095Y-113203866D02*
X130585714Y-113108628D01*
X130585714Y-113108628D02*
X130633333Y-113061009D01*
X130633333Y-113061009D02*
X130728571Y-113013390D01*
X83444285Y-113864819D02*
X83444285Y-112864819D01*
X83444285Y-112864819D02*
X83206190Y-112864819D01*
X83206190Y-112864819D02*
X83063333Y-112912438D01*
X83063333Y-112912438D02*
X82968095Y-113007676D01*
X82968095Y-113007676D02*
X82920476Y-113102914D01*
X82920476Y-113102914D02*
X82872857Y-113293390D01*
X82872857Y-113293390D02*
X82872857Y-113436247D01*
X82872857Y-113436247D02*
X82920476Y-113626723D01*
X82920476Y-113626723D02*
X82968095Y-113721961D01*
X82968095Y-113721961D02*
X83063333Y-113817200D01*
X83063333Y-113817200D02*
X83206190Y-113864819D01*
X83206190Y-113864819D02*
X83444285Y-113864819D01*
X81920476Y-113864819D02*
X82491904Y-113864819D01*
X82206190Y-113864819D02*
X82206190Y-112864819D01*
X82206190Y-112864819D02*
X82301428Y-113007676D01*
X82301428Y-113007676D02*
X82396666Y-113102914D01*
X82396666Y-113102914D02*
X82491904Y-113150533D01*
X81015714Y-112864819D02*
X81491904Y-112864819D01*
X81491904Y-112864819D02*
X81539523Y-113341009D01*
X81539523Y-113341009D02*
X81491904Y-113293390D01*
X81491904Y-113293390D02*
X81396666Y-113245771D01*
X81396666Y-113245771D02*
X81158571Y-113245771D01*
X81158571Y-113245771D02*
X81063333Y-113293390D01*
X81063333Y-113293390D02*
X81015714Y-113341009D01*
X81015714Y-113341009D02*
X80968095Y-113436247D01*
X80968095Y-113436247D02*
X80968095Y-113674342D01*
X80968095Y-113674342D02*
X81015714Y-113769580D01*
X81015714Y-113769580D02*
X81063333Y-113817200D01*
X81063333Y-113817200D02*
X81158571Y-113864819D01*
X81158571Y-113864819D02*
X81396666Y-113864819D01*
X81396666Y-113864819D02*
X81491904Y-113817200D01*
X81491904Y-113817200D02*
X81539523Y-113769580D01*
X144542857Y-86159580D02*
X144590476Y-86207200D01*
X144590476Y-86207200D02*
X144733333Y-86254819D01*
X144733333Y-86254819D02*
X144828571Y-86254819D01*
X144828571Y-86254819D02*
X144971428Y-86207200D01*
X144971428Y-86207200D02*
X145066666Y-86111961D01*
X145066666Y-86111961D02*
X145114285Y-86016723D01*
X145114285Y-86016723D02*
X145161904Y-85826247D01*
X145161904Y-85826247D02*
X145161904Y-85683390D01*
X145161904Y-85683390D02*
X145114285Y-85492914D01*
X145114285Y-85492914D02*
X145066666Y-85397676D01*
X145066666Y-85397676D02*
X144971428Y-85302438D01*
X144971428Y-85302438D02*
X144828571Y-85254819D01*
X144828571Y-85254819D02*
X144733333Y-85254819D01*
X144733333Y-85254819D02*
X144590476Y-85302438D01*
X144590476Y-85302438D02*
X144542857Y-85350057D01*
X143590476Y-86254819D02*
X144161904Y-86254819D01*
X143876190Y-86254819D02*
X143876190Y-85254819D01*
X143876190Y-85254819D02*
X143971428Y-85397676D01*
X143971428Y-85397676D02*
X144066666Y-85492914D01*
X144066666Y-85492914D02*
X144161904Y-85540533D01*
X143114285Y-86254819D02*
X142923809Y-86254819D01*
X142923809Y-86254819D02*
X142828571Y-86207200D01*
X142828571Y-86207200D02*
X142780952Y-86159580D01*
X142780952Y-86159580D02*
X142685714Y-86016723D01*
X142685714Y-86016723D02*
X142638095Y-85826247D01*
X142638095Y-85826247D02*
X142638095Y-85445295D01*
X142638095Y-85445295D02*
X142685714Y-85350057D01*
X142685714Y-85350057D02*
X142733333Y-85302438D01*
X142733333Y-85302438D02*
X142828571Y-85254819D01*
X142828571Y-85254819D02*
X143019047Y-85254819D01*
X143019047Y-85254819D02*
X143114285Y-85302438D01*
X143114285Y-85302438D02*
X143161904Y-85350057D01*
X143161904Y-85350057D02*
X143209523Y-85445295D01*
X143209523Y-85445295D02*
X143209523Y-85683390D01*
X143209523Y-85683390D02*
X143161904Y-85778628D01*
X143161904Y-85778628D02*
X143114285Y-85826247D01*
X143114285Y-85826247D02*
X143019047Y-85873866D01*
X143019047Y-85873866D02*
X142828571Y-85873866D01*
X142828571Y-85873866D02*
X142733333Y-85826247D01*
X142733333Y-85826247D02*
X142685714Y-85778628D01*
X142685714Y-85778628D02*
X142638095Y-85683390D01*
X157824819Y-90355952D02*
X157348628Y-90022619D01*
X157824819Y-89784524D02*
X156824819Y-89784524D01*
X156824819Y-89784524D02*
X156824819Y-90165476D01*
X156824819Y-90165476D02*
X156872438Y-90260714D01*
X156872438Y-90260714D02*
X156920057Y-90308333D01*
X156920057Y-90308333D02*
X157015295Y-90355952D01*
X157015295Y-90355952D02*
X157158152Y-90355952D01*
X157158152Y-90355952D02*
X157253390Y-90308333D01*
X157253390Y-90308333D02*
X157301009Y-90260714D01*
X157301009Y-90260714D02*
X157348628Y-90165476D01*
X157348628Y-90165476D02*
X157348628Y-89784524D01*
X156920057Y-90736905D02*
X156872438Y-90784524D01*
X156872438Y-90784524D02*
X156824819Y-90879762D01*
X156824819Y-90879762D02*
X156824819Y-91117857D01*
X156824819Y-91117857D02*
X156872438Y-91213095D01*
X156872438Y-91213095D02*
X156920057Y-91260714D01*
X156920057Y-91260714D02*
X157015295Y-91308333D01*
X157015295Y-91308333D02*
X157110533Y-91308333D01*
X157110533Y-91308333D02*
X157253390Y-91260714D01*
X157253390Y-91260714D02*
X157824819Y-90689286D01*
X157824819Y-90689286D02*
X157824819Y-91308333D01*
X156824819Y-91927381D02*
X156824819Y-92022619D01*
X156824819Y-92022619D02*
X156872438Y-92117857D01*
X156872438Y-92117857D02*
X156920057Y-92165476D01*
X156920057Y-92165476D02*
X157015295Y-92213095D01*
X157015295Y-92213095D02*
X157205771Y-92260714D01*
X157205771Y-92260714D02*
X157443866Y-92260714D01*
X157443866Y-92260714D02*
X157634342Y-92213095D01*
X157634342Y-92213095D02*
X157729580Y-92165476D01*
X157729580Y-92165476D02*
X157777200Y-92117857D01*
X157777200Y-92117857D02*
X157824819Y-92022619D01*
X157824819Y-92022619D02*
X157824819Y-91927381D01*
X157824819Y-91927381D02*
X157777200Y-91832143D01*
X157777200Y-91832143D02*
X157729580Y-91784524D01*
X157729580Y-91784524D02*
X157634342Y-91736905D01*
X157634342Y-91736905D02*
X157443866Y-91689286D01*
X157443866Y-91689286D02*
X157205771Y-91689286D01*
X157205771Y-91689286D02*
X157015295Y-91736905D01*
X157015295Y-91736905D02*
X156920057Y-91784524D01*
X156920057Y-91784524D02*
X156872438Y-91832143D01*
X156872438Y-91832143D02*
X156824819Y-91927381D01*
X156824819Y-93165476D02*
X156824819Y-92689286D01*
X156824819Y-92689286D02*
X157301009Y-92641667D01*
X157301009Y-92641667D02*
X157253390Y-92689286D01*
X157253390Y-92689286D02*
X157205771Y-92784524D01*
X157205771Y-92784524D02*
X157205771Y-93022619D01*
X157205771Y-93022619D02*
X157253390Y-93117857D01*
X157253390Y-93117857D02*
X157301009Y-93165476D01*
X157301009Y-93165476D02*
X157396247Y-93213095D01*
X157396247Y-93213095D02*
X157634342Y-93213095D01*
X157634342Y-93213095D02*
X157729580Y-93165476D01*
X157729580Y-93165476D02*
X157777200Y-93117857D01*
X157777200Y-93117857D02*
X157824819Y-93022619D01*
X157824819Y-93022619D02*
X157824819Y-92784524D01*
X157824819Y-92784524D02*
X157777200Y-92689286D01*
X157777200Y-92689286D02*
X157729580Y-92641667D01*
X96048094Y-128614819D02*
X96048094Y-129424342D01*
X96048094Y-129424342D02*
X96000475Y-129519580D01*
X96000475Y-129519580D02*
X95952856Y-129567200D01*
X95952856Y-129567200D02*
X95857618Y-129614819D01*
X95857618Y-129614819D02*
X95667142Y-129614819D01*
X95667142Y-129614819D02*
X95571904Y-129567200D01*
X95571904Y-129567200D02*
X95524285Y-129519580D01*
X95524285Y-129519580D02*
X95476666Y-129424342D01*
X95476666Y-129424342D02*
X95476666Y-128614819D01*
X94571904Y-128614819D02*
X94762380Y-128614819D01*
X94762380Y-128614819D02*
X94857618Y-128662438D01*
X94857618Y-128662438D02*
X94905237Y-128710057D01*
X94905237Y-128710057D02*
X95000475Y-128852914D01*
X95000475Y-128852914D02*
X95048094Y-129043390D01*
X95048094Y-129043390D02*
X95048094Y-129424342D01*
X95048094Y-129424342D02*
X95000475Y-129519580D01*
X95000475Y-129519580D02*
X94952856Y-129567200D01*
X94952856Y-129567200D02*
X94857618Y-129614819D01*
X94857618Y-129614819D02*
X94667142Y-129614819D01*
X94667142Y-129614819D02*
X94571904Y-129567200D01*
X94571904Y-129567200D02*
X94524285Y-129519580D01*
X94524285Y-129519580D02*
X94476666Y-129424342D01*
X94476666Y-129424342D02*
X94476666Y-129186247D01*
X94476666Y-129186247D02*
X94524285Y-129091009D01*
X94524285Y-129091009D02*
X94571904Y-129043390D01*
X94571904Y-129043390D02*
X94667142Y-128995771D01*
X94667142Y-128995771D02*
X94857618Y-128995771D01*
X94857618Y-128995771D02*
X94952856Y-129043390D01*
X94952856Y-129043390D02*
X95000475Y-129091009D01*
X95000475Y-129091009D02*
X95048094Y-129186247D01*
X93619523Y-128614819D02*
X93809999Y-128614819D01*
X93809999Y-128614819D02*
X93905237Y-128662438D01*
X93905237Y-128662438D02*
X93952856Y-128710057D01*
X93952856Y-128710057D02*
X94048094Y-128852914D01*
X94048094Y-128852914D02*
X94095713Y-129043390D01*
X94095713Y-129043390D02*
X94095713Y-129424342D01*
X94095713Y-129424342D02*
X94048094Y-129519580D01*
X94048094Y-129519580D02*
X94000475Y-129567200D01*
X94000475Y-129567200D02*
X93905237Y-129614819D01*
X93905237Y-129614819D02*
X93714761Y-129614819D01*
X93714761Y-129614819D02*
X93619523Y-129567200D01*
X93619523Y-129567200D02*
X93571904Y-129519580D01*
X93571904Y-129519580D02*
X93524285Y-129424342D01*
X93524285Y-129424342D02*
X93524285Y-129186247D01*
X93524285Y-129186247D02*
X93571904Y-129091009D01*
X93571904Y-129091009D02*
X93619523Y-129043390D01*
X93619523Y-129043390D02*
X93714761Y-128995771D01*
X93714761Y-128995771D02*
X93905237Y-128995771D01*
X93905237Y-128995771D02*
X94000475Y-129043390D01*
X94000475Y-129043390D02*
X94048094Y-129091009D01*
X94048094Y-129091009D02*
X94095713Y-129186247D01*
X92358094Y-62034819D02*
X92358094Y-62844342D01*
X92358094Y-62844342D02*
X92310475Y-62939580D01*
X92310475Y-62939580D02*
X92262856Y-62987200D01*
X92262856Y-62987200D02*
X92167618Y-63034819D01*
X92167618Y-63034819D02*
X91977142Y-63034819D01*
X91977142Y-63034819D02*
X91881904Y-62987200D01*
X91881904Y-62987200D02*
X91834285Y-62939580D01*
X91834285Y-62939580D02*
X91786666Y-62844342D01*
X91786666Y-62844342D02*
X91786666Y-62034819D01*
X90881904Y-62034819D02*
X91072380Y-62034819D01*
X91072380Y-62034819D02*
X91167618Y-62082438D01*
X91167618Y-62082438D02*
X91215237Y-62130057D01*
X91215237Y-62130057D02*
X91310475Y-62272914D01*
X91310475Y-62272914D02*
X91358094Y-62463390D01*
X91358094Y-62463390D02*
X91358094Y-62844342D01*
X91358094Y-62844342D02*
X91310475Y-62939580D01*
X91310475Y-62939580D02*
X91262856Y-62987200D01*
X91262856Y-62987200D02*
X91167618Y-63034819D01*
X91167618Y-63034819D02*
X90977142Y-63034819D01*
X90977142Y-63034819D02*
X90881904Y-62987200D01*
X90881904Y-62987200D02*
X90834285Y-62939580D01*
X90834285Y-62939580D02*
X90786666Y-62844342D01*
X90786666Y-62844342D02*
X90786666Y-62606247D01*
X90786666Y-62606247D02*
X90834285Y-62511009D01*
X90834285Y-62511009D02*
X90881904Y-62463390D01*
X90881904Y-62463390D02*
X90977142Y-62415771D01*
X90977142Y-62415771D02*
X91167618Y-62415771D01*
X91167618Y-62415771D02*
X91262856Y-62463390D01*
X91262856Y-62463390D02*
X91310475Y-62511009D01*
X91310475Y-62511009D02*
X91358094Y-62606247D01*
X89929523Y-62368152D02*
X89929523Y-63034819D01*
X90167618Y-61987200D02*
X90405713Y-62701485D01*
X90405713Y-62701485D02*
X89786666Y-62701485D01*
X132919047Y-84084819D02*
X133252380Y-83608628D01*
X133490475Y-84084819D02*
X133490475Y-83084819D01*
X133490475Y-83084819D02*
X133109523Y-83084819D01*
X133109523Y-83084819D02*
X133014285Y-83132438D01*
X133014285Y-83132438D02*
X132966666Y-83180057D01*
X132966666Y-83180057D02*
X132919047Y-83275295D01*
X132919047Y-83275295D02*
X132919047Y-83418152D01*
X132919047Y-83418152D02*
X132966666Y-83513390D01*
X132966666Y-83513390D02*
X133014285Y-83561009D01*
X133014285Y-83561009D02*
X133109523Y-83608628D01*
X133109523Y-83608628D02*
X133490475Y-83608628D01*
X131966666Y-84084819D02*
X132538094Y-84084819D01*
X132252380Y-84084819D02*
X132252380Y-83084819D01*
X132252380Y-83084819D02*
X132347618Y-83227676D01*
X132347618Y-83227676D02*
X132442856Y-83322914D01*
X132442856Y-83322914D02*
X132538094Y-83370533D01*
X131061904Y-83084819D02*
X131538094Y-83084819D01*
X131538094Y-83084819D02*
X131585713Y-83561009D01*
X131585713Y-83561009D02*
X131538094Y-83513390D01*
X131538094Y-83513390D02*
X131442856Y-83465771D01*
X131442856Y-83465771D02*
X131204761Y-83465771D01*
X131204761Y-83465771D02*
X131109523Y-83513390D01*
X131109523Y-83513390D02*
X131061904Y-83561009D01*
X131061904Y-83561009D02*
X131014285Y-83656247D01*
X131014285Y-83656247D02*
X131014285Y-83894342D01*
X131014285Y-83894342D02*
X131061904Y-83989580D01*
X131061904Y-83989580D02*
X131109523Y-84037200D01*
X131109523Y-84037200D02*
X131204761Y-84084819D01*
X131204761Y-84084819D02*
X131442856Y-84084819D01*
X131442856Y-84084819D02*
X131538094Y-84037200D01*
X131538094Y-84037200D02*
X131585713Y-83989580D01*
X130442856Y-83513390D02*
X130538094Y-83465771D01*
X130538094Y-83465771D02*
X130585713Y-83418152D01*
X130585713Y-83418152D02*
X130633332Y-83322914D01*
X130633332Y-83322914D02*
X130633332Y-83275295D01*
X130633332Y-83275295D02*
X130585713Y-83180057D01*
X130585713Y-83180057D02*
X130538094Y-83132438D01*
X130538094Y-83132438D02*
X130442856Y-83084819D01*
X130442856Y-83084819D02*
X130252380Y-83084819D01*
X130252380Y-83084819D02*
X130157142Y-83132438D01*
X130157142Y-83132438D02*
X130109523Y-83180057D01*
X130109523Y-83180057D02*
X130061904Y-83275295D01*
X130061904Y-83275295D02*
X130061904Y-83322914D01*
X130061904Y-83322914D02*
X130109523Y-83418152D01*
X130109523Y-83418152D02*
X130157142Y-83465771D01*
X130157142Y-83465771D02*
X130252380Y-83513390D01*
X130252380Y-83513390D02*
X130442856Y-83513390D01*
X130442856Y-83513390D02*
X130538094Y-83561009D01*
X130538094Y-83561009D02*
X130585713Y-83608628D01*
X130585713Y-83608628D02*
X130633332Y-83703866D01*
X130633332Y-83703866D02*
X130633332Y-83894342D01*
X130633332Y-83894342D02*
X130585713Y-83989580D01*
X130585713Y-83989580D02*
X130538094Y-84037200D01*
X130538094Y-84037200D02*
X130442856Y-84084819D01*
X130442856Y-84084819D02*
X130252380Y-84084819D01*
X130252380Y-84084819D02*
X130157142Y-84037200D01*
X130157142Y-84037200D02*
X130109523Y-83989580D01*
X130109523Y-83989580D02*
X130061904Y-83894342D01*
X130061904Y-83894342D02*
X130061904Y-83703866D01*
X130061904Y-83703866D02*
X130109523Y-83608628D01*
X130109523Y-83608628D02*
X130157142Y-83561009D01*
X130157142Y-83561009D02*
X130252380Y-83513390D01*
X144742857Y-128059580D02*
X144790476Y-128107200D01*
X144790476Y-128107200D02*
X144933333Y-128154819D01*
X144933333Y-128154819D02*
X145028571Y-128154819D01*
X145028571Y-128154819D02*
X145171428Y-128107200D01*
X145171428Y-128107200D02*
X145266666Y-128011961D01*
X145266666Y-128011961D02*
X145314285Y-127916723D01*
X145314285Y-127916723D02*
X145361904Y-127726247D01*
X145361904Y-127726247D02*
X145361904Y-127583390D01*
X145361904Y-127583390D02*
X145314285Y-127392914D01*
X145314285Y-127392914D02*
X145266666Y-127297676D01*
X145266666Y-127297676D02*
X145171428Y-127202438D01*
X145171428Y-127202438D02*
X145028571Y-127154819D01*
X145028571Y-127154819D02*
X144933333Y-127154819D01*
X144933333Y-127154819D02*
X144790476Y-127202438D01*
X144790476Y-127202438D02*
X144742857Y-127250057D01*
X143838095Y-127154819D02*
X144314285Y-127154819D01*
X144314285Y-127154819D02*
X144361904Y-127631009D01*
X144361904Y-127631009D02*
X144314285Y-127583390D01*
X144314285Y-127583390D02*
X144219047Y-127535771D01*
X144219047Y-127535771D02*
X143980952Y-127535771D01*
X143980952Y-127535771D02*
X143885714Y-127583390D01*
X143885714Y-127583390D02*
X143838095Y-127631009D01*
X143838095Y-127631009D02*
X143790476Y-127726247D01*
X143790476Y-127726247D02*
X143790476Y-127964342D01*
X143790476Y-127964342D02*
X143838095Y-128059580D01*
X143838095Y-128059580D02*
X143885714Y-128107200D01*
X143885714Y-128107200D02*
X143980952Y-128154819D01*
X143980952Y-128154819D02*
X144219047Y-128154819D01*
X144219047Y-128154819D02*
X144314285Y-128107200D01*
X144314285Y-128107200D02*
X144361904Y-128059580D01*
X142838095Y-128154819D02*
X143409523Y-128154819D01*
X143123809Y-128154819D02*
X143123809Y-127154819D01*
X143123809Y-127154819D02*
X143219047Y-127297676D01*
X143219047Y-127297676D02*
X143314285Y-127392914D01*
X143314285Y-127392914D02*
X143409523Y-127440533D01*
X144842857Y-107959580D02*
X144890476Y-108007200D01*
X144890476Y-108007200D02*
X145033333Y-108054819D01*
X145033333Y-108054819D02*
X145128571Y-108054819D01*
X145128571Y-108054819D02*
X145271428Y-108007200D01*
X145271428Y-108007200D02*
X145366666Y-107911961D01*
X145366666Y-107911961D02*
X145414285Y-107816723D01*
X145414285Y-107816723D02*
X145461904Y-107626247D01*
X145461904Y-107626247D02*
X145461904Y-107483390D01*
X145461904Y-107483390D02*
X145414285Y-107292914D01*
X145414285Y-107292914D02*
X145366666Y-107197676D01*
X145366666Y-107197676D02*
X145271428Y-107102438D01*
X145271428Y-107102438D02*
X145128571Y-107054819D01*
X145128571Y-107054819D02*
X145033333Y-107054819D01*
X145033333Y-107054819D02*
X144890476Y-107102438D01*
X144890476Y-107102438D02*
X144842857Y-107150057D01*
X144509523Y-107054819D02*
X143890476Y-107054819D01*
X143890476Y-107054819D02*
X144223809Y-107435771D01*
X144223809Y-107435771D02*
X144080952Y-107435771D01*
X144080952Y-107435771D02*
X143985714Y-107483390D01*
X143985714Y-107483390D02*
X143938095Y-107531009D01*
X143938095Y-107531009D02*
X143890476Y-107626247D01*
X143890476Y-107626247D02*
X143890476Y-107864342D01*
X143890476Y-107864342D02*
X143938095Y-107959580D01*
X143938095Y-107959580D02*
X143985714Y-108007200D01*
X143985714Y-108007200D02*
X144080952Y-108054819D01*
X144080952Y-108054819D02*
X144366666Y-108054819D01*
X144366666Y-108054819D02*
X144461904Y-108007200D01*
X144461904Y-108007200D02*
X144509523Y-107959580D01*
X142985714Y-107054819D02*
X143461904Y-107054819D01*
X143461904Y-107054819D02*
X143509523Y-107531009D01*
X143509523Y-107531009D02*
X143461904Y-107483390D01*
X143461904Y-107483390D02*
X143366666Y-107435771D01*
X143366666Y-107435771D02*
X143128571Y-107435771D01*
X143128571Y-107435771D02*
X143033333Y-107483390D01*
X143033333Y-107483390D02*
X142985714Y-107531009D01*
X142985714Y-107531009D02*
X142938095Y-107626247D01*
X142938095Y-107626247D02*
X142938095Y-107864342D01*
X142938095Y-107864342D02*
X142985714Y-107959580D01*
X142985714Y-107959580D02*
X143033333Y-108007200D01*
X143033333Y-108007200D02*
X143128571Y-108054819D01*
X143128571Y-108054819D02*
X143366666Y-108054819D01*
X143366666Y-108054819D02*
X143461904Y-108007200D01*
X143461904Y-108007200D02*
X143509523Y-107959580D01*
X83239343Y-70329819D02*
X83239343Y-69329819D01*
X83239343Y-69329819D02*
X83001248Y-69329819D01*
X83001248Y-69329819D02*
X82858391Y-69377438D01*
X82858391Y-69377438D02*
X82763153Y-69472676D01*
X82763153Y-69472676D02*
X82715534Y-69567914D01*
X82715534Y-69567914D02*
X82667915Y-69758390D01*
X82667915Y-69758390D02*
X82667915Y-69901247D01*
X82667915Y-69901247D02*
X82715534Y-70091723D01*
X82715534Y-70091723D02*
X82763153Y-70186961D01*
X82763153Y-70186961D02*
X82858391Y-70282200D01*
X82858391Y-70282200D02*
X83001248Y-70329819D01*
X83001248Y-70329819D02*
X83239343Y-70329819D01*
X81715534Y-70329819D02*
X82286962Y-70329819D01*
X82001248Y-70329819D02*
X82001248Y-69329819D01*
X82001248Y-69329819D02*
X82096486Y-69472676D01*
X82096486Y-69472676D02*
X82191724Y-69567914D01*
X82191724Y-69567914D02*
X82286962Y-69615533D01*
X80858391Y-69329819D02*
X81048867Y-69329819D01*
X81048867Y-69329819D02*
X81144105Y-69377438D01*
X81144105Y-69377438D02*
X81191724Y-69425057D01*
X81191724Y-69425057D02*
X81286962Y-69567914D01*
X81286962Y-69567914D02*
X81334581Y-69758390D01*
X81334581Y-69758390D02*
X81334581Y-70139342D01*
X81334581Y-70139342D02*
X81286962Y-70234580D01*
X81286962Y-70234580D02*
X81239343Y-70282200D01*
X81239343Y-70282200D02*
X81144105Y-70329819D01*
X81144105Y-70329819D02*
X80953629Y-70329819D01*
X80953629Y-70329819D02*
X80858391Y-70282200D01*
X80858391Y-70282200D02*
X80810772Y-70234580D01*
X80810772Y-70234580D02*
X80763153Y-70139342D01*
X80763153Y-70139342D02*
X80763153Y-69901247D01*
X80763153Y-69901247D02*
X80810772Y-69806009D01*
X80810772Y-69806009D02*
X80858391Y-69758390D01*
X80858391Y-69758390D02*
X80953629Y-69710771D01*
X80953629Y-69710771D02*
X81144105Y-69710771D01*
X81144105Y-69710771D02*
X81239343Y-69758390D01*
X81239343Y-69758390D02*
X81286962Y-69806009D01*
X81286962Y-69806009D02*
X81334581Y-69901247D01*
X91109580Y-138457142D02*
X91157200Y-138409523D01*
X91157200Y-138409523D02*
X91204819Y-138266666D01*
X91204819Y-138266666D02*
X91204819Y-138171428D01*
X91204819Y-138171428D02*
X91157200Y-138028571D01*
X91157200Y-138028571D02*
X91061961Y-137933333D01*
X91061961Y-137933333D02*
X90966723Y-137885714D01*
X90966723Y-137885714D02*
X90776247Y-137838095D01*
X90776247Y-137838095D02*
X90633390Y-137838095D01*
X90633390Y-137838095D02*
X90442914Y-137885714D01*
X90442914Y-137885714D02*
X90347676Y-137933333D01*
X90347676Y-137933333D02*
X90252438Y-138028571D01*
X90252438Y-138028571D02*
X90204819Y-138171428D01*
X90204819Y-138171428D02*
X90204819Y-138266666D01*
X90204819Y-138266666D02*
X90252438Y-138409523D01*
X90252438Y-138409523D02*
X90300057Y-138457142D01*
X90204819Y-139314285D02*
X90204819Y-139123809D01*
X90204819Y-139123809D02*
X90252438Y-139028571D01*
X90252438Y-139028571D02*
X90300057Y-138980952D01*
X90300057Y-138980952D02*
X90442914Y-138885714D01*
X90442914Y-138885714D02*
X90633390Y-138838095D01*
X90633390Y-138838095D02*
X91014342Y-138838095D01*
X91014342Y-138838095D02*
X91109580Y-138885714D01*
X91109580Y-138885714D02*
X91157200Y-138933333D01*
X91157200Y-138933333D02*
X91204819Y-139028571D01*
X91204819Y-139028571D02*
X91204819Y-139219047D01*
X91204819Y-139219047D02*
X91157200Y-139314285D01*
X91157200Y-139314285D02*
X91109580Y-139361904D01*
X91109580Y-139361904D02*
X91014342Y-139409523D01*
X91014342Y-139409523D02*
X90776247Y-139409523D01*
X90776247Y-139409523D02*
X90681009Y-139361904D01*
X90681009Y-139361904D02*
X90633390Y-139314285D01*
X90633390Y-139314285D02*
X90585771Y-139219047D01*
X90585771Y-139219047D02*
X90585771Y-139028571D01*
X90585771Y-139028571D02*
X90633390Y-138933333D01*
X90633390Y-138933333D02*
X90681009Y-138885714D01*
X90681009Y-138885714D02*
X90776247Y-138838095D01*
X91204819Y-139885714D02*
X91204819Y-140076190D01*
X91204819Y-140076190D02*
X91157200Y-140171428D01*
X91157200Y-140171428D02*
X91109580Y-140219047D01*
X91109580Y-140219047D02*
X90966723Y-140314285D01*
X90966723Y-140314285D02*
X90776247Y-140361904D01*
X90776247Y-140361904D02*
X90395295Y-140361904D01*
X90395295Y-140361904D02*
X90300057Y-140314285D01*
X90300057Y-140314285D02*
X90252438Y-140266666D01*
X90252438Y-140266666D02*
X90204819Y-140171428D01*
X90204819Y-140171428D02*
X90204819Y-139980952D01*
X90204819Y-139980952D02*
X90252438Y-139885714D01*
X90252438Y-139885714D02*
X90300057Y-139838095D01*
X90300057Y-139838095D02*
X90395295Y-139790476D01*
X90395295Y-139790476D02*
X90633390Y-139790476D01*
X90633390Y-139790476D02*
X90728628Y-139838095D01*
X90728628Y-139838095D02*
X90776247Y-139885714D01*
X90776247Y-139885714D02*
X90823866Y-139980952D01*
X90823866Y-139980952D02*
X90823866Y-140171428D01*
X90823866Y-140171428D02*
X90776247Y-140266666D01*
X90776247Y-140266666D02*
X90728628Y-140314285D01*
X90728628Y-140314285D02*
X90633390Y-140361904D01*
X93519580Y-96527142D02*
X93567200Y-96479523D01*
X93567200Y-96479523D02*
X93614819Y-96336666D01*
X93614819Y-96336666D02*
X93614819Y-96241428D01*
X93614819Y-96241428D02*
X93567200Y-96098571D01*
X93567200Y-96098571D02*
X93471961Y-96003333D01*
X93471961Y-96003333D02*
X93376723Y-95955714D01*
X93376723Y-95955714D02*
X93186247Y-95908095D01*
X93186247Y-95908095D02*
X93043390Y-95908095D01*
X93043390Y-95908095D02*
X92852914Y-95955714D01*
X92852914Y-95955714D02*
X92757676Y-96003333D01*
X92757676Y-96003333D02*
X92662438Y-96098571D01*
X92662438Y-96098571D02*
X92614819Y-96241428D01*
X92614819Y-96241428D02*
X92614819Y-96336666D01*
X92614819Y-96336666D02*
X92662438Y-96479523D01*
X92662438Y-96479523D02*
X92710057Y-96527142D01*
X92614819Y-96860476D02*
X92614819Y-97527142D01*
X92614819Y-97527142D02*
X93614819Y-97098571D01*
X92614819Y-98098571D02*
X92614819Y-98193809D01*
X92614819Y-98193809D02*
X92662438Y-98289047D01*
X92662438Y-98289047D02*
X92710057Y-98336666D01*
X92710057Y-98336666D02*
X92805295Y-98384285D01*
X92805295Y-98384285D02*
X92995771Y-98431904D01*
X92995771Y-98431904D02*
X93233866Y-98431904D01*
X93233866Y-98431904D02*
X93424342Y-98384285D01*
X93424342Y-98384285D02*
X93519580Y-98336666D01*
X93519580Y-98336666D02*
X93567200Y-98289047D01*
X93567200Y-98289047D02*
X93614819Y-98193809D01*
X93614819Y-98193809D02*
X93614819Y-98098571D01*
X93614819Y-98098571D02*
X93567200Y-98003333D01*
X93567200Y-98003333D02*
X93519580Y-97955714D01*
X93519580Y-97955714D02*
X93424342Y-97908095D01*
X93424342Y-97908095D02*
X93233866Y-97860476D01*
X93233866Y-97860476D02*
X92995771Y-97860476D01*
X92995771Y-97860476D02*
X92805295Y-97908095D01*
X92805295Y-97908095D02*
X92710057Y-97955714D01*
X92710057Y-97955714D02*
X92662438Y-98003333D01*
X92662438Y-98003333D02*
X92614819Y-98098571D01*
X143766666Y-64459580D02*
X143814285Y-64507200D01*
X143814285Y-64507200D02*
X143957142Y-64554819D01*
X143957142Y-64554819D02*
X144052380Y-64554819D01*
X144052380Y-64554819D02*
X144195237Y-64507200D01*
X144195237Y-64507200D02*
X144290475Y-64411961D01*
X144290475Y-64411961D02*
X144338094Y-64316723D01*
X144338094Y-64316723D02*
X144385713Y-64126247D01*
X144385713Y-64126247D02*
X144385713Y-63983390D01*
X144385713Y-63983390D02*
X144338094Y-63792914D01*
X144338094Y-63792914D02*
X144290475Y-63697676D01*
X144290475Y-63697676D02*
X144195237Y-63602438D01*
X144195237Y-63602438D02*
X144052380Y-63554819D01*
X144052380Y-63554819D02*
X143957142Y-63554819D01*
X143957142Y-63554819D02*
X143814285Y-63602438D01*
X143814285Y-63602438D02*
X143766666Y-63650057D01*
X143433332Y-63554819D02*
X142814285Y-63554819D01*
X142814285Y-63554819D02*
X143147618Y-63935771D01*
X143147618Y-63935771D02*
X143004761Y-63935771D01*
X143004761Y-63935771D02*
X142909523Y-63983390D01*
X142909523Y-63983390D02*
X142861904Y-64031009D01*
X142861904Y-64031009D02*
X142814285Y-64126247D01*
X142814285Y-64126247D02*
X142814285Y-64364342D01*
X142814285Y-64364342D02*
X142861904Y-64459580D01*
X142861904Y-64459580D02*
X142909523Y-64507200D01*
X142909523Y-64507200D02*
X143004761Y-64554819D01*
X143004761Y-64554819D02*
X143290475Y-64554819D01*
X143290475Y-64554819D02*
X143385713Y-64507200D01*
X143385713Y-64507200D02*
X143433332Y-64459580D01*
X161642857Y-118209580D02*
X161690476Y-118257200D01*
X161690476Y-118257200D02*
X161833333Y-118304819D01*
X161833333Y-118304819D02*
X161928571Y-118304819D01*
X161928571Y-118304819D02*
X162071428Y-118257200D01*
X162071428Y-118257200D02*
X162166666Y-118161961D01*
X162166666Y-118161961D02*
X162214285Y-118066723D01*
X162214285Y-118066723D02*
X162261904Y-117876247D01*
X162261904Y-117876247D02*
X162261904Y-117733390D01*
X162261904Y-117733390D02*
X162214285Y-117542914D01*
X162214285Y-117542914D02*
X162166666Y-117447676D01*
X162166666Y-117447676D02*
X162071428Y-117352438D01*
X162071428Y-117352438D02*
X161928571Y-117304819D01*
X161928571Y-117304819D02*
X161833333Y-117304819D01*
X161833333Y-117304819D02*
X161690476Y-117352438D01*
X161690476Y-117352438D02*
X161642857Y-117400057D01*
X160785714Y-117304819D02*
X160976190Y-117304819D01*
X160976190Y-117304819D02*
X161071428Y-117352438D01*
X161071428Y-117352438D02*
X161119047Y-117400057D01*
X161119047Y-117400057D02*
X161214285Y-117542914D01*
X161214285Y-117542914D02*
X161261904Y-117733390D01*
X161261904Y-117733390D02*
X161261904Y-118114342D01*
X161261904Y-118114342D02*
X161214285Y-118209580D01*
X161214285Y-118209580D02*
X161166666Y-118257200D01*
X161166666Y-118257200D02*
X161071428Y-118304819D01*
X161071428Y-118304819D02*
X160880952Y-118304819D01*
X160880952Y-118304819D02*
X160785714Y-118257200D01*
X160785714Y-118257200D02*
X160738095Y-118209580D01*
X160738095Y-118209580D02*
X160690476Y-118114342D01*
X160690476Y-118114342D02*
X160690476Y-117876247D01*
X160690476Y-117876247D02*
X160738095Y-117781009D01*
X160738095Y-117781009D02*
X160785714Y-117733390D01*
X160785714Y-117733390D02*
X160880952Y-117685771D01*
X160880952Y-117685771D02*
X161071428Y-117685771D01*
X161071428Y-117685771D02*
X161166666Y-117733390D01*
X161166666Y-117733390D02*
X161214285Y-117781009D01*
X161214285Y-117781009D02*
X161261904Y-117876247D01*
X160357142Y-117304819D02*
X159738095Y-117304819D01*
X159738095Y-117304819D02*
X160071428Y-117685771D01*
X160071428Y-117685771D02*
X159928571Y-117685771D01*
X159928571Y-117685771D02*
X159833333Y-117733390D01*
X159833333Y-117733390D02*
X159785714Y-117781009D01*
X159785714Y-117781009D02*
X159738095Y-117876247D01*
X159738095Y-117876247D02*
X159738095Y-118114342D01*
X159738095Y-118114342D02*
X159785714Y-118209580D01*
X159785714Y-118209580D02*
X159833333Y-118257200D01*
X159833333Y-118257200D02*
X159928571Y-118304819D01*
X159928571Y-118304819D02*
X160214285Y-118304819D01*
X160214285Y-118304819D02*
X160309523Y-118257200D01*
X160309523Y-118257200D02*
X160357142Y-118209580D01*
X97826984Y-141529819D02*
X97826984Y-140529819D01*
X96779366Y-141434580D02*
X96826985Y-141482200D01*
X96826985Y-141482200D02*
X96969842Y-141529819D01*
X96969842Y-141529819D02*
X97065080Y-141529819D01*
X97065080Y-141529819D02*
X97207937Y-141482200D01*
X97207937Y-141482200D02*
X97303175Y-141386961D01*
X97303175Y-141386961D02*
X97350794Y-141291723D01*
X97350794Y-141291723D02*
X97398413Y-141101247D01*
X97398413Y-141101247D02*
X97398413Y-140958390D01*
X97398413Y-140958390D02*
X97350794Y-140767914D01*
X97350794Y-140767914D02*
X97303175Y-140672676D01*
X97303175Y-140672676D02*
X97207937Y-140577438D01*
X97207937Y-140577438D02*
X97065080Y-140529819D01*
X97065080Y-140529819D02*
X96969842Y-140529819D01*
X96969842Y-140529819D02*
X96826985Y-140577438D01*
X96826985Y-140577438D02*
X96779366Y-140625057D01*
X95826985Y-141529819D02*
X96398413Y-141529819D01*
X96112699Y-141529819D02*
X96112699Y-140529819D01*
X96112699Y-140529819D02*
X96207937Y-140672676D01*
X96207937Y-140672676D02*
X96303175Y-140767914D01*
X96303175Y-140767914D02*
X96398413Y-140815533D01*
X95493651Y-140529819D02*
X94826985Y-140529819D01*
X94826985Y-140529819D02*
X95255556Y-141529819D01*
X95608094Y-84294819D02*
X95608094Y-85104342D01*
X95608094Y-85104342D02*
X95560475Y-85199580D01*
X95560475Y-85199580D02*
X95512856Y-85247200D01*
X95512856Y-85247200D02*
X95417618Y-85294819D01*
X95417618Y-85294819D02*
X95227142Y-85294819D01*
X95227142Y-85294819D02*
X95131904Y-85247200D01*
X95131904Y-85247200D02*
X95084285Y-85199580D01*
X95084285Y-85199580D02*
X95036666Y-85104342D01*
X95036666Y-85104342D02*
X95036666Y-84294819D01*
X94131904Y-84294819D02*
X94322380Y-84294819D01*
X94322380Y-84294819D02*
X94417618Y-84342438D01*
X94417618Y-84342438D02*
X94465237Y-84390057D01*
X94465237Y-84390057D02*
X94560475Y-84532914D01*
X94560475Y-84532914D02*
X94608094Y-84723390D01*
X94608094Y-84723390D02*
X94608094Y-85104342D01*
X94608094Y-85104342D02*
X94560475Y-85199580D01*
X94560475Y-85199580D02*
X94512856Y-85247200D01*
X94512856Y-85247200D02*
X94417618Y-85294819D01*
X94417618Y-85294819D02*
X94227142Y-85294819D01*
X94227142Y-85294819D02*
X94131904Y-85247200D01*
X94131904Y-85247200D02*
X94084285Y-85199580D01*
X94084285Y-85199580D02*
X94036666Y-85104342D01*
X94036666Y-85104342D02*
X94036666Y-84866247D01*
X94036666Y-84866247D02*
X94084285Y-84771009D01*
X94084285Y-84771009D02*
X94131904Y-84723390D01*
X94131904Y-84723390D02*
X94227142Y-84675771D01*
X94227142Y-84675771D02*
X94417618Y-84675771D01*
X94417618Y-84675771D02*
X94512856Y-84723390D01*
X94512856Y-84723390D02*
X94560475Y-84771009D01*
X94560475Y-84771009D02*
X94608094Y-84866247D01*
X93703332Y-84294819D02*
X93036666Y-84294819D01*
X93036666Y-84294819D02*
X93465237Y-85294819D01*
X129469047Y-139904819D02*
X129802380Y-139428628D01*
X130040475Y-139904819D02*
X130040475Y-138904819D01*
X130040475Y-138904819D02*
X129659523Y-138904819D01*
X129659523Y-138904819D02*
X129564285Y-138952438D01*
X129564285Y-138952438D02*
X129516666Y-139000057D01*
X129516666Y-139000057D02*
X129469047Y-139095295D01*
X129469047Y-139095295D02*
X129469047Y-139238152D01*
X129469047Y-139238152D02*
X129516666Y-139333390D01*
X129516666Y-139333390D02*
X129564285Y-139381009D01*
X129564285Y-139381009D02*
X129659523Y-139428628D01*
X129659523Y-139428628D02*
X130040475Y-139428628D01*
X128516666Y-139904819D02*
X129088094Y-139904819D01*
X128802380Y-139904819D02*
X128802380Y-138904819D01*
X128802380Y-138904819D02*
X128897618Y-139047676D01*
X128897618Y-139047676D02*
X128992856Y-139142914D01*
X128992856Y-139142914D02*
X129088094Y-139190533D01*
X128183332Y-138904819D02*
X127564285Y-138904819D01*
X127564285Y-138904819D02*
X127897618Y-139285771D01*
X127897618Y-139285771D02*
X127754761Y-139285771D01*
X127754761Y-139285771D02*
X127659523Y-139333390D01*
X127659523Y-139333390D02*
X127611904Y-139381009D01*
X127611904Y-139381009D02*
X127564285Y-139476247D01*
X127564285Y-139476247D02*
X127564285Y-139714342D01*
X127564285Y-139714342D02*
X127611904Y-139809580D01*
X127611904Y-139809580D02*
X127659523Y-139857200D01*
X127659523Y-139857200D02*
X127754761Y-139904819D01*
X127754761Y-139904819D02*
X128040475Y-139904819D01*
X128040475Y-139904819D02*
X128135713Y-139857200D01*
X128135713Y-139857200D02*
X128183332Y-139809580D01*
X127088094Y-139904819D02*
X126897618Y-139904819D01*
X126897618Y-139904819D02*
X126802380Y-139857200D01*
X126802380Y-139857200D02*
X126754761Y-139809580D01*
X126754761Y-139809580D02*
X126659523Y-139666723D01*
X126659523Y-139666723D02*
X126611904Y-139476247D01*
X126611904Y-139476247D02*
X126611904Y-139095295D01*
X126611904Y-139095295D02*
X126659523Y-139000057D01*
X126659523Y-139000057D02*
X126707142Y-138952438D01*
X126707142Y-138952438D02*
X126802380Y-138904819D01*
X126802380Y-138904819D02*
X126992856Y-138904819D01*
X126992856Y-138904819D02*
X127088094Y-138952438D01*
X127088094Y-138952438D02*
X127135713Y-139000057D01*
X127135713Y-139000057D02*
X127183332Y-139095295D01*
X127183332Y-139095295D02*
X127183332Y-139333390D01*
X127183332Y-139333390D02*
X127135713Y-139428628D01*
X127135713Y-139428628D02*
X127088094Y-139476247D01*
X127088094Y-139476247D02*
X126992856Y-139523866D01*
X126992856Y-139523866D02*
X126802380Y-139523866D01*
X126802380Y-139523866D02*
X126707142Y-139476247D01*
X126707142Y-139476247D02*
X126659523Y-139428628D01*
X126659523Y-139428628D02*
X126611904Y-139333390D01*
X90338094Y-105654819D02*
X90338094Y-106464342D01*
X90338094Y-106464342D02*
X90290475Y-106559580D01*
X90290475Y-106559580D02*
X90242856Y-106607200D01*
X90242856Y-106607200D02*
X90147618Y-106654819D01*
X90147618Y-106654819D02*
X89957142Y-106654819D01*
X89957142Y-106654819D02*
X89861904Y-106607200D01*
X89861904Y-106607200D02*
X89814285Y-106559580D01*
X89814285Y-106559580D02*
X89766666Y-106464342D01*
X89766666Y-106464342D02*
X89766666Y-105654819D01*
X88861904Y-105654819D02*
X89052380Y-105654819D01*
X89052380Y-105654819D02*
X89147618Y-105702438D01*
X89147618Y-105702438D02*
X89195237Y-105750057D01*
X89195237Y-105750057D02*
X89290475Y-105892914D01*
X89290475Y-105892914D02*
X89338094Y-106083390D01*
X89338094Y-106083390D02*
X89338094Y-106464342D01*
X89338094Y-106464342D02*
X89290475Y-106559580D01*
X89290475Y-106559580D02*
X89242856Y-106607200D01*
X89242856Y-106607200D02*
X89147618Y-106654819D01*
X89147618Y-106654819D02*
X88957142Y-106654819D01*
X88957142Y-106654819D02*
X88861904Y-106607200D01*
X88861904Y-106607200D02*
X88814285Y-106559580D01*
X88814285Y-106559580D02*
X88766666Y-106464342D01*
X88766666Y-106464342D02*
X88766666Y-106226247D01*
X88766666Y-106226247D02*
X88814285Y-106131009D01*
X88814285Y-106131009D02*
X88861904Y-106083390D01*
X88861904Y-106083390D02*
X88957142Y-106035771D01*
X88957142Y-106035771D02*
X89147618Y-106035771D01*
X89147618Y-106035771D02*
X89242856Y-106083390D01*
X89242856Y-106083390D02*
X89290475Y-106131009D01*
X89290475Y-106131009D02*
X89338094Y-106226247D01*
X87861904Y-105654819D02*
X88338094Y-105654819D01*
X88338094Y-105654819D02*
X88385713Y-106131009D01*
X88385713Y-106131009D02*
X88338094Y-106083390D01*
X88338094Y-106083390D02*
X88242856Y-106035771D01*
X88242856Y-106035771D02*
X88004761Y-106035771D01*
X88004761Y-106035771D02*
X87909523Y-106083390D01*
X87909523Y-106083390D02*
X87861904Y-106131009D01*
X87861904Y-106131009D02*
X87814285Y-106226247D01*
X87814285Y-106226247D02*
X87814285Y-106464342D01*
X87814285Y-106464342D02*
X87861904Y-106559580D01*
X87861904Y-106559580D02*
X87909523Y-106607200D01*
X87909523Y-106607200D02*
X88004761Y-106654819D01*
X88004761Y-106654819D02*
X88242856Y-106654819D01*
X88242856Y-106654819D02*
X88338094Y-106607200D01*
X88338094Y-106607200D02*
X88385713Y-106559580D01*
X132442857Y-104984819D02*
X132776190Y-104508628D01*
X133014285Y-104984819D02*
X133014285Y-103984819D01*
X133014285Y-103984819D02*
X132633333Y-103984819D01*
X132633333Y-103984819D02*
X132538095Y-104032438D01*
X132538095Y-104032438D02*
X132490476Y-104080057D01*
X132490476Y-104080057D02*
X132442857Y-104175295D01*
X132442857Y-104175295D02*
X132442857Y-104318152D01*
X132442857Y-104318152D02*
X132490476Y-104413390D01*
X132490476Y-104413390D02*
X132538095Y-104461009D01*
X132538095Y-104461009D02*
X132633333Y-104508628D01*
X132633333Y-104508628D02*
X133014285Y-104508628D01*
X131538095Y-103984819D02*
X132014285Y-103984819D01*
X132014285Y-103984819D02*
X132061904Y-104461009D01*
X132061904Y-104461009D02*
X132014285Y-104413390D01*
X132014285Y-104413390D02*
X131919047Y-104365771D01*
X131919047Y-104365771D02*
X131680952Y-104365771D01*
X131680952Y-104365771D02*
X131585714Y-104413390D01*
X131585714Y-104413390D02*
X131538095Y-104461009D01*
X131538095Y-104461009D02*
X131490476Y-104556247D01*
X131490476Y-104556247D02*
X131490476Y-104794342D01*
X131490476Y-104794342D02*
X131538095Y-104889580D01*
X131538095Y-104889580D02*
X131585714Y-104937200D01*
X131585714Y-104937200D02*
X131680952Y-104984819D01*
X131680952Y-104984819D02*
X131919047Y-104984819D01*
X131919047Y-104984819D02*
X132014285Y-104937200D01*
X132014285Y-104937200D02*
X132061904Y-104889580D01*
X130919047Y-104413390D02*
X131014285Y-104365771D01*
X131014285Y-104365771D02*
X131061904Y-104318152D01*
X131061904Y-104318152D02*
X131109523Y-104222914D01*
X131109523Y-104222914D02*
X131109523Y-104175295D01*
X131109523Y-104175295D02*
X131061904Y-104080057D01*
X131061904Y-104080057D02*
X131014285Y-104032438D01*
X131014285Y-104032438D02*
X130919047Y-103984819D01*
X130919047Y-103984819D02*
X130728571Y-103984819D01*
X130728571Y-103984819D02*
X130633333Y-104032438D01*
X130633333Y-104032438D02*
X130585714Y-104080057D01*
X130585714Y-104080057D02*
X130538095Y-104175295D01*
X130538095Y-104175295D02*
X130538095Y-104222914D01*
X130538095Y-104222914D02*
X130585714Y-104318152D01*
X130585714Y-104318152D02*
X130633333Y-104365771D01*
X130633333Y-104365771D02*
X130728571Y-104413390D01*
X130728571Y-104413390D02*
X130919047Y-104413390D01*
X130919047Y-104413390D02*
X131014285Y-104461009D01*
X131014285Y-104461009D02*
X131061904Y-104508628D01*
X131061904Y-104508628D02*
X131109523Y-104603866D01*
X131109523Y-104603866D02*
X131109523Y-104794342D01*
X131109523Y-104794342D02*
X131061904Y-104889580D01*
X131061904Y-104889580D02*
X131014285Y-104937200D01*
X131014285Y-104937200D02*
X130919047Y-104984819D01*
X130919047Y-104984819D02*
X130728571Y-104984819D01*
X130728571Y-104984819D02*
X130633333Y-104937200D01*
X130633333Y-104937200D02*
X130585714Y-104889580D01*
X130585714Y-104889580D02*
X130538095Y-104794342D01*
X130538095Y-104794342D02*
X130538095Y-104603866D01*
X130538095Y-104603866D02*
X130585714Y-104508628D01*
X130585714Y-104508628D02*
X130633333Y-104461009D01*
X130633333Y-104461009D02*
X130728571Y-104413390D01*
X94177438Y-74729819D02*
X94177438Y-73729819D01*
X93129820Y-74634580D02*
X93177439Y-74682200D01*
X93177439Y-74682200D02*
X93320296Y-74729819D01*
X93320296Y-74729819D02*
X93415534Y-74729819D01*
X93415534Y-74729819D02*
X93558391Y-74682200D01*
X93558391Y-74682200D02*
X93653629Y-74586961D01*
X93653629Y-74586961D02*
X93701248Y-74491723D01*
X93701248Y-74491723D02*
X93748867Y-74301247D01*
X93748867Y-74301247D02*
X93748867Y-74158390D01*
X93748867Y-74158390D02*
X93701248Y-73967914D01*
X93701248Y-73967914D02*
X93653629Y-73872676D01*
X93653629Y-73872676D02*
X93558391Y-73777438D01*
X93558391Y-73777438D02*
X93415534Y-73729819D01*
X93415534Y-73729819D02*
X93320296Y-73729819D01*
X93320296Y-73729819D02*
X93177439Y-73777438D01*
X93177439Y-73777438D02*
X93129820Y-73825057D01*
X92177439Y-74729819D02*
X92748867Y-74729819D01*
X92463153Y-74729819D02*
X92463153Y-73729819D01*
X92463153Y-73729819D02*
X92558391Y-73872676D01*
X92558391Y-73872676D02*
X92653629Y-73967914D01*
X92653629Y-73967914D02*
X92748867Y-74015533D01*
X91272677Y-73729819D02*
X91748867Y-73729819D01*
X91748867Y-73729819D02*
X91796486Y-74206009D01*
X91796486Y-74206009D02*
X91748867Y-74158390D01*
X91748867Y-74158390D02*
X91653629Y-74110771D01*
X91653629Y-74110771D02*
X91415534Y-74110771D01*
X91415534Y-74110771D02*
X91320296Y-74158390D01*
X91320296Y-74158390D02*
X91272677Y-74206009D01*
X91272677Y-74206009D02*
X91225058Y-74301247D01*
X91225058Y-74301247D02*
X91225058Y-74539342D01*
X91225058Y-74539342D02*
X91272677Y-74634580D01*
X91272677Y-74634580D02*
X91320296Y-74682200D01*
X91320296Y-74682200D02*
X91415534Y-74729819D01*
X91415534Y-74729819D02*
X91653629Y-74729819D01*
X91653629Y-74729819D02*
X91748867Y-74682200D01*
X91748867Y-74682200D02*
X91796486Y-74634580D01*
X90359580Y-94457142D02*
X90407200Y-94409523D01*
X90407200Y-94409523D02*
X90454819Y-94266666D01*
X90454819Y-94266666D02*
X90454819Y-94171428D01*
X90454819Y-94171428D02*
X90407200Y-94028571D01*
X90407200Y-94028571D02*
X90311961Y-93933333D01*
X90311961Y-93933333D02*
X90216723Y-93885714D01*
X90216723Y-93885714D02*
X90026247Y-93838095D01*
X90026247Y-93838095D02*
X89883390Y-93838095D01*
X89883390Y-93838095D02*
X89692914Y-93885714D01*
X89692914Y-93885714D02*
X89597676Y-93933333D01*
X89597676Y-93933333D02*
X89502438Y-94028571D01*
X89502438Y-94028571D02*
X89454819Y-94171428D01*
X89454819Y-94171428D02*
X89454819Y-94266666D01*
X89454819Y-94266666D02*
X89502438Y-94409523D01*
X89502438Y-94409523D02*
X89550057Y-94457142D01*
X89454819Y-94790476D02*
X89454819Y-95457142D01*
X89454819Y-95457142D02*
X90454819Y-95028571D01*
X90454819Y-96361904D02*
X90454819Y-95790476D01*
X90454819Y-96076190D02*
X89454819Y-96076190D01*
X89454819Y-96076190D02*
X89597676Y-95980952D01*
X89597676Y-95980952D02*
X89692914Y-95885714D01*
X89692914Y-95885714D02*
X89740533Y-95790476D01*
X132919047Y-88384819D02*
X133252380Y-87908628D01*
X133490475Y-88384819D02*
X133490475Y-87384819D01*
X133490475Y-87384819D02*
X133109523Y-87384819D01*
X133109523Y-87384819D02*
X133014285Y-87432438D01*
X133014285Y-87432438D02*
X132966666Y-87480057D01*
X132966666Y-87480057D02*
X132919047Y-87575295D01*
X132919047Y-87575295D02*
X132919047Y-87718152D01*
X132919047Y-87718152D02*
X132966666Y-87813390D01*
X132966666Y-87813390D02*
X133014285Y-87861009D01*
X133014285Y-87861009D02*
X133109523Y-87908628D01*
X133109523Y-87908628D02*
X133490475Y-87908628D01*
X131966666Y-88384819D02*
X132538094Y-88384819D01*
X132252380Y-88384819D02*
X132252380Y-87384819D01*
X132252380Y-87384819D02*
X132347618Y-87527676D01*
X132347618Y-87527676D02*
X132442856Y-87622914D01*
X132442856Y-87622914D02*
X132538094Y-87670533D01*
X131109523Y-87384819D02*
X131299999Y-87384819D01*
X131299999Y-87384819D02*
X131395237Y-87432438D01*
X131395237Y-87432438D02*
X131442856Y-87480057D01*
X131442856Y-87480057D02*
X131538094Y-87622914D01*
X131538094Y-87622914D02*
X131585713Y-87813390D01*
X131585713Y-87813390D02*
X131585713Y-88194342D01*
X131585713Y-88194342D02*
X131538094Y-88289580D01*
X131538094Y-88289580D02*
X131490475Y-88337200D01*
X131490475Y-88337200D02*
X131395237Y-88384819D01*
X131395237Y-88384819D02*
X131204761Y-88384819D01*
X131204761Y-88384819D02*
X131109523Y-88337200D01*
X131109523Y-88337200D02*
X131061904Y-88289580D01*
X131061904Y-88289580D02*
X131014285Y-88194342D01*
X131014285Y-88194342D02*
X131014285Y-87956247D01*
X131014285Y-87956247D02*
X131061904Y-87861009D01*
X131061904Y-87861009D02*
X131109523Y-87813390D01*
X131109523Y-87813390D02*
X131204761Y-87765771D01*
X131204761Y-87765771D02*
X131395237Y-87765771D01*
X131395237Y-87765771D02*
X131490475Y-87813390D01*
X131490475Y-87813390D02*
X131538094Y-87861009D01*
X131538094Y-87861009D02*
X131585713Y-87956247D01*
X130680951Y-87384819D02*
X130014285Y-87384819D01*
X130014285Y-87384819D02*
X130442856Y-88384819D01*
X162938094Y-107104819D02*
X162938094Y-107914342D01*
X162938094Y-107914342D02*
X162890475Y-108009580D01*
X162890475Y-108009580D02*
X162842856Y-108057200D01*
X162842856Y-108057200D02*
X162747618Y-108104819D01*
X162747618Y-108104819D02*
X162557142Y-108104819D01*
X162557142Y-108104819D02*
X162461904Y-108057200D01*
X162461904Y-108057200D02*
X162414285Y-108009580D01*
X162414285Y-108009580D02*
X162366666Y-107914342D01*
X162366666Y-107914342D02*
X162366666Y-107104819D01*
X161461904Y-107104819D02*
X161652380Y-107104819D01*
X161652380Y-107104819D02*
X161747618Y-107152438D01*
X161747618Y-107152438D02*
X161795237Y-107200057D01*
X161795237Y-107200057D02*
X161890475Y-107342914D01*
X161890475Y-107342914D02*
X161938094Y-107533390D01*
X161938094Y-107533390D02*
X161938094Y-107914342D01*
X161938094Y-107914342D02*
X161890475Y-108009580D01*
X161890475Y-108009580D02*
X161842856Y-108057200D01*
X161842856Y-108057200D02*
X161747618Y-108104819D01*
X161747618Y-108104819D02*
X161557142Y-108104819D01*
X161557142Y-108104819D02*
X161461904Y-108057200D01*
X161461904Y-108057200D02*
X161414285Y-108009580D01*
X161414285Y-108009580D02*
X161366666Y-107914342D01*
X161366666Y-107914342D02*
X161366666Y-107676247D01*
X161366666Y-107676247D02*
X161414285Y-107581009D01*
X161414285Y-107581009D02*
X161461904Y-107533390D01*
X161461904Y-107533390D02*
X161557142Y-107485771D01*
X161557142Y-107485771D02*
X161747618Y-107485771D01*
X161747618Y-107485771D02*
X161842856Y-107533390D01*
X161842856Y-107533390D02*
X161890475Y-107581009D01*
X161890475Y-107581009D02*
X161938094Y-107676247D01*
X161033332Y-107104819D02*
X160414285Y-107104819D01*
X160414285Y-107104819D02*
X160747618Y-107485771D01*
X160747618Y-107485771D02*
X160604761Y-107485771D01*
X160604761Y-107485771D02*
X160509523Y-107533390D01*
X160509523Y-107533390D02*
X160461904Y-107581009D01*
X160461904Y-107581009D02*
X160414285Y-107676247D01*
X160414285Y-107676247D02*
X160414285Y-107914342D01*
X160414285Y-107914342D02*
X160461904Y-108009580D01*
X160461904Y-108009580D02*
X160509523Y-108057200D01*
X160509523Y-108057200D02*
X160604761Y-108104819D01*
X160604761Y-108104819D02*
X160890475Y-108104819D01*
X160890475Y-108104819D02*
X160985713Y-108057200D01*
X160985713Y-108057200D02*
X161033332Y-108009580D01*
X132542857Y-63684819D02*
X132876190Y-63208628D01*
X133114285Y-63684819D02*
X133114285Y-62684819D01*
X133114285Y-62684819D02*
X132733333Y-62684819D01*
X132733333Y-62684819D02*
X132638095Y-62732438D01*
X132638095Y-62732438D02*
X132590476Y-62780057D01*
X132590476Y-62780057D02*
X132542857Y-62875295D01*
X132542857Y-62875295D02*
X132542857Y-63018152D01*
X132542857Y-63018152D02*
X132590476Y-63113390D01*
X132590476Y-63113390D02*
X132638095Y-63161009D01*
X132638095Y-63161009D02*
X132733333Y-63208628D01*
X132733333Y-63208628D02*
X133114285Y-63208628D01*
X131590476Y-63684819D02*
X132161904Y-63684819D01*
X131876190Y-63684819D02*
X131876190Y-62684819D01*
X131876190Y-62684819D02*
X131971428Y-62827676D01*
X131971428Y-62827676D02*
X132066666Y-62922914D01*
X132066666Y-62922914D02*
X132161904Y-62970533D01*
X131209523Y-62780057D02*
X131161904Y-62732438D01*
X131161904Y-62732438D02*
X131066666Y-62684819D01*
X131066666Y-62684819D02*
X130828571Y-62684819D01*
X130828571Y-62684819D02*
X130733333Y-62732438D01*
X130733333Y-62732438D02*
X130685714Y-62780057D01*
X130685714Y-62780057D02*
X130638095Y-62875295D01*
X130638095Y-62875295D02*
X130638095Y-62970533D01*
X130638095Y-62970533D02*
X130685714Y-63113390D01*
X130685714Y-63113390D02*
X131257142Y-63684819D01*
X131257142Y-63684819D02*
X130638095Y-63684819D01*
X132442857Y-109284819D02*
X132776190Y-108808628D01*
X133014285Y-109284819D02*
X133014285Y-108284819D01*
X133014285Y-108284819D02*
X132633333Y-108284819D01*
X132633333Y-108284819D02*
X132538095Y-108332438D01*
X132538095Y-108332438D02*
X132490476Y-108380057D01*
X132490476Y-108380057D02*
X132442857Y-108475295D01*
X132442857Y-108475295D02*
X132442857Y-108618152D01*
X132442857Y-108618152D02*
X132490476Y-108713390D01*
X132490476Y-108713390D02*
X132538095Y-108761009D01*
X132538095Y-108761009D02*
X132633333Y-108808628D01*
X132633333Y-108808628D02*
X133014285Y-108808628D01*
X131585714Y-108284819D02*
X131776190Y-108284819D01*
X131776190Y-108284819D02*
X131871428Y-108332438D01*
X131871428Y-108332438D02*
X131919047Y-108380057D01*
X131919047Y-108380057D02*
X132014285Y-108522914D01*
X132014285Y-108522914D02*
X132061904Y-108713390D01*
X132061904Y-108713390D02*
X132061904Y-109094342D01*
X132061904Y-109094342D02*
X132014285Y-109189580D01*
X132014285Y-109189580D02*
X131966666Y-109237200D01*
X131966666Y-109237200D02*
X131871428Y-109284819D01*
X131871428Y-109284819D02*
X131680952Y-109284819D01*
X131680952Y-109284819D02*
X131585714Y-109237200D01*
X131585714Y-109237200D02*
X131538095Y-109189580D01*
X131538095Y-109189580D02*
X131490476Y-109094342D01*
X131490476Y-109094342D02*
X131490476Y-108856247D01*
X131490476Y-108856247D02*
X131538095Y-108761009D01*
X131538095Y-108761009D02*
X131585714Y-108713390D01*
X131585714Y-108713390D02*
X131680952Y-108665771D01*
X131680952Y-108665771D02*
X131871428Y-108665771D01*
X131871428Y-108665771D02*
X131966666Y-108713390D01*
X131966666Y-108713390D02*
X132014285Y-108761009D01*
X132014285Y-108761009D02*
X132061904Y-108856247D01*
X131014285Y-109284819D02*
X130823809Y-109284819D01*
X130823809Y-109284819D02*
X130728571Y-109237200D01*
X130728571Y-109237200D02*
X130680952Y-109189580D01*
X130680952Y-109189580D02*
X130585714Y-109046723D01*
X130585714Y-109046723D02*
X130538095Y-108856247D01*
X130538095Y-108856247D02*
X130538095Y-108475295D01*
X130538095Y-108475295D02*
X130585714Y-108380057D01*
X130585714Y-108380057D02*
X130633333Y-108332438D01*
X130633333Y-108332438D02*
X130728571Y-108284819D01*
X130728571Y-108284819D02*
X130919047Y-108284819D01*
X130919047Y-108284819D02*
X131014285Y-108332438D01*
X131014285Y-108332438D02*
X131061904Y-108380057D01*
X131061904Y-108380057D02*
X131109523Y-108475295D01*
X131109523Y-108475295D02*
X131109523Y-108713390D01*
X131109523Y-108713390D02*
X131061904Y-108808628D01*
X131061904Y-108808628D02*
X131014285Y-108856247D01*
X131014285Y-108856247D02*
X130919047Y-108903866D01*
X130919047Y-108903866D02*
X130728571Y-108903866D01*
X130728571Y-108903866D02*
X130633333Y-108856247D01*
X130633333Y-108856247D02*
X130585714Y-108808628D01*
X130585714Y-108808628D02*
X130538095Y-108713390D01*
X83559047Y-112144819D02*
X83892380Y-111668628D01*
X84130475Y-112144819D02*
X84130475Y-111144819D01*
X84130475Y-111144819D02*
X83749523Y-111144819D01*
X83749523Y-111144819D02*
X83654285Y-111192438D01*
X83654285Y-111192438D02*
X83606666Y-111240057D01*
X83606666Y-111240057D02*
X83559047Y-111335295D01*
X83559047Y-111335295D02*
X83559047Y-111478152D01*
X83559047Y-111478152D02*
X83606666Y-111573390D01*
X83606666Y-111573390D02*
X83654285Y-111621009D01*
X83654285Y-111621009D02*
X83749523Y-111668628D01*
X83749523Y-111668628D02*
X84130475Y-111668628D01*
X83178094Y-111240057D02*
X83130475Y-111192438D01*
X83130475Y-111192438D02*
X83035237Y-111144819D01*
X83035237Y-111144819D02*
X82797142Y-111144819D01*
X82797142Y-111144819D02*
X82701904Y-111192438D01*
X82701904Y-111192438D02*
X82654285Y-111240057D01*
X82654285Y-111240057D02*
X82606666Y-111335295D01*
X82606666Y-111335295D02*
X82606666Y-111430533D01*
X82606666Y-111430533D02*
X82654285Y-111573390D01*
X82654285Y-111573390D02*
X83225713Y-112144819D01*
X83225713Y-112144819D02*
X82606666Y-112144819D01*
X81987618Y-111144819D02*
X81892380Y-111144819D01*
X81892380Y-111144819D02*
X81797142Y-111192438D01*
X81797142Y-111192438D02*
X81749523Y-111240057D01*
X81749523Y-111240057D02*
X81701904Y-111335295D01*
X81701904Y-111335295D02*
X81654285Y-111525771D01*
X81654285Y-111525771D02*
X81654285Y-111763866D01*
X81654285Y-111763866D02*
X81701904Y-111954342D01*
X81701904Y-111954342D02*
X81749523Y-112049580D01*
X81749523Y-112049580D02*
X81797142Y-112097200D01*
X81797142Y-112097200D02*
X81892380Y-112144819D01*
X81892380Y-112144819D02*
X81987618Y-112144819D01*
X81987618Y-112144819D02*
X82082856Y-112097200D01*
X82082856Y-112097200D02*
X82130475Y-112049580D01*
X82130475Y-112049580D02*
X82178094Y-111954342D01*
X82178094Y-111954342D02*
X82225713Y-111763866D01*
X82225713Y-111763866D02*
X82225713Y-111525771D01*
X82225713Y-111525771D02*
X82178094Y-111335295D01*
X82178094Y-111335295D02*
X82130475Y-111240057D01*
X82130475Y-111240057D02*
X82082856Y-111192438D01*
X82082856Y-111192438D02*
X81987618Y-111144819D01*
X81273332Y-111240057D02*
X81225713Y-111192438D01*
X81225713Y-111192438D02*
X81130475Y-111144819D01*
X81130475Y-111144819D02*
X80892380Y-111144819D01*
X80892380Y-111144819D02*
X80797142Y-111192438D01*
X80797142Y-111192438D02*
X80749523Y-111240057D01*
X80749523Y-111240057D02*
X80701904Y-111335295D01*
X80701904Y-111335295D02*
X80701904Y-111430533D01*
X80701904Y-111430533D02*
X80749523Y-111573390D01*
X80749523Y-111573390D02*
X81320951Y-112144819D01*
X81320951Y-112144819D02*
X80701904Y-112144819D01*
X97302380Y-97136111D02*
X97302380Y-96136111D01*
X96254762Y-97040872D02*
X96302381Y-97088492D01*
X96302381Y-97088492D02*
X96445238Y-97136111D01*
X96445238Y-97136111D02*
X96540476Y-97136111D01*
X96540476Y-97136111D02*
X96683333Y-97088492D01*
X96683333Y-97088492D02*
X96778571Y-96993253D01*
X96778571Y-96993253D02*
X96826190Y-96898015D01*
X96826190Y-96898015D02*
X96873809Y-96707539D01*
X96873809Y-96707539D02*
X96873809Y-96564682D01*
X96873809Y-96564682D02*
X96826190Y-96374206D01*
X96826190Y-96374206D02*
X96778571Y-96278968D01*
X96778571Y-96278968D02*
X96683333Y-96183730D01*
X96683333Y-96183730D02*
X96540476Y-96136111D01*
X96540476Y-96136111D02*
X96445238Y-96136111D01*
X96445238Y-96136111D02*
X96302381Y-96183730D01*
X96302381Y-96183730D02*
X96254762Y-96231349D01*
X95302381Y-97136111D02*
X95873809Y-97136111D01*
X95588095Y-97136111D02*
X95588095Y-96136111D01*
X95588095Y-96136111D02*
X95683333Y-96278968D01*
X95683333Y-96278968D02*
X95778571Y-96374206D01*
X95778571Y-96374206D02*
X95873809Y-96421825D01*
X94730952Y-96564682D02*
X94826190Y-96517063D01*
X94826190Y-96517063D02*
X94873809Y-96469444D01*
X94873809Y-96469444D02*
X94921428Y-96374206D01*
X94921428Y-96374206D02*
X94921428Y-96326587D01*
X94921428Y-96326587D02*
X94873809Y-96231349D01*
X94873809Y-96231349D02*
X94826190Y-96183730D01*
X94826190Y-96183730D02*
X94730952Y-96136111D01*
X94730952Y-96136111D02*
X94540476Y-96136111D01*
X94540476Y-96136111D02*
X94445238Y-96183730D01*
X94445238Y-96183730D02*
X94397619Y-96231349D01*
X94397619Y-96231349D02*
X94350000Y-96326587D01*
X94350000Y-96326587D02*
X94350000Y-96374206D01*
X94350000Y-96374206D02*
X94397619Y-96469444D01*
X94397619Y-96469444D02*
X94445238Y-96517063D01*
X94445238Y-96517063D02*
X94540476Y-96564682D01*
X94540476Y-96564682D02*
X94730952Y-96564682D01*
X94730952Y-96564682D02*
X94826190Y-96612301D01*
X94826190Y-96612301D02*
X94873809Y-96659920D01*
X94873809Y-96659920D02*
X94921428Y-96755158D01*
X94921428Y-96755158D02*
X94921428Y-96945634D01*
X94921428Y-96945634D02*
X94873809Y-97040872D01*
X94873809Y-97040872D02*
X94826190Y-97088492D01*
X94826190Y-97088492D02*
X94730952Y-97136111D01*
X94730952Y-97136111D02*
X94540476Y-97136111D01*
X94540476Y-97136111D02*
X94445238Y-97088492D01*
X94445238Y-97088492D02*
X94397619Y-97040872D01*
X94397619Y-97040872D02*
X94350000Y-96945634D01*
X94350000Y-96945634D02*
X94350000Y-96755158D01*
X94350000Y-96755158D02*
X94397619Y-96659920D01*
X94397619Y-96659920D02*
X94445238Y-96612301D01*
X94445238Y-96612301D02*
X94540476Y-96564682D01*
X144742857Y-129559580D02*
X144790476Y-129607200D01*
X144790476Y-129607200D02*
X144933333Y-129654819D01*
X144933333Y-129654819D02*
X145028571Y-129654819D01*
X145028571Y-129654819D02*
X145171428Y-129607200D01*
X145171428Y-129607200D02*
X145266666Y-129511961D01*
X145266666Y-129511961D02*
X145314285Y-129416723D01*
X145314285Y-129416723D02*
X145361904Y-129226247D01*
X145361904Y-129226247D02*
X145361904Y-129083390D01*
X145361904Y-129083390D02*
X145314285Y-128892914D01*
X145314285Y-128892914D02*
X145266666Y-128797676D01*
X145266666Y-128797676D02*
X145171428Y-128702438D01*
X145171428Y-128702438D02*
X145028571Y-128654819D01*
X145028571Y-128654819D02*
X144933333Y-128654819D01*
X144933333Y-128654819D02*
X144790476Y-128702438D01*
X144790476Y-128702438D02*
X144742857Y-128750057D01*
X143838095Y-128654819D02*
X144314285Y-128654819D01*
X144314285Y-128654819D02*
X144361904Y-129131009D01*
X144361904Y-129131009D02*
X144314285Y-129083390D01*
X144314285Y-129083390D02*
X144219047Y-129035771D01*
X144219047Y-129035771D02*
X143980952Y-129035771D01*
X143980952Y-129035771D02*
X143885714Y-129083390D01*
X143885714Y-129083390D02*
X143838095Y-129131009D01*
X143838095Y-129131009D02*
X143790476Y-129226247D01*
X143790476Y-129226247D02*
X143790476Y-129464342D01*
X143790476Y-129464342D02*
X143838095Y-129559580D01*
X143838095Y-129559580D02*
X143885714Y-129607200D01*
X143885714Y-129607200D02*
X143980952Y-129654819D01*
X143980952Y-129654819D02*
X144219047Y-129654819D01*
X144219047Y-129654819D02*
X144314285Y-129607200D01*
X144314285Y-129607200D02*
X144361904Y-129559580D01*
X143171428Y-128654819D02*
X143076190Y-128654819D01*
X143076190Y-128654819D02*
X142980952Y-128702438D01*
X142980952Y-128702438D02*
X142933333Y-128750057D01*
X142933333Y-128750057D02*
X142885714Y-128845295D01*
X142885714Y-128845295D02*
X142838095Y-129035771D01*
X142838095Y-129035771D02*
X142838095Y-129273866D01*
X142838095Y-129273866D02*
X142885714Y-129464342D01*
X142885714Y-129464342D02*
X142933333Y-129559580D01*
X142933333Y-129559580D02*
X142980952Y-129607200D01*
X142980952Y-129607200D02*
X143076190Y-129654819D01*
X143076190Y-129654819D02*
X143171428Y-129654819D01*
X143171428Y-129654819D02*
X143266666Y-129607200D01*
X143266666Y-129607200D02*
X143314285Y-129559580D01*
X143314285Y-129559580D02*
X143361904Y-129464342D01*
X143361904Y-129464342D02*
X143409523Y-129273866D01*
X143409523Y-129273866D02*
X143409523Y-129035771D01*
X143409523Y-129035771D02*
X143361904Y-128845295D01*
X143361904Y-128845295D02*
X143314285Y-128750057D01*
X143314285Y-128750057D02*
X143266666Y-128702438D01*
X143266666Y-128702438D02*
X143171428Y-128654819D01*
X164783333Y-61581009D02*
X165116666Y-61581009D01*
X165116666Y-62104819D02*
X165116666Y-61104819D01*
X165116666Y-61104819D02*
X164640476Y-61104819D01*
X163926190Y-61581009D02*
X163783333Y-61628628D01*
X163783333Y-61628628D02*
X163735714Y-61676247D01*
X163735714Y-61676247D02*
X163688095Y-61771485D01*
X163688095Y-61771485D02*
X163688095Y-61914342D01*
X163688095Y-61914342D02*
X163735714Y-62009580D01*
X163735714Y-62009580D02*
X163783333Y-62057200D01*
X163783333Y-62057200D02*
X163878571Y-62104819D01*
X163878571Y-62104819D02*
X164259523Y-62104819D01*
X164259523Y-62104819D02*
X164259523Y-61104819D01*
X164259523Y-61104819D02*
X163926190Y-61104819D01*
X163926190Y-61104819D02*
X163830952Y-61152438D01*
X163830952Y-61152438D02*
X163783333Y-61200057D01*
X163783333Y-61200057D02*
X163735714Y-61295295D01*
X163735714Y-61295295D02*
X163735714Y-61390533D01*
X163735714Y-61390533D02*
X163783333Y-61485771D01*
X163783333Y-61485771D02*
X163830952Y-61533390D01*
X163830952Y-61533390D02*
X163926190Y-61581009D01*
X163926190Y-61581009D02*
X164259523Y-61581009D01*
X163354761Y-61104819D02*
X162735714Y-61104819D01*
X162735714Y-61104819D02*
X163069047Y-61485771D01*
X163069047Y-61485771D02*
X162926190Y-61485771D01*
X162926190Y-61485771D02*
X162830952Y-61533390D01*
X162830952Y-61533390D02*
X162783333Y-61581009D01*
X162783333Y-61581009D02*
X162735714Y-61676247D01*
X162735714Y-61676247D02*
X162735714Y-61914342D01*
X162735714Y-61914342D02*
X162783333Y-62009580D01*
X162783333Y-62009580D02*
X162830952Y-62057200D01*
X162830952Y-62057200D02*
X162926190Y-62104819D01*
X162926190Y-62104819D02*
X163211904Y-62104819D01*
X163211904Y-62104819D02*
X163307142Y-62057200D01*
X163307142Y-62057200D02*
X163354761Y-62009580D01*
X90379580Y-73977142D02*
X90427200Y-73929523D01*
X90427200Y-73929523D02*
X90474819Y-73786666D01*
X90474819Y-73786666D02*
X90474819Y-73691428D01*
X90474819Y-73691428D02*
X90427200Y-73548571D01*
X90427200Y-73548571D02*
X90331961Y-73453333D01*
X90331961Y-73453333D02*
X90236723Y-73405714D01*
X90236723Y-73405714D02*
X90046247Y-73358095D01*
X90046247Y-73358095D02*
X89903390Y-73358095D01*
X89903390Y-73358095D02*
X89712914Y-73405714D01*
X89712914Y-73405714D02*
X89617676Y-73453333D01*
X89617676Y-73453333D02*
X89522438Y-73548571D01*
X89522438Y-73548571D02*
X89474819Y-73691428D01*
X89474819Y-73691428D02*
X89474819Y-73786666D01*
X89474819Y-73786666D02*
X89522438Y-73929523D01*
X89522438Y-73929523D02*
X89570057Y-73977142D01*
X89474819Y-74834285D02*
X89474819Y-74643809D01*
X89474819Y-74643809D02*
X89522438Y-74548571D01*
X89522438Y-74548571D02*
X89570057Y-74500952D01*
X89570057Y-74500952D02*
X89712914Y-74405714D01*
X89712914Y-74405714D02*
X89903390Y-74358095D01*
X89903390Y-74358095D02*
X90284342Y-74358095D01*
X90284342Y-74358095D02*
X90379580Y-74405714D01*
X90379580Y-74405714D02*
X90427200Y-74453333D01*
X90427200Y-74453333D02*
X90474819Y-74548571D01*
X90474819Y-74548571D02*
X90474819Y-74739047D01*
X90474819Y-74739047D02*
X90427200Y-74834285D01*
X90427200Y-74834285D02*
X90379580Y-74881904D01*
X90379580Y-74881904D02*
X90284342Y-74929523D01*
X90284342Y-74929523D02*
X90046247Y-74929523D01*
X90046247Y-74929523D02*
X89951009Y-74881904D01*
X89951009Y-74881904D02*
X89903390Y-74834285D01*
X89903390Y-74834285D02*
X89855771Y-74739047D01*
X89855771Y-74739047D02*
X89855771Y-74548571D01*
X89855771Y-74548571D02*
X89903390Y-74453333D01*
X89903390Y-74453333D02*
X89951009Y-74405714D01*
X89951009Y-74405714D02*
X90046247Y-74358095D01*
X89808152Y-75786666D02*
X90474819Y-75786666D01*
X89427200Y-75548571D02*
X90141485Y-75310476D01*
X90141485Y-75310476D02*
X90141485Y-75929523D01*
X132919047Y-92684819D02*
X133252380Y-92208628D01*
X133490475Y-92684819D02*
X133490475Y-91684819D01*
X133490475Y-91684819D02*
X133109523Y-91684819D01*
X133109523Y-91684819D02*
X133014285Y-91732438D01*
X133014285Y-91732438D02*
X132966666Y-91780057D01*
X132966666Y-91780057D02*
X132919047Y-91875295D01*
X132919047Y-91875295D02*
X132919047Y-92018152D01*
X132919047Y-92018152D02*
X132966666Y-92113390D01*
X132966666Y-92113390D02*
X133014285Y-92161009D01*
X133014285Y-92161009D02*
X133109523Y-92208628D01*
X133109523Y-92208628D02*
X133490475Y-92208628D01*
X131966666Y-92684819D02*
X132538094Y-92684819D01*
X132252380Y-92684819D02*
X132252380Y-91684819D01*
X132252380Y-91684819D02*
X132347618Y-91827676D01*
X132347618Y-91827676D02*
X132442856Y-91922914D01*
X132442856Y-91922914D02*
X132538094Y-91970533D01*
X131395237Y-92113390D02*
X131490475Y-92065771D01*
X131490475Y-92065771D02*
X131538094Y-92018152D01*
X131538094Y-92018152D02*
X131585713Y-91922914D01*
X131585713Y-91922914D02*
X131585713Y-91875295D01*
X131585713Y-91875295D02*
X131538094Y-91780057D01*
X131538094Y-91780057D02*
X131490475Y-91732438D01*
X131490475Y-91732438D02*
X131395237Y-91684819D01*
X131395237Y-91684819D02*
X131204761Y-91684819D01*
X131204761Y-91684819D02*
X131109523Y-91732438D01*
X131109523Y-91732438D02*
X131061904Y-91780057D01*
X131061904Y-91780057D02*
X131014285Y-91875295D01*
X131014285Y-91875295D02*
X131014285Y-91922914D01*
X131014285Y-91922914D02*
X131061904Y-92018152D01*
X131061904Y-92018152D02*
X131109523Y-92065771D01*
X131109523Y-92065771D02*
X131204761Y-92113390D01*
X131204761Y-92113390D02*
X131395237Y-92113390D01*
X131395237Y-92113390D02*
X131490475Y-92161009D01*
X131490475Y-92161009D02*
X131538094Y-92208628D01*
X131538094Y-92208628D02*
X131585713Y-92303866D01*
X131585713Y-92303866D02*
X131585713Y-92494342D01*
X131585713Y-92494342D02*
X131538094Y-92589580D01*
X131538094Y-92589580D02*
X131490475Y-92637200D01*
X131490475Y-92637200D02*
X131395237Y-92684819D01*
X131395237Y-92684819D02*
X131204761Y-92684819D01*
X131204761Y-92684819D02*
X131109523Y-92637200D01*
X131109523Y-92637200D02*
X131061904Y-92589580D01*
X131061904Y-92589580D02*
X131014285Y-92494342D01*
X131014285Y-92494342D02*
X131014285Y-92303866D01*
X131014285Y-92303866D02*
X131061904Y-92208628D01*
X131061904Y-92208628D02*
X131109523Y-92161009D01*
X131109523Y-92161009D02*
X131204761Y-92113390D01*
X130633332Y-91780057D02*
X130585713Y-91732438D01*
X130585713Y-91732438D02*
X130490475Y-91684819D01*
X130490475Y-91684819D02*
X130252380Y-91684819D01*
X130252380Y-91684819D02*
X130157142Y-91732438D01*
X130157142Y-91732438D02*
X130109523Y-91780057D01*
X130109523Y-91780057D02*
X130061904Y-91875295D01*
X130061904Y-91875295D02*
X130061904Y-91970533D01*
X130061904Y-91970533D02*
X130109523Y-92113390D01*
X130109523Y-92113390D02*
X130680951Y-92684819D01*
X130680951Y-92684819D02*
X130061904Y-92684819D01*
X87014285Y-137084819D02*
X87014285Y-136084819D01*
X87014285Y-136084819D02*
X86776190Y-136084819D01*
X86776190Y-136084819D02*
X86633333Y-136132438D01*
X86633333Y-136132438D02*
X86538095Y-136227676D01*
X86538095Y-136227676D02*
X86490476Y-136322914D01*
X86490476Y-136322914D02*
X86442857Y-136513390D01*
X86442857Y-136513390D02*
X86442857Y-136656247D01*
X86442857Y-136656247D02*
X86490476Y-136846723D01*
X86490476Y-136846723D02*
X86538095Y-136941961D01*
X86538095Y-136941961D02*
X86633333Y-137037200D01*
X86633333Y-137037200D02*
X86776190Y-137084819D01*
X86776190Y-137084819D02*
X87014285Y-137084819D01*
X85490476Y-137084819D02*
X86061904Y-137084819D01*
X85776190Y-137084819D02*
X85776190Y-136084819D01*
X85776190Y-136084819D02*
X85871428Y-136227676D01*
X85871428Y-136227676D02*
X85966666Y-136322914D01*
X85966666Y-136322914D02*
X86061904Y-136370533D01*
X85157142Y-136084819D02*
X84490476Y-136084819D01*
X84490476Y-136084819D02*
X84919047Y-137084819D01*
X86329047Y-90934819D02*
X86662380Y-90458628D01*
X86900475Y-90934819D02*
X86900475Y-89934819D01*
X86900475Y-89934819D02*
X86519523Y-89934819D01*
X86519523Y-89934819D02*
X86424285Y-89982438D01*
X86424285Y-89982438D02*
X86376666Y-90030057D01*
X86376666Y-90030057D02*
X86329047Y-90125295D01*
X86329047Y-90125295D02*
X86329047Y-90268152D01*
X86329047Y-90268152D02*
X86376666Y-90363390D01*
X86376666Y-90363390D02*
X86424285Y-90411009D01*
X86424285Y-90411009D02*
X86519523Y-90458628D01*
X86519523Y-90458628D02*
X86900475Y-90458628D01*
X85948094Y-90030057D02*
X85900475Y-89982438D01*
X85900475Y-89982438D02*
X85805237Y-89934819D01*
X85805237Y-89934819D02*
X85567142Y-89934819D01*
X85567142Y-89934819D02*
X85471904Y-89982438D01*
X85471904Y-89982438D02*
X85424285Y-90030057D01*
X85424285Y-90030057D02*
X85376666Y-90125295D01*
X85376666Y-90125295D02*
X85376666Y-90220533D01*
X85376666Y-90220533D02*
X85424285Y-90363390D01*
X85424285Y-90363390D02*
X85995713Y-90934819D01*
X85995713Y-90934819D02*
X85376666Y-90934819D01*
X84757618Y-89934819D02*
X84662380Y-89934819D01*
X84662380Y-89934819D02*
X84567142Y-89982438D01*
X84567142Y-89982438D02*
X84519523Y-90030057D01*
X84519523Y-90030057D02*
X84471904Y-90125295D01*
X84471904Y-90125295D02*
X84424285Y-90315771D01*
X84424285Y-90315771D02*
X84424285Y-90553866D01*
X84424285Y-90553866D02*
X84471904Y-90744342D01*
X84471904Y-90744342D02*
X84519523Y-90839580D01*
X84519523Y-90839580D02*
X84567142Y-90887200D01*
X84567142Y-90887200D02*
X84662380Y-90934819D01*
X84662380Y-90934819D02*
X84757618Y-90934819D01*
X84757618Y-90934819D02*
X84852856Y-90887200D01*
X84852856Y-90887200D02*
X84900475Y-90839580D01*
X84900475Y-90839580D02*
X84948094Y-90744342D01*
X84948094Y-90744342D02*
X84995713Y-90553866D01*
X84995713Y-90553866D02*
X84995713Y-90315771D01*
X84995713Y-90315771D02*
X84948094Y-90125295D01*
X84948094Y-90125295D02*
X84900475Y-90030057D01*
X84900475Y-90030057D02*
X84852856Y-89982438D01*
X84852856Y-89982438D02*
X84757618Y-89934819D01*
X83567142Y-90268152D02*
X83567142Y-90934819D01*
X83805237Y-89887200D02*
X84043332Y-90601485D01*
X84043332Y-90601485D02*
X83424285Y-90601485D01*
X132442857Y-67984819D02*
X132776190Y-67508628D01*
X133014285Y-67984819D02*
X133014285Y-66984819D01*
X133014285Y-66984819D02*
X132633333Y-66984819D01*
X132633333Y-66984819D02*
X132538095Y-67032438D01*
X132538095Y-67032438D02*
X132490476Y-67080057D01*
X132490476Y-67080057D02*
X132442857Y-67175295D01*
X132442857Y-67175295D02*
X132442857Y-67318152D01*
X132442857Y-67318152D02*
X132490476Y-67413390D01*
X132490476Y-67413390D02*
X132538095Y-67461009D01*
X132538095Y-67461009D02*
X132633333Y-67508628D01*
X132633333Y-67508628D02*
X133014285Y-67508628D01*
X132109523Y-66984819D02*
X131490476Y-66984819D01*
X131490476Y-66984819D02*
X131823809Y-67365771D01*
X131823809Y-67365771D02*
X131680952Y-67365771D01*
X131680952Y-67365771D02*
X131585714Y-67413390D01*
X131585714Y-67413390D02*
X131538095Y-67461009D01*
X131538095Y-67461009D02*
X131490476Y-67556247D01*
X131490476Y-67556247D02*
X131490476Y-67794342D01*
X131490476Y-67794342D02*
X131538095Y-67889580D01*
X131538095Y-67889580D02*
X131585714Y-67937200D01*
X131585714Y-67937200D02*
X131680952Y-67984819D01*
X131680952Y-67984819D02*
X131966666Y-67984819D01*
X131966666Y-67984819D02*
X132061904Y-67937200D01*
X132061904Y-67937200D02*
X132109523Y-67889580D01*
X130538095Y-67984819D02*
X131109523Y-67984819D01*
X130823809Y-67984819D02*
X130823809Y-66984819D01*
X130823809Y-66984819D02*
X130919047Y-67127676D01*
X130919047Y-67127676D02*
X131014285Y-67222914D01*
X131014285Y-67222914D02*
X131109523Y-67270533D01*
X86284285Y-92634819D02*
X86284285Y-91634819D01*
X86284285Y-91634819D02*
X86046190Y-91634819D01*
X86046190Y-91634819D02*
X85903333Y-91682438D01*
X85903333Y-91682438D02*
X85808095Y-91777676D01*
X85808095Y-91777676D02*
X85760476Y-91872914D01*
X85760476Y-91872914D02*
X85712857Y-92063390D01*
X85712857Y-92063390D02*
X85712857Y-92206247D01*
X85712857Y-92206247D02*
X85760476Y-92396723D01*
X85760476Y-92396723D02*
X85808095Y-92491961D01*
X85808095Y-92491961D02*
X85903333Y-92587200D01*
X85903333Y-92587200D02*
X86046190Y-92634819D01*
X86046190Y-92634819D02*
X86284285Y-92634819D01*
X84760476Y-92634819D02*
X85331904Y-92634819D01*
X85046190Y-92634819D02*
X85046190Y-91634819D01*
X85046190Y-91634819D02*
X85141428Y-91777676D01*
X85141428Y-91777676D02*
X85236666Y-91872914D01*
X85236666Y-91872914D02*
X85331904Y-91920533D01*
X84189047Y-92063390D02*
X84284285Y-92015771D01*
X84284285Y-92015771D02*
X84331904Y-91968152D01*
X84331904Y-91968152D02*
X84379523Y-91872914D01*
X84379523Y-91872914D02*
X84379523Y-91825295D01*
X84379523Y-91825295D02*
X84331904Y-91730057D01*
X84331904Y-91730057D02*
X84284285Y-91682438D01*
X84284285Y-91682438D02*
X84189047Y-91634819D01*
X84189047Y-91634819D02*
X83998571Y-91634819D01*
X83998571Y-91634819D02*
X83903333Y-91682438D01*
X83903333Y-91682438D02*
X83855714Y-91730057D01*
X83855714Y-91730057D02*
X83808095Y-91825295D01*
X83808095Y-91825295D02*
X83808095Y-91872914D01*
X83808095Y-91872914D02*
X83855714Y-91968152D01*
X83855714Y-91968152D02*
X83903333Y-92015771D01*
X83903333Y-92015771D02*
X83998571Y-92063390D01*
X83998571Y-92063390D02*
X84189047Y-92063390D01*
X84189047Y-92063390D02*
X84284285Y-92111009D01*
X84284285Y-92111009D02*
X84331904Y-92158628D01*
X84331904Y-92158628D02*
X84379523Y-92253866D01*
X84379523Y-92253866D02*
X84379523Y-92444342D01*
X84379523Y-92444342D02*
X84331904Y-92539580D01*
X84331904Y-92539580D02*
X84284285Y-92587200D01*
X84284285Y-92587200D02*
X84189047Y-92634819D01*
X84189047Y-92634819D02*
X83998571Y-92634819D01*
X83998571Y-92634819D02*
X83903333Y-92587200D01*
X83903333Y-92587200D02*
X83855714Y-92539580D01*
X83855714Y-92539580D02*
X83808095Y-92444342D01*
X83808095Y-92444342D02*
X83808095Y-92253866D01*
X83808095Y-92253866D02*
X83855714Y-92158628D01*
X83855714Y-92158628D02*
X83903333Y-92111009D01*
X83903333Y-92111009D02*
X83998571Y-92063390D01*
X144542857Y-84659580D02*
X144590476Y-84707200D01*
X144590476Y-84707200D02*
X144733333Y-84754819D01*
X144733333Y-84754819D02*
X144828571Y-84754819D01*
X144828571Y-84754819D02*
X144971428Y-84707200D01*
X144971428Y-84707200D02*
X145066666Y-84611961D01*
X145066666Y-84611961D02*
X145114285Y-84516723D01*
X145114285Y-84516723D02*
X145161904Y-84326247D01*
X145161904Y-84326247D02*
X145161904Y-84183390D01*
X145161904Y-84183390D02*
X145114285Y-83992914D01*
X145114285Y-83992914D02*
X145066666Y-83897676D01*
X145066666Y-83897676D02*
X144971428Y-83802438D01*
X144971428Y-83802438D02*
X144828571Y-83754819D01*
X144828571Y-83754819D02*
X144733333Y-83754819D01*
X144733333Y-83754819D02*
X144590476Y-83802438D01*
X144590476Y-83802438D02*
X144542857Y-83850057D01*
X144161904Y-83850057D02*
X144114285Y-83802438D01*
X144114285Y-83802438D02*
X144019047Y-83754819D01*
X144019047Y-83754819D02*
X143780952Y-83754819D01*
X143780952Y-83754819D02*
X143685714Y-83802438D01*
X143685714Y-83802438D02*
X143638095Y-83850057D01*
X143638095Y-83850057D02*
X143590476Y-83945295D01*
X143590476Y-83945295D02*
X143590476Y-84040533D01*
X143590476Y-84040533D02*
X143638095Y-84183390D01*
X143638095Y-84183390D02*
X144209523Y-84754819D01*
X144209523Y-84754819D02*
X143590476Y-84754819D01*
X142971428Y-83754819D02*
X142876190Y-83754819D01*
X142876190Y-83754819D02*
X142780952Y-83802438D01*
X142780952Y-83802438D02*
X142733333Y-83850057D01*
X142733333Y-83850057D02*
X142685714Y-83945295D01*
X142685714Y-83945295D02*
X142638095Y-84135771D01*
X142638095Y-84135771D02*
X142638095Y-84373866D01*
X142638095Y-84373866D02*
X142685714Y-84564342D01*
X142685714Y-84564342D02*
X142733333Y-84659580D01*
X142733333Y-84659580D02*
X142780952Y-84707200D01*
X142780952Y-84707200D02*
X142876190Y-84754819D01*
X142876190Y-84754819D02*
X142971428Y-84754819D01*
X142971428Y-84754819D02*
X143066666Y-84707200D01*
X143066666Y-84707200D02*
X143114285Y-84659580D01*
X143114285Y-84659580D02*
X143161904Y-84564342D01*
X143161904Y-84564342D02*
X143209523Y-84373866D01*
X143209523Y-84373866D02*
X143209523Y-84135771D01*
X143209523Y-84135771D02*
X143161904Y-83945295D01*
X143161904Y-83945295D02*
X143114285Y-83850057D01*
X143114285Y-83850057D02*
X143066666Y-83802438D01*
X143066666Y-83802438D02*
X142971428Y-83754819D01*
X90419580Y-117797142D02*
X90467200Y-117749523D01*
X90467200Y-117749523D02*
X90514819Y-117606666D01*
X90514819Y-117606666D02*
X90514819Y-117511428D01*
X90514819Y-117511428D02*
X90467200Y-117368571D01*
X90467200Y-117368571D02*
X90371961Y-117273333D01*
X90371961Y-117273333D02*
X90276723Y-117225714D01*
X90276723Y-117225714D02*
X90086247Y-117178095D01*
X90086247Y-117178095D02*
X89943390Y-117178095D01*
X89943390Y-117178095D02*
X89752914Y-117225714D01*
X89752914Y-117225714D02*
X89657676Y-117273333D01*
X89657676Y-117273333D02*
X89562438Y-117368571D01*
X89562438Y-117368571D02*
X89514819Y-117511428D01*
X89514819Y-117511428D02*
X89514819Y-117606666D01*
X89514819Y-117606666D02*
X89562438Y-117749523D01*
X89562438Y-117749523D02*
X89610057Y-117797142D01*
X89514819Y-118654285D02*
X89514819Y-118463809D01*
X89514819Y-118463809D02*
X89562438Y-118368571D01*
X89562438Y-118368571D02*
X89610057Y-118320952D01*
X89610057Y-118320952D02*
X89752914Y-118225714D01*
X89752914Y-118225714D02*
X89943390Y-118178095D01*
X89943390Y-118178095D02*
X90324342Y-118178095D01*
X90324342Y-118178095D02*
X90419580Y-118225714D01*
X90419580Y-118225714D02*
X90467200Y-118273333D01*
X90467200Y-118273333D02*
X90514819Y-118368571D01*
X90514819Y-118368571D02*
X90514819Y-118559047D01*
X90514819Y-118559047D02*
X90467200Y-118654285D01*
X90467200Y-118654285D02*
X90419580Y-118701904D01*
X90419580Y-118701904D02*
X90324342Y-118749523D01*
X90324342Y-118749523D02*
X90086247Y-118749523D01*
X90086247Y-118749523D02*
X89991009Y-118701904D01*
X89991009Y-118701904D02*
X89943390Y-118654285D01*
X89943390Y-118654285D02*
X89895771Y-118559047D01*
X89895771Y-118559047D02*
X89895771Y-118368571D01*
X89895771Y-118368571D02*
X89943390Y-118273333D01*
X89943390Y-118273333D02*
X89991009Y-118225714D01*
X89991009Y-118225714D02*
X90086247Y-118178095D01*
X89514819Y-119606666D02*
X89514819Y-119416190D01*
X89514819Y-119416190D02*
X89562438Y-119320952D01*
X89562438Y-119320952D02*
X89610057Y-119273333D01*
X89610057Y-119273333D02*
X89752914Y-119178095D01*
X89752914Y-119178095D02*
X89943390Y-119130476D01*
X89943390Y-119130476D02*
X90324342Y-119130476D01*
X90324342Y-119130476D02*
X90419580Y-119178095D01*
X90419580Y-119178095D02*
X90467200Y-119225714D01*
X90467200Y-119225714D02*
X90514819Y-119320952D01*
X90514819Y-119320952D02*
X90514819Y-119511428D01*
X90514819Y-119511428D02*
X90467200Y-119606666D01*
X90467200Y-119606666D02*
X90419580Y-119654285D01*
X90419580Y-119654285D02*
X90324342Y-119701904D01*
X90324342Y-119701904D02*
X90086247Y-119701904D01*
X90086247Y-119701904D02*
X89991009Y-119654285D01*
X89991009Y-119654285D02*
X89943390Y-119606666D01*
X89943390Y-119606666D02*
X89895771Y-119511428D01*
X89895771Y-119511428D02*
X89895771Y-119320952D01*
X89895771Y-119320952D02*
X89943390Y-119225714D01*
X89943390Y-119225714D02*
X89991009Y-119178095D01*
X89991009Y-119178095D02*
X90086247Y-119130476D01*
X83279047Y-68644819D02*
X83612380Y-68168628D01*
X83850475Y-68644819D02*
X83850475Y-67644819D01*
X83850475Y-67644819D02*
X83469523Y-67644819D01*
X83469523Y-67644819D02*
X83374285Y-67692438D01*
X83374285Y-67692438D02*
X83326666Y-67740057D01*
X83326666Y-67740057D02*
X83279047Y-67835295D01*
X83279047Y-67835295D02*
X83279047Y-67978152D01*
X83279047Y-67978152D02*
X83326666Y-68073390D01*
X83326666Y-68073390D02*
X83374285Y-68121009D01*
X83374285Y-68121009D02*
X83469523Y-68168628D01*
X83469523Y-68168628D02*
X83850475Y-68168628D01*
X82898094Y-67740057D02*
X82850475Y-67692438D01*
X82850475Y-67692438D02*
X82755237Y-67644819D01*
X82755237Y-67644819D02*
X82517142Y-67644819D01*
X82517142Y-67644819D02*
X82421904Y-67692438D01*
X82421904Y-67692438D02*
X82374285Y-67740057D01*
X82374285Y-67740057D02*
X82326666Y-67835295D01*
X82326666Y-67835295D02*
X82326666Y-67930533D01*
X82326666Y-67930533D02*
X82374285Y-68073390D01*
X82374285Y-68073390D02*
X82945713Y-68644819D01*
X82945713Y-68644819D02*
X82326666Y-68644819D01*
X81707618Y-67644819D02*
X81612380Y-67644819D01*
X81612380Y-67644819D02*
X81517142Y-67692438D01*
X81517142Y-67692438D02*
X81469523Y-67740057D01*
X81469523Y-67740057D02*
X81421904Y-67835295D01*
X81421904Y-67835295D02*
X81374285Y-68025771D01*
X81374285Y-68025771D02*
X81374285Y-68263866D01*
X81374285Y-68263866D02*
X81421904Y-68454342D01*
X81421904Y-68454342D02*
X81469523Y-68549580D01*
X81469523Y-68549580D02*
X81517142Y-68597200D01*
X81517142Y-68597200D02*
X81612380Y-68644819D01*
X81612380Y-68644819D02*
X81707618Y-68644819D01*
X81707618Y-68644819D02*
X81802856Y-68597200D01*
X81802856Y-68597200D02*
X81850475Y-68549580D01*
X81850475Y-68549580D02*
X81898094Y-68454342D01*
X81898094Y-68454342D02*
X81945713Y-68263866D01*
X81945713Y-68263866D02*
X81945713Y-68025771D01*
X81945713Y-68025771D02*
X81898094Y-67835295D01*
X81898094Y-67835295D02*
X81850475Y-67740057D01*
X81850475Y-67740057D02*
X81802856Y-67692438D01*
X81802856Y-67692438D02*
X81707618Y-67644819D01*
X80421904Y-68644819D02*
X80993332Y-68644819D01*
X80707618Y-68644819D02*
X80707618Y-67644819D01*
X80707618Y-67644819D02*
X80802856Y-67787676D01*
X80802856Y-67787676D02*
X80898094Y-67882914D01*
X80898094Y-67882914D02*
X80993332Y-67930533D01*
D11*
%TO.C,R115*%
X131637742Y-130377500D02*
X132112258Y-130377500D01*
X131637742Y-131422500D02*
X132112258Y-131422500D01*
%TO.C,IC16*%
X91990000Y-113915000D02*
X91990000Y-113965000D01*
X91990000Y-115085000D02*
X91990000Y-115865000D01*
X91990000Y-116985000D02*
X91990000Y-117035000D01*
X91990000Y-117035000D02*
X93510000Y-117035000D01*
X93510000Y-113915000D02*
X91990000Y-113915000D01*
X93510000Y-114915000D02*
X93510000Y-113915000D01*
X93510000Y-117035000D02*
X93510000Y-116035000D01*
X91450000Y-115855000D02*
X91210000Y-115525000D01*
X91690000Y-115525000D01*
X91450000Y-115855000D01*
G36*
X91450000Y-115855000D02*
G01*
X91210000Y-115525000D01*
X91690000Y-115525000D01*
X91450000Y-115855000D01*
G37*
%TO.C,R203*%
X89112346Y-134402500D02*
X89586862Y-134402500D01*
X89112346Y-135447500D02*
X89586862Y-135447500D01*
%TO.C,FB2*%
X163737221Y-64490000D02*
X164062779Y-64490000D01*
X163737221Y-65510000D02*
X164062779Y-65510000D01*
%TO.C,TP7*%
X87800000Y-133200000D02*
G75*
G02*
X86400000Y-133200000I-700000J0D01*
G01*
X86400000Y-133200000D02*
G75*
G02*
X87800000Y-133200000I700000J0D01*
G01*
%TO.C,R163*%
X107677500Y-83487258D02*
X107677500Y-83012742D01*
X108722500Y-83487258D02*
X108722500Y-83012742D01*
%TO.C,C4*%
X141140580Y-62090000D02*
X140859420Y-62090000D01*
X141140580Y-63110000D02*
X140859420Y-63110000D01*
%TO.C,R62*%
X91077500Y-105137258D02*
X91077500Y-104662742D01*
X92122500Y-105137258D02*
X92122500Y-104662742D01*
%TO.C,FB31*%
X158240000Y-114600279D02*
X158240000Y-114274721D01*
X159260000Y-114600279D02*
X159260000Y-114274721D01*
%TO.C,C36*%
X141040580Y-105590000D02*
X140759420Y-105590000D01*
X141040580Y-106610000D02*
X140759420Y-106610000D01*
%TO.C,R124*%
X131592742Y-134677500D02*
X132067258Y-134677500D01*
X131592742Y-135722500D02*
X132067258Y-135722500D01*
%TO.C,C67*%
X88040000Y-115415580D02*
X88040000Y-115134420D01*
X89060000Y-115415580D02*
X89060000Y-115134420D01*
%TO.C,R50*%
X131562742Y-69877500D02*
X132037258Y-69877500D01*
X131562742Y-70922500D02*
X132037258Y-70922500D01*
%TO.C,C68*%
X93164604Y-138284420D02*
X93164604Y-138565580D01*
X94184604Y-138284420D02*
X94184604Y-138565580D01*
%TO.C,C65*%
X88015058Y-71815580D02*
X88015058Y-71534420D01*
X89035058Y-71815580D02*
X89035058Y-71534420D01*
%TO.C,TP6*%
X99350000Y-112775000D02*
G75*
G02*
X97950000Y-112775000I-700000J0D01*
G01*
X97950000Y-112775000D02*
G75*
G02*
X99350000Y-112775000I700000J0D01*
G01*
%TO.C,R1*%
X131562742Y-56977500D02*
X132037258Y-56977500D01*
X131562742Y-58022500D02*
X132037258Y-58022500D01*
%TO.C,R107*%
X131562742Y-115477500D02*
X132037258Y-115477500D01*
X131562742Y-116522500D02*
X132037258Y-116522500D01*
%TO.C,R88*%
X131562742Y-111177500D02*
X132037258Y-111177500D01*
X131562742Y-112222500D02*
X132037258Y-112222500D01*
%TO.C,D15*%
X86860000Y-112525000D02*
X84200000Y-112525000D01*
X86860000Y-112525000D02*
X86860000Y-114225000D01*
X86860000Y-114225000D02*
X84200000Y-114225000D01*
%TO.C,C19*%
X140759420Y-85290000D02*
X141040580Y-85290000D01*
X140759420Y-86310000D02*
X141040580Y-86310000D01*
%TO.C,R205*%
X158277500Y-91237742D02*
X158277500Y-91712258D01*
X159322500Y-91237742D02*
X159322500Y-91712258D01*
%TO.C,U66*%
X92552104Y-136810000D02*
X97172104Y-136810000D01*
X97172104Y-130040000D02*
X92552104Y-130040000D01*
X91002104Y-136355000D02*
X90672104Y-136595000D01*
X90672104Y-136115000D01*
X91002104Y-136355000D01*
G36*
X91002104Y-136355000D02*
G01*
X90672104Y-136595000D01*
X90672104Y-136115000D01*
X91002104Y-136355000D01*
G37*
%TO.C,R161*%
X81537258Y-83847500D02*
X81062742Y-83847500D01*
X81537258Y-84892500D02*
X81062742Y-84892500D01*
%TO.C,U64*%
X88815058Y-70060000D02*
X93435058Y-70060000D01*
X93435058Y-63290000D02*
X88815058Y-63290000D01*
X87265058Y-69605000D02*
X86935058Y-69845000D01*
X86935058Y-69365000D01*
X87265058Y-69605000D01*
G36*
X87265058Y-69605000D02*
G01*
X86935058Y-69845000D01*
X86935058Y-69365000D01*
X87265058Y-69605000D01*
G37*
%TO.C,TP3*%
X86325058Y-66375000D02*
G75*
G02*
X84925058Y-66375000I-700000J0D01*
G01*
X84925058Y-66375000D02*
G75*
G02*
X86325058Y-66375000I700000J0D01*
G01*
%TO.C,R158*%
X131562742Y-81677500D02*
X132037258Y-81677500D01*
X131562742Y-82722500D02*
X132037258Y-82722500D01*
%TO.C,C51*%
X141165580Y-127190000D02*
X140884420Y-127190000D01*
X141165580Y-128210000D02*
X140884420Y-128210000D01*
%TO.C,TP12*%
X102550000Y-91381292D02*
G75*
G02*
X101150000Y-91381292I-700000J0D01*
G01*
X101150000Y-91381292D02*
G75*
G02*
X102550000Y-91381292I700000J0D01*
G01*
%TO.C,C35*%
X140759420Y-107090000D02*
X141040580Y-107090000D01*
X140759420Y-108110000D02*
X141040580Y-108110000D01*
%TO.C,D16*%
X86735058Y-69025000D02*
X84075058Y-69025000D01*
X86735058Y-69025000D02*
X86735058Y-70725000D01*
X86735058Y-70725000D02*
X84075058Y-70725000D01*
%TO.C,R63*%
X103177500Y-105137258D02*
X103177500Y-104662742D01*
X104222500Y-105137258D02*
X104222500Y-104662742D01*
%TO.C,C69*%
X91664604Y-138565580D02*
X91664604Y-138284420D01*
X92684604Y-138565580D02*
X92684604Y-138284420D01*
%TO.C,C70*%
X92640000Y-93940712D02*
X92640000Y-94221872D01*
X93660000Y-93940712D02*
X93660000Y-94221872D01*
%TO.C,C3*%
X140859420Y-63590000D02*
X141140580Y-63590000D01*
X140859420Y-64610000D02*
X141140580Y-64610000D01*
%TO.C,C63*%
X161140580Y-115940000D02*
X160859420Y-115940000D01*
X161140580Y-116960000D02*
X160859420Y-116960000D01*
%TO.C,IC17*%
X95614604Y-137115000D02*
X95614604Y-137165000D01*
X95614604Y-138285000D02*
X95614604Y-139065000D01*
X95614604Y-140185000D02*
X95614604Y-140235000D01*
X95614604Y-140235000D02*
X97134604Y-140235000D01*
X97134604Y-137115000D02*
X95614604Y-137115000D01*
X97134604Y-138115000D02*
X97134604Y-137115000D01*
X97134604Y-140235000D02*
X97134604Y-139235000D01*
X95074604Y-139055000D02*
X94834604Y-138725000D01*
X95314604Y-138725000D01*
X95074604Y-139055000D01*
G36*
X95074604Y-139055000D02*
G01*
X94834604Y-138725000D01*
X95314604Y-138725000D01*
X95074604Y-139055000D01*
G37*
%TO.C,U67*%
X92035000Y-92466292D02*
X96655000Y-92466292D01*
X96655000Y-85696292D02*
X92035000Y-85696292D01*
X90485000Y-92011292D02*
X90155000Y-92251292D01*
X90155000Y-91771292D01*
X90485000Y-92011292D01*
G36*
X90485000Y-92011292D02*
G01*
X90155000Y-92251292D01*
X90155000Y-91771292D01*
X90485000Y-92011292D01*
G37*
%TO.C,R139*%
X131637742Y-138977500D02*
X132112258Y-138977500D01*
X131637742Y-140022500D02*
X132112258Y-140022500D01*
%TO.C,U65*%
X88940000Y-113660000D02*
X93560000Y-113660000D01*
X93560000Y-106890000D02*
X88940000Y-106890000D01*
X87390000Y-113205000D02*
X87060000Y-113445000D01*
X87060000Y-112965000D01*
X87390000Y-113205000D01*
G36*
X87390000Y-113205000D02*
G01*
X87060000Y-113445000D01*
X87060000Y-112965000D01*
X87390000Y-113205000D01*
G37*
%TO.C,R58*%
X131562742Y-102577500D02*
X132037258Y-102577500D01*
X131562742Y-103622500D02*
X132037258Y-103622500D01*
%TO.C,R162*%
X95737258Y-82877500D02*
X95262742Y-82877500D01*
X95737258Y-83922500D02*
X95262742Y-83922500D01*
%TO.C,IC15*%
X91965058Y-70315000D02*
X91965058Y-70365000D01*
X91965058Y-71485000D02*
X91965058Y-72265000D01*
X91965058Y-73385000D02*
X91965058Y-73435000D01*
X91965058Y-73435000D02*
X93485058Y-73435000D01*
X93485058Y-70315000D02*
X91965058Y-70315000D01*
X93485058Y-71315000D02*
X93485058Y-70315000D01*
X93485058Y-73435000D02*
X93485058Y-72435000D01*
X91425058Y-72255000D02*
X91185058Y-71925000D01*
X91665058Y-71925000D01*
X91425058Y-72255000D01*
G36*
X91425058Y-72255000D02*
G01*
X91185058Y-71925000D01*
X91665058Y-71925000D01*
X91425058Y-72255000D01*
G37*
%TO.C,C71*%
X91140000Y-94221872D02*
X91140000Y-93940712D01*
X92160000Y-94221872D02*
X92160000Y-93940712D01*
%TO.C,TP4*%
X86350000Y-109875000D02*
G75*
G02*
X84950000Y-109875000I-700000J0D01*
G01*
X84950000Y-109875000D02*
G75*
G02*
X86350000Y-109875000I700000J0D01*
G01*
%TO.C,R167*%
X131562742Y-85977500D02*
X132037258Y-85977500D01*
X131562742Y-87022500D02*
X132037258Y-87022500D01*
%TO.C,R61*%
X79337258Y-105177500D02*
X78862742Y-105177500D01*
X79337258Y-106222500D02*
X78862742Y-106222500D01*
%TO.C,U63*%
X159640000Y-109940000D02*
X159640000Y-114060000D01*
X159640000Y-114060000D02*
X159735000Y-114060000D01*
X159735000Y-109940000D02*
X159640000Y-109940000D01*
X164665000Y-114060000D02*
X164760000Y-114060000D01*
X164760000Y-109940000D02*
X164665000Y-109940000D01*
X164760000Y-114060000D02*
X164760000Y-109940000D01*
X159730000Y-109400000D02*
X159400000Y-109640000D01*
X159400000Y-109160000D01*
X159730000Y-109400000D01*
G36*
X159730000Y-109400000D02*
G01*
X159400000Y-109640000D01*
X159400000Y-109160000D01*
X159730000Y-109400000D01*
G37*
%TO.C,R12*%
X131662742Y-61277500D02*
X132137258Y-61277500D01*
X131662742Y-62322500D02*
X132137258Y-62322500D01*
%TO.C,R69*%
X131562742Y-106877500D02*
X132037258Y-106877500D01*
X131562742Y-107922500D02*
X132037258Y-107922500D01*
%TO.C,TP2*%
X99025058Y-69175000D02*
G75*
G02*
X97625058Y-69175000I-700000J0D01*
G01*
X97625058Y-69175000D02*
G75*
G02*
X99025058Y-69175000I700000J0D01*
G01*
%TO.C,TP5*%
X97550000Y-111875000D02*
G75*
G02*
X96150000Y-111875000I-700000J0D01*
G01*
X96150000Y-111875000D02*
G75*
G02*
X97550000Y-111875000I700000J0D01*
G01*
%TO.C,R202*%
X86087258Y-111152500D02*
X85612742Y-111152500D01*
X86087258Y-112197500D02*
X85612742Y-112197500D01*
%TO.C,TP8*%
X101174604Y-135025000D02*
G75*
G02*
X99774604Y-135025000I-700000J0D01*
G01*
X99774604Y-135025000D02*
G75*
G02*
X101174604Y-135025000I700000J0D01*
G01*
%TO.C,IC18*%
X95090000Y-92721292D02*
X95090000Y-92771292D01*
X95090000Y-93891292D02*
X95090000Y-94671292D01*
X95090000Y-95791292D02*
X95090000Y-95841292D01*
X95090000Y-95841292D02*
X96610000Y-95841292D01*
X96610000Y-92721292D02*
X95090000Y-92721292D01*
X96610000Y-93721292D02*
X96610000Y-92721292D01*
X96610000Y-95841292D02*
X96610000Y-94841292D01*
X94550000Y-94661292D02*
X94310000Y-94331292D01*
X94790000Y-94331292D01*
X94550000Y-94661292D01*
G36*
X94550000Y-94661292D02*
G01*
X94310000Y-94331292D01*
X94790000Y-94331292D01*
X94550000Y-94661292D01*
G37*
%TO.C,C50*%
X140884420Y-128690000D02*
X141165580Y-128690000D01*
X140884420Y-129710000D02*
X141165580Y-129710000D01*
%TO.C,FB3*%
X163787221Y-62490000D02*
X164112779Y-62490000D01*
X163787221Y-63510000D02*
X164112779Y-63510000D01*
%TO.C,TP11*%
X100650000Y-90681292D02*
G75*
G02*
X99250000Y-90681292I-700000J0D01*
G01*
X99250000Y-90681292D02*
G75*
G02*
X100650000Y-90681292I700000J0D01*
G01*
%TO.C,C64*%
X89515058Y-71534420D02*
X89515058Y-71815580D01*
X90535058Y-71534420D02*
X90535058Y-71815580D01*
%TO.C,TP1*%
X97225058Y-68275000D02*
G75*
G02*
X95825058Y-68275000I-700000J0D01*
G01*
X95825058Y-68275000D02*
G75*
G02*
X97225058Y-68275000I700000J0D01*
G01*
%TO.C,R182*%
X131562742Y-90277500D02*
X132037258Y-90277500D01*
X131562742Y-91322500D02*
X132037258Y-91322500D01*
%TO.C,D17*%
X90484604Y-135775000D02*
X87824604Y-135775000D01*
X90484604Y-135775000D02*
X90484604Y-137475000D01*
X90484604Y-137475000D02*
X87824604Y-137475000D01*
%TO.C,R204*%
X88512742Y-89958792D02*
X88987258Y-89958792D01*
X88512742Y-91003792D02*
X88987258Y-91003792D01*
%TO.C,TP10*%
X89450000Y-88681292D02*
G75*
G02*
X88050000Y-88681292I-700000J0D01*
G01*
X88050000Y-88681292D02*
G75*
G02*
X89450000Y-88681292I700000J0D01*
G01*
%TO.C,TP9*%
X103074604Y-135725000D02*
G75*
G02*
X101674604Y-135725000I-700000J0D01*
G01*
X101674604Y-135725000D02*
G75*
G02*
X103074604Y-135725000I700000J0D01*
G01*
%TO.C,R31*%
X131562742Y-65577500D02*
X132037258Y-65577500D01*
X131562742Y-66622500D02*
X132037258Y-66622500D01*
%TO.C,D18*%
X89960000Y-91331292D02*
X87300000Y-91331292D01*
X89960000Y-91331292D02*
X89960000Y-93031292D01*
X89960000Y-93031292D02*
X87300000Y-93031292D01*
%TO.C,C20*%
X141040580Y-83790000D02*
X140759420Y-83790000D01*
X141040580Y-84810000D02*
X140759420Y-84810000D01*
%TO.C,C66*%
X89540000Y-115134420D02*
X89540000Y-115415580D01*
X90560000Y-115134420D02*
X90560000Y-115415580D01*
%TO.C,R201*%
X85837258Y-67577500D02*
X85362742Y-67577500D01*
X85837258Y-68622500D02*
X85362742Y-68622500D01*
%TD*%
M02*
